<?xml version="1.0" encoding="utf-8" standalone="no"?>
<!DOCTYPE svg PUBLIC "-//W3C//DTD SVG 1.1//EN"
  "http://www.w3.org/Graphics/SVG/1.1/DTD/svg11.dtd">
<!-- Created with matplotlib (http://matplotlib.org/) -->
<svg height="265.69625pt" version="1.1" viewBox="0 0 386.125 265.69625" width="386.125pt" xmlns="http://www.w3.org/2000/svg" xmlns:xlink="http://www.w3.org/1999/xlink">
 <defs>
  <style type="text/css">
*{stroke-linecap:butt;stroke-linejoin:round;}
  </style>
 </defs>
 <g id="figure_1">
  <g id="patch_1">
   <path d="M 0 265.69625 
L 386.125 265.69625 
L 386.125 0 
L 0 0 
z
" style="fill:#ffffff;"/>
  </g>
  <g id="axes_1">
   <g id="patch_2">
    <path d="M 40.625 74.652941 
L 375.425 74.652941 
L 375.425 10.7 
L 40.625 10.7 
z
" style="fill:#ffffff;"/>
   </g>
   <g id="matplotlib.axis_1">
    <g id="xtick_1">
     <g id="line2d_1">
      <defs>
       <path d="M 0 0 
L 0 3.5 
" id="m510d2ed76a" style="stroke:#000000;stroke-width:0.8;"/>
      </defs>
      <g>
       <use style="stroke:#000000;stroke-width:0.8;" x="55.843182" xlink:href="#m510d2ed76a" y="74.652941"/>
      </g>
     </g>
    </g>
    <g id="xtick_2">
     <g id="line2d_2">
      <g>
       <use style="stroke:#000000;stroke-width:0.8;" x="116.770473" xlink:href="#m510d2ed76a" y="74.652941"/>
      </g>
     </g>
    </g>
    <g id="xtick_3">
     <g id="line2d_3">
      <g>
       <use style="stroke:#000000;stroke-width:0.8;" x="177.697764" xlink:href="#m510d2ed76a" y="74.652941"/>
      </g>
     </g>
    </g>
    <g id="xtick_4">
     <g id="line2d_4">
      <g>
       <use style="stroke:#000000;stroke-width:0.8;" x="238.625055" xlink:href="#m510d2ed76a" y="74.652941"/>
      </g>
     </g>
    </g>
    <g id="xtick_5">
     <g id="line2d_5">
      <g>
       <use style="stroke:#000000;stroke-width:0.8;" x="299.552347" xlink:href="#m510d2ed76a" y="74.652941"/>
      </g>
     </g>
    </g>
    <g id="xtick_6">
     <g id="line2d_6">
      <g>
       <use style="stroke:#000000;stroke-width:0.8;" x="360.479638" xlink:href="#m510d2ed76a" y="74.652941"/>
      </g>
     </g>
    </g>
   </g>
   <g id="matplotlib.axis_2">
    <g id="ytick_1">
     <g id="line2d_7">
      <defs>
       <path d="M 0 0 
L -3.5 0 
" id="m3b0688da0c" style="stroke:#000000;stroke-width:0.8;"/>
      </defs>
      <g>
       <use style="stroke:#000000;stroke-width:0.8;" x="40.625" xlink:href="#m3b0688da0c" y="71.745989"/>
      </g>
     </g>
     <g id="text_1">
      <!-- 0 -->
      <defs>
       <path d="M 31.78125 66.40625 
Q 24.171875 66.40625 20.328125 58.90625 
Q 16.5 51.421875 16.5 36.375 
Q 16.5 21.390625 20.328125 13.890625 
Q 24.171875 6.390625 31.78125 6.390625 
Q 39.453125 6.390625 43.28125 13.890625 
Q 47.125 21.390625 47.125 36.375 
Q 47.125 51.421875 43.28125 58.90625 
Q 39.453125 66.40625 31.78125 66.40625 
z
M 31.78125 74.21875 
Q 44.046875 74.21875 50.515625 64.515625 
Q 56.984375 54.828125 56.984375 36.375 
Q 56.984375 17.96875 50.515625 8.265625 
Q 44.046875 -1.421875 31.78125 -1.421875 
Q 19.53125 -1.421875 13.0625 8.265625 
Q 6.59375 17.96875 6.59375 36.375 
Q 6.59375 54.828125 13.0625 64.515625 
Q 19.53125 74.21875 31.78125 74.21875 
z
" id="DejaVuSans-30"/>
      </defs>
      <g transform="translate(27.2625 75.545208)scale(0.1 -0.1)">
       <use xlink:href="#DejaVuSans-30"/>
      </g>
     </g>
    </g>
    <g id="ytick_2">
     <g id="line2d_8">
      <g>
       <use style="stroke:#000000;stroke-width:0.8;" x="40.625" xlink:href="#m3b0688da0c" y="49.662468"/>
      </g>
     </g>
     <g id="text_2">
      <!-- 5 -->
      <defs>
       <path d="M 10.796875 72.90625 
L 49.515625 72.90625 
L 49.515625 64.59375 
L 19.828125 64.59375 
L 19.828125 46.734375 
Q 21.96875 47.46875 24.109375 47.828125 
Q 26.265625 48.1875 28.421875 48.1875 
Q 40.625 48.1875 47.75 41.5 
Q 54.890625 34.8125 54.890625 23.390625 
Q 54.890625 11.625 47.5625 5.09375 
Q 40.234375 -1.421875 26.90625 -1.421875 
Q 22.3125 -1.421875 17.546875 -0.640625 
Q 12.796875 0.140625 7.71875 1.703125 
L 7.71875 11.625 
Q 12.109375 9.234375 16.796875 8.0625 
Q 21.484375 6.890625 26.703125 6.890625 
Q 35.15625 6.890625 40.078125 11.328125 
Q 45.015625 15.765625 45.015625 23.390625 
Q 45.015625 31 40.078125 35.4375 
Q 35.15625 39.890625 26.703125 39.890625 
Q 22.75 39.890625 18.8125 39.015625 
Q 14.890625 38.140625 10.796875 36.28125 
z
" id="DejaVuSans-35"/>
      </defs>
      <g transform="translate(27.2625 53.461687)scale(0.1 -0.1)">
       <use xlink:href="#DejaVuSans-35"/>
      </g>
     </g>
    </g>
    <g id="ytick_3">
     <g id="line2d_9">
      <g>
       <use style="stroke:#000000;stroke-width:0.8;" x="40.625" xlink:href="#m3b0688da0c" y="27.578947"/>
      </g>
     </g>
     <g id="text_3">
      <!-- 10 -->
      <defs>
       <path d="M 12.40625 8.296875 
L 28.515625 8.296875 
L 28.515625 63.921875 
L 10.984375 60.40625 
L 10.984375 69.390625 
L 28.421875 72.90625 
L 38.28125 72.90625 
L 38.28125 8.296875 
L 54.390625 8.296875 
L 54.390625 0 
L 12.40625 0 
z
" id="DejaVuSans-31"/>
      </defs>
      <g transform="translate(20.9 31.378165)scale(0.1 -0.1)">
       <use xlink:href="#DejaVuSans-31"/>
       <use x="63.623047" xlink:href="#DejaVuSans-30"/>
      </g>
     </g>
    </g>
    <g id="text_4">
     <!-- $x \: [m]$ -->
     <defs>
      <path d="M 60.015625 54.6875 
L 34.90625 27.875 
L 50.296875 0 
L 39.984375 0 
L 28.421875 21.6875 
L 8.296875 0 
L -2.59375 0 
L 24.3125 28.8125 
L 10.015625 54.6875 
L 20.3125 54.6875 
L 30.8125 34.90625 
L 49.125 54.6875 
z
" id="DejaVuSans-Oblique-78"/>
      <path d="M 8.59375 75.984375 
L 29.296875 75.984375 
L 29.296875 69 
L 17.578125 69 
L 17.578125 -6.203125 
L 29.296875 -6.203125 
L 29.296875 -13.1875 
L 8.59375 -13.1875 
z
" id="DejaVuSans-5b"/>
      <path d="M 89.796875 33.015625 
L 83.40625 0 
L 74.421875 0 
L 80.71875 32.71875 
Q 81.109375 34.8125 81.296875 36.328125 
Q 81.5 37.84375 81.5 38.921875 
Q 81.5 43.3125 79.046875 45.75 
Q 76.609375 48.1875 72.21875 48.1875 
Q 65.671875 48.1875 60.546875 43.28125 
Q 55.421875 38.375 53.90625 30.515625 
L 47.90625 0 
L 38.921875 0 
L 45.3125 32.71875 
Q 45.703125 34.515625 45.890625 36.046875 
Q 46.09375 37.59375 46.09375 38.8125 
Q 46.09375 43.265625 43.65625 45.71875 
Q 41.21875 48.1875 36.921875 48.1875 
Q 30.28125 48.1875 25.140625 43.28125 
Q 20.015625 38.375 18.5 30.515625 
L 12.5 0 
L 3.515625 0 
L 14.203125 54.6875 
L 23.1875 54.6875 
L 21.484375 46.1875 
Q 25.140625 50.984375 30.046875 53.484375 
Q 34.96875 56 40.578125 56 
Q 46.53125 56 50.359375 52.875 
Q 54.203125 49.75 54.984375 44.1875 
Q 59.078125 49.953125 64.46875 52.96875 
Q 69.875 56 75.875 56 
Q 82.90625 56 86.734375 51.953125 
Q 90.578125 47.90625 90.578125 40.484375 
Q 90.578125 38.875 90.375 36.9375 
Q 90.1875 35.015625 89.796875 33.015625 
z
" id="DejaVuSans-Oblique-6d"/>
      <path d="M 30.421875 75.984375 
L 30.421875 -13.1875 
L 9.71875 -13.1875 
L 9.71875 -6.203125 
L 21.390625 -6.203125 
L 21.390625 69 
L 9.71875 69 
L 9.71875 75.984375 
z
" id="DejaVuSans-5d"/>
     </defs>
     <g transform="translate(14.820313 55.526471)rotate(-90)scale(0.1 -0.1)">
      <use transform="translate(0 0.015625)" xlink:href="#DejaVuSans-Oblique-78"/>
      <use transform="translate(80.826606 0.015625)" xlink:href="#DejaVuSans-5b"/>
      <use transform="translate(119.840278 0.015625)" xlink:href="#DejaVuSans-Oblique-6d"/>
      <use transform="translate(217.252388 0.015625)" xlink:href="#DejaVuSans-5d"/>
     </g>
    </g>
   </g>
   <g id="line2d_10">
    <path clip-path="url(#p0bb8c75580)" d="M 55.843182 71.745989 
L 92.675759 58.513902 
L 112.557867 51.625879 
L 127.967572 46.517878 
L 142.303135 41.971019 
L 153.905666 38.504458 
L 168.961113 34.283242 
L 181.125679 31.111792 
L 193.510352 28.088703 
L 203.678789 25.810157 
L 215.181754 23.464598 
L 224.703299 21.735913 
L 234.587831 20.156762 
L 251.12034 17.822584 
L 263.655795 16.342977 
L 274.354038 15.384349 
L 288.795038 14.394595 
L 297.934069 13.988188 
L 310.259597 13.665051 
L 320.189508 13.612593 
L 334.511383 13.803224 
L 342.846955 14.089858 
L 353.389471 14.728371 
L 360.206818 15.281064 
L 360.206818 15.281064 
" style="fill:none;stroke:#000000;stroke-linecap:square;stroke-width:1.5;"/>
   </g>
   <g id="patch_3">
    <path d="M 40.625 74.652941 
L 40.625 10.7 
" style="fill:none;stroke:#000000;stroke-linecap:square;stroke-linejoin:miter;stroke-width:0.8;"/>
   </g>
   <g id="patch_4">
    <path d="M 375.425 74.652941 
L 375.425 10.7 
" style="fill:none;stroke:#000000;stroke-linecap:square;stroke-linejoin:miter;stroke-width:0.8;"/>
   </g>
   <g id="patch_5">
    <path d="M 40.625 74.652941 
L 375.425 74.652941 
" style="fill:none;stroke:#000000;stroke-linecap:square;stroke-linejoin:miter;stroke-width:0.8;"/>
   </g>
   <g id="patch_6">
    <path d="M 40.625 10.7 
L 375.425 10.7 
" style="fill:none;stroke:#000000;stroke-linecap:square;stroke-linejoin:miter;stroke-width:0.8;"/>
   </g>
  </g>
  <g id="axes_2">
   <g id="patch_7">
    <path d="M 40.625 151.396471 
L 375.425 151.396471 
L 375.425 87.443529 
L 40.625 87.443529 
z
" style="fill:#ffffff;"/>
   </g>
   <g id="matplotlib.axis_3">
    <g id="xtick_7">
     <g id="line2d_11">
      <g>
       <use style="stroke:#000000;stroke-width:0.8;" x="55.843182" xlink:href="#m510d2ed76a" y="151.396471"/>
      </g>
     </g>
    </g>
    <g id="xtick_8">
     <g id="line2d_12">
      <g>
       <use style="stroke:#000000;stroke-width:0.8;" x="116.770473" xlink:href="#m510d2ed76a" y="151.396471"/>
      </g>
     </g>
    </g>
    <g id="xtick_9">
     <g id="line2d_13">
      <g>
       <use style="stroke:#000000;stroke-width:0.8;" x="177.697764" xlink:href="#m510d2ed76a" y="151.396471"/>
      </g>
     </g>
    </g>
    <g id="xtick_10">
     <g id="line2d_14">
      <g>
       <use style="stroke:#000000;stroke-width:0.8;" x="238.625055" xlink:href="#m510d2ed76a" y="151.396471"/>
      </g>
     </g>
    </g>
    <g id="xtick_11">
     <g id="line2d_15">
      <g>
       <use style="stroke:#000000;stroke-width:0.8;" x="299.552347" xlink:href="#m510d2ed76a" y="151.396471"/>
      </g>
     </g>
    </g>
    <g id="xtick_12">
     <g id="line2d_16">
      <g>
       <use style="stroke:#000000;stroke-width:0.8;" x="360.479638" xlink:href="#m510d2ed76a" y="151.396471"/>
      </g>
     </g>
    </g>
   </g>
   <g id="matplotlib.axis_4">
    <g id="ytick_4">
     <g id="line2d_17">
      <g>
       <use style="stroke:#000000;stroke-width:0.8;" x="40.625" xlink:href="#m3b0688da0c" y="125.761118"/>
      </g>
     </g>
     <g id="text_5">
      <!-- 10 -->
      <g transform="translate(20.9 129.560337)scale(0.1 -0.1)">
       <use xlink:href="#DejaVuSans-31"/>
       <use x="63.623047" xlink:href="#DejaVuSans-30"/>
      </g>
     </g>
    </g>
    <g id="ytick_5">
     <g id="line2d_18">
      <g>
       <use style="stroke:#000000;stroke-width:0.8;" x="40.625" xlink:href="#m3b0688da0c" y="92.659444"/>
      </g>
     </g>
     <g id="text_6">
      <!-- 20 -->
      <defs>
       <path d="M 19.1875 8.296875 
L 53.609375 8.296875 
L 53.609375 0 
L 7.328125 0 
L 7.328125 8.296875 
Q 12.9375 14.109375 22.625 23.890625 
Q 32.328125 33.6875 34.8125 36.53125 
Q 39.546875 41.84375 41.421875 45.53125 
Q 43.3125 49.21875 43.3125 52.78125 
Q 43.3125 58.59375 39.234375 62.25 
Q 35.15625 65.921875 28.609375 65.921875 
Q 23.96875 65.921875 18.8125 64.3125 
Q 13.671875 62.703125 7.8125 59.421875 
L 7.8125 69.390625 
Q 13.765625 71.78125 18.9375 73 
Q 24.125 74.21875 28.421875 74.21875 
Q 39.75 74.21875 46.484375 68.546875 
Q 53.21875 62.890625 53.21875 53.421875 
Q 53.21875 48.921875 51.53125 44.890625 
Q 49.859375 40.875 45.40625 35.40625 
Q 44.1875 33.984375 37.640625 27.21875 
Q 31.109375 20.453125 19.1875 8.296875 
z
" id="DejaVuSans-32"/>
      </defs>
      <g transform="translate(20.9 96.458663)scale(0.1 -0.1)">
       <use xlink:href="#DejaVuSans-32"/>
       <use x="63.623047" xlink:href="#DejaVuSans-30"/>
      </g>
     </g>
    </g>
    <g id="text_7">
     <!-- $y \: [m]$ -->
     <defs>
      <path d="M 24.8125 -5.078125 
Q 18.5625 -15.578125 14.625 -18.1875 
Q 10.6875 -20.796875 4.59375 -20.796875 
L -2.484375 -20.796875 
L -0.984375 -13.28125 
L 4.203125 -13.28125 
Q 7.953125 -13.28125 10.59375 -11.234375 
Q 13.234375 -9.1875 16.5 -3.21875 
L 19.28125 2 
L 7.171875 54.6875 
L 16.703125 54.6875 
L 25.78125 12.796875 
L 50.875 54.6875 
L 60.296875 54.6875 
z
" id="DejaVuSans-Oblique-79"/>
     </defs>
     <g transform="translate(14.8 132.27)rotate(-90)scale(0.1 -0.1)">
      <use transform="translate(0 0.015625)" xlink:href="#DejaVuSans-Oblique-79"/>
      <use transform="translate(80.826606 0.015625)" xlink:href="#DejaVuSans-5b"/>
      <use transform="translate(119.840278 0.015625)" xlink:href="#DejaVuSans-Oblique-6d"/>
      <use transform="translate(217.252388 0.015625)" xlink:href="#DejaVuSans-5d"/>
     </g>
    </g>
   </g>
   <g id="line2d_19">
    <path clip-path="url(#p4ae3b1a774)" d="M 55.843182 148.489519 
L 67.046691 148.378428 
L 79.386592 148.023244 
L 90.754451 147.459643 
L 102.167825 146.659139 
L 114.205542 145.601073 
L 126.343337 144.26701 
L 139.436655 142.59566 
L 151.625271 140.784839 
L 166.013693 138.348978 
L 179.627456 135.816504 
L 194.423617 132.851685 
L 207.070446 130.119123 
L 223.881402 126.24621 
L 241.324527 121.965935 
L 264.154085 116.155567 
L 291.442721 108.907544 
L 360.206818 90.350481 
L 360.206818 90.350481 
" style="fill:none;stroke:#000000;stroke-linecap:square;stroke-width:1.5;"/>
   </g>
   <g id="patch_8">
    <path d="M 40.625 151.396471 
L 40.625 87.443529 
" style="fill:none;stroke:#000000;stroke-linecap:square;stroke-linejoin:miter;stroke-width:0.8;"/>
   </g>
   <g id="patch_9">
    <path d="M 375.425 151.396471 
L 375.425 87.443529 
" style="fill:none;stroke:#000000;stroke-linecap:square;stroke-linejoin:miter;stroke-width:0.8;"/>
   </g>
   <g id="patch_10">
    <path d="M 40.625 151.396471 
L 375.425 151.396471 
" style="fill:none;stroke:#000000;stroke-linecap:square;stroke-linejoin:miter;stroke-width:0.8;"/>
   </g>
   <g id="patch_11">
    <path d="M 40.625 87.443529 
L 375.425 87.443529 
" style="fill:none;stroke:#000000;stroke-linecap:square;stroke-linejoin:miter;stroke-width:0.8;"/>
   </g>
  </g>
  <g id="axes_3">
   <g id="patch_12">
    <path d="M 40.625 228.14 
L 375.425 228.14 
L 375.425 164.187059 
L 40.625 164.187059 
z
" style="fill:#ffffff;"/>
   </g>
   <g id="matplotlib.axis_5">
    <g id="xtick_13">
     <g id="line2d_20">
      <g>
       <use style="stroke:#000000;stroke-width:0.8;" x="55.843182" xlink:href="#m510d2ed76a" y="228.14"/>
      </g>
     </g>
     <g id="text_8">
      <!-- 0 -->
      <g transform="translate(52.661932 242.738437)scale(0.1 -0.1)">
       <use xlink:href="#DejaVuSans-30"/>
      </g>
     </g>
    </g>
    <g id="xtick_14">
     <g id="line2d_21">
      <g>
       <use style="stroke:#000000;stroke-width:0.8;" x="116.770473" xlink:href="#m510d2ed76a" y="228.14"/>
      </g>
     </g>
     <g id="text_9">
      <!-- 5 -->
      <g transform="translate(113.589223 242.738437)scale(0.1 -0.1)">
       <use xlink:href="#DejaVuSans-35"/>
      </g>
     </g>
    </g>
    <g id="xtick_15">
     <g id="line2d_22">
      <g>
       <use style="stroke:#000000;stroke-width:0.8;" x="177.697764" xlink:href="#m510d2ed76a" y="228.14"/>
      </g>
     </g>
     <g id="text_10">
      <!-- 10 -->
      <g transform="translate(171.335264 242.738437)scale(0.1 -0.1)">
       <use xlink:href="#DejaVuSans-31"/>
       <use x="63.623047" xlink:href="#DejaVuSans-30"/>
      </g>
     </g>
    </g>
    <g id="xtick_16">
     <g id="line2d_23">
      <g>
       <use style="stroke:#000000;stroke-width:0.8;" x="238.625055" xlink:href="#m510d2ed76a" y="228.14"/>
      </g>
     </g>
     <g id="text_11">
      <!-- 15 -->
      <g transform="translate(232.262555 242.738437)scale(0.1 -0.1)">
       <use xlink:href="#DejaVuSans-31"/>
       <use x="63.623047" xlink:href="#DejaVuSans-35"/>
      </g>
     </g>
    </g>
    <g id="xtick_17">
     <g id="line2d_24">
      <g>
       <use style="stroke:#000000;stroke-width:0.8;" x="299.552347" xlink:href="#m510d2ed76a" y="228.14"/>
      </g>
     </g>
     <g id="text_12">
      <!-- 20 -->
      <g transform="translate(293.189847 242.738437)scale(0.1 -0.1)">
       <use xlink:href="#DejaVuSans-32"/>
       <use x="63.623047" xlink:href="#DejaVuSans-30"/>
      </g>
     </g>
    </g>
    <g id="xtick_18">
     <g id="line2d_25">
      <g>
       <use style="stroke:#000000;stroke-width:0.8;" x="360.479638" xlink:href="#m510d2ed76a" y="228.14"/>
      </g>
     </g>
     <g id="text_13">
      <!-- 25 -->
      <g transform="translate(354.117138 242.738437)scale(0.1 -0.1)">
       <use xlink:href="#DejaVuSans-32"/>
       <use x="63.623047" xlink:href="#DejaVuSans-35"/>
      </g>
     </g>
    </g>
    <g id="text_14">
     <!-- $t \: [s]$ -->
     <defs>
      <path d="M 42.28125 54.6875 
L 40.921875 47.703125 
L 23 47.703125 
L 17.1875 18.015625 
Q 16.890625 16.359375 16.75 15.234375 
Q 16.609375 14.109375 16.609375 13.484375 
Q 16.609375 10.359375 18.484375 8.9375 
Q 20.359375 7.515625 24.515625 7.515625 
L 33.59375 7.515625 
L 32.078125 0 
L 23.484375 0 
Q 15.484375 0 11.546875 3.125 
Q 7.625 6.25 7.625 12.59375 
Q 7.625 13.71875 7.765625 15.0625 
Q 7.90625 16.40625 8.203125 18.015625 
L 14.015625 47.703125 
L 6.390625 47.703125 
L 7.8125 54.6875 
L 15.28125 54.6875 
L 18.3125 70.21875 
L 27.296875 70.21875 
L 24.3125 54.6875 
z
" id="DejaVuSans-Oblique-74"/>
      <path d="M 50 53.078125 
L 48.296875 44.578125 
Q 44.734375 46.53125 40.765625 47.5 
Q 36.8125 48.484375 32.625 48.484375 
Q 25.53125 48.484375 21.453125 46.0625 
Q 17.390625 43.65625 17.390625 39.5 
Q 17.390625 34.671875 26.859375 32.078125 
Q 27.59375 31.890625 27.9375 31.78125 
L 30.8125 30.90625 
Q 39.796875 28.421875 42.796875 25.6875 
Q 45.796875 22.953125 45.796875 18.21875 
Q 45.796875 9.515625 38.890625 4.046875 
Q 31.984375 -1.421875 20.796875 -1.421875 
Q 16.453125 -1.421875 11.671875 -0.578125 
Q 6.890625 0.25 1.125 2 
L 2.875 11.28125 
Q 7.8125 8.734375 12.59375 7.421875 
Q 17.390625 6.109375 21.78125 6.109375 
Q 28.375 6.109375 32.5 8.9375 
Q 36.625 11.765625 36.625 16.109375 
Q 36.625 20.796875 25.78125 23.6875 
L 24.859375 23.921875 
L 21.78125 24.703125 
Q 14.9375 26.515625 11.765625 29.46875 
Q 8.59375 32.421875 8.59375 37.015625 
Q 8.59375 45.75 15.15625 50.875 
Q 21.734375 56 33.015625 56 
Q 37.453125 56 41.671875 55.265625 
Q 45.90625 54.546875 50 53.078125 
z
" id="DejaVuSans-Oblique-73"/>
     </defs>
     <g transform="translate(198.475 256.416562)scale(0.1 -0.1)">
      <use transform="translate(0 0.015625)" xlink:href="#DejaVuSans-Oblique-74"/>
      <use transform="translate(60.855903 0.015625)" xlink:href="#DejaVuSans-5b"/>
      <use transform="translate(99.869575 0.015625)" xlink:href="#DejaVuSans-Oblique-73"/>
      <use transform="translate(151.969185 0.015625)" xlink:href="#DejaVuSans-5d"/>
     </g>
    </g>
   </g>
   <g id="matplotlib.axis_6">
    <g id="ytick_6">
     <g id="line2d_26">
      <g>
       <use style="stroke:#000000;stroke-width:0.8;" x="40.625" xlink:href="#m3b0688da0c" y="225.233048"/>
      </g>
     </g>
     <g id="text_15">
      <!-- 0 -->
      <g transform="translate(27.2625 229.032267)scale(0.1 -0.1)">
       <use xlink:href="#DejaVuSans-30"/>
      </g>
     </g>
    </g>
    <g id="ytick_7">
     <g id="line2d_27">
      <g>
       <use style="stroke:#000000;stroke-width:0.8;" x="40.625" xlink:href="#m3b0688da0c" y="193.376668"/>
      </g>
     </g>
     <g id="text_16">
      <!-- 1 -->
      <g transform="translate(27.2625 197.175887)scale(0.1 -0.1)">
       <use xlink:href="#DejaVuSans-31"/>
      </g>
     </g>
    </g>
    <g id="text_17">
     <!-- $\theta \: [rad]$ -->
     <defs>
      <path d="M 45.515625 34.671875 
L 14.453125 34.671875 
Q 12.359375 20.0625 14.5 13.875 
Q 17.1875 6.25 24.46875 6.25 
Q 31.78125 6.25 37.359375 13.921875 
Q 42.234375 20.65625 45.515625 34.671875 
z
M 47.015625 42.96875 
Q 48.34375 56.84375 46.625 61.71875 
Q 43.953125 69.4375 36.765625 69.4375 
Q 29.296875 69.4375 23.828125 61.8125 
Q 19.53125 55.671875 16.15625 42.96875 
z
M 38.1875 76.765625 
Q 49.90625 76.765625 54.59375 66.40625 
Q 59.28125 56.109375 55.71875 37.84375 
Q 52.203125 19.625 43.453125 9.28125 
Q 34.765625 -1.125 23.046875 -1.125 
Q 11.28125 -1.125 6.640625 9.28125 
Q 2 19.625 5.515625 37.84375 
Q 9.078125 56.109375 17.71875 66.40625 
Q 26.421875 76.765625 38.1875 76.765625 
z
" id="DejaVuSans-Oblique-3b8"/>
      <path d="M 44.578125 46.390625 
Q 43.21875 47.125 41.453125 47.515625 
Q 39.703125 47.90625 37.703125 47.90625 
Q 30.515625 47.90625 25.140625 42.453125 
Q 19.78125 37.015625 18.015625 27.875 
L 12.5 0 
L 3.515625 0 
L 14.203125 54.6875 
L 23.1875 54.6875 
L 21.484375 46.1875 
Q 25.046875 50.921875 30 53.453125 
Q 34.96875 56 40.578125 56 
Q 42.046875 56 43.453125 55.828125 
Q 44.875 55.671875 46.296875 55.28125 
z
" id="DejaVuSans-Oblique-72"/>
      <path d="M 53.71875 31.203125 
L 47.609375 0 
L 38.625 0 
L 40.28125 8.296875 
Q 36.328125 3.421875 31.265625 1 
Q 26.21875 -1.421875 20.015625 -1.421875 
Q 13.03125 -1.421875 8.5625 2.84375 
Q 4.109375 7.125 4.109375 13.8125 
Q 4.109375 23.390625 11.75 28.953125 
Q 19.390625 34.515625 32.8125 34.515625 
L 45.3125 34.515625 
L 45.796875 36.921875 
Q 45.90625 37.3125 45.953125 37.765625 
Q 46 38.234375 46 39.203125 
Q 46 43.5625 42.453125 45.96875 
Q 38.921875 48.390625 32.515625 48.390625 
Q 28.125 48.390625 23.5 47.265625 
Q 18.890625 46.140625 14.015625 43.890625 
L 15.578125 52.203125 
Q 20.65625 54.109375 25.515625 55.046875 
Q 30.375 56 34.90625 56 
Q 44.578125 56 49.625 51.796875 
Q 54.6875 47.609375 54.6875 39.59375 
Q 54.6875 37.984375 54.4375 35.8125 
Q 54.203125 33.640625 53.71875 31.203125 
z
M 44 27.484375 
L 35.015625 27.484375 
Q 23.96875 27.484375 18.671875 24.53125 
Q 13.375 21.578125 13.375 15.375 
Q 13.375 11.078125 16.078125 8.640625 
Q 18.796875 6.203125 23.578125 6.203125 
Q 30.90625 6.203125 36.375 11.453125 
Q 41.84375 16.703125 43.609375 25.484375 
z
" id="DejaVuSans-Oblique-61"/>
      <path d="M 41.796875 8.203125 
Q 38.1875 3.46875 33.25 1.015625 
Q 28.328125 -1.421875 22.3125 -1.421875 
Q 14.109375 -1.421875 9.34375 4.171875 
Q 4.59375 9.765625 4.59375 19.484375 
Q 4.59375 27.59375 7.46875 34.9375 
Q 10.359375 42.28125 15.828125 48.09375 
Q 19.4375 51.953125 23.96875 53.96875 
Q 28.515625 56 33.5 56 
Q 38.765625 56 42.796875 53.453125 
Q 46.828125 50.921875 49.03125 46.1875 
L 54.890625 75.984375 
L 63.921875 75.984375 
L 49.125 0 
L 40.09375 0 
z
M 13.921875 21.09375 
Q 13.921875 14.015625 17.109375 10.0625 
Q 20.3125 6.109375 25.984375 6.109375 
Q 30.171875 6.109375 33.765625 8.125 
Q 37.359375 10.15625 40.09375 14.109375 
Q 42.96875 18.21875 44.625 23.578125 
Q 46.296875 28.953125 46.296875 34.1875 
Q 46.296875 40.96875 43.09375 44.765625 
Q 39.890625 48.578125 34.28125 48.578125 
Q 30.03125 48.578125 26.359375 46.578125 
Q 22.703125 44.578125 20.125 40.828125 
Q 17.28125 36.765625 15.59375 31.390625 
Q 13.921875 26.03125 13.921875 21.09375 
z
" id="DejaVuSans-Oblique-64"/>
     </defs>
     <g transform="translate(21.182813 212.513529)rotate(-90)scale(0.1 -0.1)">
      <use transform="translate(0 0.234375)" xlink:href="#DejaVuSans-Oblique-3b8"/>
      <use transform="translate(82.82856 0.234375)" xlink:href="#DejaVuSans-5b"/>
      <use transform="translate(121.842231 0.234375)" xlink:href="#DejaVuSans-Oblique-72"/>
      <use transform="translate(162.955513 0.234375)" xlink:href="#DejaVuSans-Oblique-61"/>
      <use transform="translate(224.23481 0.234375)" xlink:href="#DejaVuSans-Oblique-64"/>
      <use transform="translate(287.711372 0.234375)" xlink:href="#DejaVuSans-5d"/>
     </g>
    </g>
   </g>
   <g id="line2d_28">
    <path clip-path="url(#p435e7f1a44)" d="M 55.843182 225.233048 
L 59.659721 224.460521 
L 60.681711 224.151348 
L 61.061082 224.094107 
L 61.442282 224.011883 
L 61.980048 223.909021 
L 62.277475 223.84939 
L 64.890489 223.355963 
L 65.110883 223.309374 
L 65.492951 223.253944 
L 65.786334 223.216559 
L 66.179913 223.160349 
L 66.517476 223.090107 
L 66.849797 223.014167 
L 67.341196 222.852771 
L 67.961202 222.825525 
L 68.983409 222.64396 
L 69.334366 222.574007 
L 69.599038 222.525625 
L 70.510162 222.331053 
L 70.916558 222.240378 
L 73.193198 221.884785 
L 73.442567 221.845331 
L 75.220945 221.496807 
L 75.503994 221.434294 
L 76.098193 221.409471 
L 76.590915 221.257854 
L 77.095854 221.159679 
L 79.143523 220.650717 
L 79.627329 220.477687 
L 80.724904 220.206832 
L 81.002059 220.087615 
L 82.091892 220.019452 
L 82.792794 219.929937 
L 83.625454 219.765859 
L 84.783163 219.438948 
L 87.196028 218.978698 
L 87.703174 218.863958 
L 88.266955 218.756285 
L 88.574238 218.729215 
L 93.29549 217.494425 
L 93.739316 217.395855 
L 94.812037 217.227904 
L 95.23116 217.104356 
L 95.865083 216.961574 
L 96.553683 216.873352 
L 96.953552 216.880624 
L 98.326741 216.396983 
L 98.879088 216.227323 
L 99.220587 216.227463 
L 100.183512 216.286546 
L 100.843173 216.18861 
L 101.512878 216.047312 
L 101.957528 215.830961 
L 102.657279 215.902945 
L 102.889402 215.770101 
L 103.172632 215.811136 
L 103.936037 215.613656 
L 104.204847 215.543741 
L 104.848459 215.329098 
L 105.393245 215.36348 
L 106.116486 215.222921 
L 106.449938 215.170669 
L 106.951221 215.101528 
L 109.52689 214.534158 
L 110.225546 214.430271 
L 111.256261 214.192569 
L 112.060437 213.812409 
L 112.961632 213.595053 
L 113.249436 213.422364 
L 113.650951 213.369827 
L 114.319529 213.120406 
L 115.109458 213.036596 
L 117.285886 212.611896 
L 117.646237 212.570232 
L 118.135547 212.465763 
L 118.626578 212.247122 
L 119.202029 212.122198 
L 121.316055 211.640662 
L 122.918264 211.333961 
L 124.039842 211.328161 
L 124.467537 211.280352 
L 124.812637 211.261416 
L 125.415326 211.016014 
L 126.629196 210.757578 
L 127.562294 210.787635 
L 129.238702 210.511093 
L 129.757145 210.444969 
L 130.435184 210.282415 
L 130.979844 210.385524 
L 131.685713 210.164484 
L 132.738854 209.749443 
L 134.118451 209.383144 
L 136.455927 208.745364 
L 137.208161 208.615233 
L 137.530547 208.4821 
L 138.320097 208.470044 
L 138.597099 208.396949 
L 138.982402 208.304998 
L 139.666985 208.009289 
L 139.909633 208.036795 
L 140.495067 207.829623 
L 140.827091 207.840856 
L 141.289079 207.9425 
L 145.597911 206.971782 
L 146.175995 206.687439 
L 146.567218 206.51369 
L 147.402617 206.585285 
L 147.953489 206.369357 
L 149.477118 205.517142 
L 149.754692 205.452595 
L 150.397074 205.268037 
L 151.067275 205.195667 
L 153.251766 204.387884 
L 153.905666 204.399691 
L 154.855733 204.513681 
L 155.574216 204.365142 
L 156.250582 204.321315 
L 156.741907 204.438948 
L 159.037347 203.801106 
L 159.751819 203.687064 
L 160.597327 203.45356 
L 161.841798 203.585633 
L 163.259017 203.047001 
L 163.744038 202.957578 
L 164.190999 202.802908 
L 164.997213 202.769788 
L 165.251333 202.765499 
L 165.759573 202.452445 
L 167.248243 202.433835 
L 167.588879 202.298537 
L 168.212014 202.154205 
L 168.817618 201.963965 
L 169.293527 201.907123 
L 170.076955 201.681758 
L 170.264841 201.653072 
L 170.554581 201.572923 
L 170.923031 201.460972 
L 171.280728 201.421259 
L 171.878445 201.294423 
L 172.334255 201.371359 
L 173.299245 201.303431 
L 176.065592 200.211761 
L 177.244339 200.243609 
L 177.831094 200.361902 
L 178.518254 200.175934 
L 179.785856 200.09214 
L 181.125679 199.833524 
L 181.746322 199.812074 
L 183.008938 199.333686 
L 183.597789 199.332872 
L 184.127548 199.368444 
L 186.283669 198.830723 
L 186.891502 198.595071 
L 187.296724 198.697911 
L 187.904557 198.517155 
L 188.715 198.176969 
L 189.525444 198.29369 
L 189.728055 198.331943 
L 190.133277 198.152799 
L 191.530954 198.300222 
L 192.477035 198.027188 
L 192.855467 198.001158 
L 193.586654 197.711553 
L 194.018983 197.757484 
L 194.828252 197.376175 
L 195.435204 197.359955 
L 195.665969 197.290758 
L 196.127499 197.317627 
L 197.264091 196.869409 
L 197.927381 196.501856 
L 198.111727 196.469535 
L 198.39553 196.494308 
L 198.75164 196.419049 
L 198.972442 196.440954 
L 200.297252 195.794193 
L 201.193897 195.611119 
L 201.969323 195.383902 
L 202.725159 195.315615 
L 204.09366 195.201236 
L 204.508532 195.040754 
L 204.923403 194.953815 
L 206.19787 194.59072 
L 206.634158 194.605129 
L 207.943023 194.302912 
L 208.986607 194.48195 
L 210.740956 194.185516 
L 211.095891 194.094125 
L 211.858029 194.012884 
L 213.19177 193.734378 
L 213.712443 193.42414 
L 214.233116 193.228106 
L 214.549329 193.025556 
L 214.865542 192.961098 
L 215.307064 192.967436 
L 215.996585 192.855694 
L 216.48576 192.649104 
L 217.057359 192.571988 
L 217.803259 192.315932 
L 218.683722 192.142474 
L 219.196489 191.935819 
L 219.550867 192.041854 
L 219.905245 192.016577 
L 220.614002 191.656358 
L 221.33767 191.662223 
L 223.470453 191.200019 
L 223.881402 190.997003 
L 224.29235 190.921038 
L 225.525196 190.470809 
L 227.579939 190.423802 
L 227.990887 190.32317 
L 228.648186 190.029571 
L 229.96052 189.692525 
L 231.084691 189.477552 
L 232.523309 189.138871 
L 233.752932 188.511008 
L 235.42273 188.605784 
L 237.318311 188.372503 
L 237.656985 188.219393 
L 238.108551 188.295925 
L 239.187066 188.462773 
L 240.99163 188.292242 
L 242.216398 187.815979 
L 243.32005 187.834801 
L 245.085893 188.000892 
L 246.706908 187.850643 
L 247.047269 187.814013 
L 247.941948 187.551892 
L 248.836626 187.292761 
L 249.919572 186.963045 
L 250.447 186.726565 
L 251.589454 186.475688 
L 252.106192 186.536982 
L 252.75005 186.377639 
L 253.184209 186.379176 
L 254.052527 186.14483 
L 254.706136 186.127276 
L 255.006402 186.185345 
L 255.387484 186.261748 
L 256.06514 186.108268 
L 256.585967 186.125211 
L 258.263021 186.034455 
L 258.985399 186.044764 
L 260.863677 185.14397 
L 261.581892 184.892498 
L 261.940999 184.808472 
L 262.659214 184.380954 
L 263.157504 184.199691 
L 264.154085 184.027602 
L 265.150666 183.768794 
L 266.147247 183.613789 
L 267.246275 183.677693 
L 267.795789 183.614659 
L 269.161704 183.246187 
L 269.870878 183.156683 
L 270.425353 182.951623 
L 271.514023 182.478263 
L 273.542605 182.252416 
L 274.354038 182.006648 
L 275.82691 181.71346 
L 276.268393 181.821679 
L 276.709876 181.726766 
L 277.300645 181.330447 
L 277.891414 181.190911 
L 279.072951 181.557567 
L 281.138245 181.853241 
L 282.665658 181.426204 
L 283.881838 181.16776 
L 285.022882 180.940909 
L 285.731241 180.613428 
L 286.793781 180.522214 
L 289.635522 180.015165 
L 290.195845 179.88628 
L 290.653904 179.956638 
L 292.104238 179.656401 
L 293.935538 178.697776 
L 294.429031 178.680625 
L 295.616989 178.221709 
L 297.934069 178.355903 
L 298.894195 178.077193 
L 299.35962 178.107842 
L 300.269736 177.959728 
L 300.87403 177.9055 
L 301.168979 177.883546 
L 302.029297 177.495338 
L 302.403736 177.36737 
L 303.527052 177.389021 
L 304.27593 177.182493 
L 304.650369 177.225184 
L 305.310568 177.491207 
L 305.970766 177.551179 
L 306.630965 177.491484 
L 307.166944 177.563731 
L 307.702923 177.448293 
L 308.77488 176.922077 
L 311.319275 176.345834 
L 312.066513 176.062548 
L 313.248549 175.920124 
L 314.496932 175.780888 
L 314.865527 175.622427 
L 315.177692 175.651902 
L 315.754023 175.530863 
L 318.088775 175.335089 
L 318.55917 175.025687 
L 320.78708 174.647734 
L 321.384651 174.27846 
L 321.982223 174.059116 
L 322.579794 174.051313 
L 323.774937 173.730471 
L 324.372508 173.743075 
L 330.665379 174.503365 
L 333.169014 173.405996 
L 335.791366 173.064195 
L 336.466017 172.704342 
L 337.140668 172.611434 
L 338.48997 172.251941 
L 339.315288 172.179198 
L 339.727947 172.144076 
L 340.505395 171.828893 
L 341.486638 171.227162 
L 341.614345 171.197439 
L 341.898619 171.047573 
L 342.291518 170.971577 
L 342.846955 170.719455 
L 343.59377 170.778359 
L 344.340585 170.501827 
L 345.0874 170.119239 
L 345.460808 170.06078 
L 346.666455 170.397884 
L 347.087133 170.325213 
L 347.787426 170.132579 
L 348.694868 169.88668 
L 348.997349 169.638116 
L 349.299829 169.548807 
L 349.640633 169.587386 
L 350.32224 169.298656 
L 350.663043 169.281015 
L 351.003847 169.130117 
L 352.026257 169.071561 
L 353.730275 168.48891 
L 355.76699 168.531315 
L 356.663893 168.092859 
L 357.170025 167.990072 
L 357.676157 167.722226 
L 359.700686 167.220877 
L 360.206818 167.094011 
L 360.206818 167.094011 
" style="fill:none;stroke:#000000;stroke-linecap:square;stroke-width:1.5;"/>
   </g>
   <g id="patch_13">
    <path d="M 40.625 228.14 
L 40.625 164.187059 
" style="fill:none;stroke:#000000;stroke-linecap:square;stroke-linejoin:miter;stroke-width:0.8;"/>
   </g>
   <g id="patch_14">
    <path d="M 375.425 228.14 
L 375.425 164.187059 
" style="fill:none;stroke:#000000;stroke-linecap:square;stroke-linejoin:miter;stroke-width:0.8;"/>
   </g>
   <g id="patch_15">
    <path d="M 40.625 228.14 
L 375.425 228.14 
" style="fill:none;stroke:#000000;stroke-linecap:square;stroke-linejoin:miter;stroke-width:0.8;"/>
   </g>
   <g id="patch_16">
    <path d="M 40.625 164.187059 
L 375.425 164.187059 
" style="fill:none;stroke:#000000;stroke-linecap:square;stroke-linejoin:miter;stroke-width:0.8;"/>
   </g>
  </g>
 </g>
 <defs>
  <clipPath id="p0bb8c75580">
   <rect height="63.952941" width="334.8" x="40.625" y="10.7"/>
  </clipPath>
  <clipPath id="p4ae3b1a774">
   <rect height="63.952941" width="334.8" x="40.625" y="87.443529"/>
  </clipPath>
  <clipPath id="p435e7f1a44">
   <rect height="63.952941" width="334.8" x="40.625" y="164.187059"/>
  </clipPath>
 </defs>
</svg>
