<?xml version="1.0" encoding="utf-8" standalone="no"?>
<!DOCTYPE svg PUBLIC "-//W3C//DTD SVG 1.1//EN"
  "http://www.w3.org/Graphics/SVG/1.1/DTD/svg11.dtd">
<!-- Created with matplotlib (http://matplotlib.org/) -->
<svg height="288pt" version="1.1" viewBox="0 0 432 288" width="432pt" xmlns="http://www.w3.org/2000/svg" xmlns:xlink="http://www.w3.org/1999/xlink">
 <defs>
  <style type="text/css">
*{stroke-linecap:butt;stroke-linejoin:round;}
  </style>
 </defs>
 <g id="figure_1">
  <g id="patch_1">
   <path d="M 0 288 
L 432 288 
L 432 0 
L 0 0 
z
" style="fill:#ffffff;"/>
  </g>
  <g id="axes_1">
   <g id="patch_2">
    <path d="M 54 98.512941 
L 388.8 98.512941 
L 388.8 34.56 
L 54 34.56 
z
" style="fill:#ffffff;"/>
   </g>
   <g id="matplotlib.axis_1">
    <g id="xtick_1">
     <g id="line2d_1">
      <defs>
       <path d="M 0 0 
L 0 3.5 
" id="m04f2fffcdd" style="stroke:#000000;stroke-width:0.8;"/>
      </defs>
      <g>
       <use style="stroke:#000000;stroke-width:0.8;" x="69.218182" xlink:href="#m04f2fffcdd" y="98.512941"/>
      </g>
     </g>
     <g id="text_1">
      <!-- 0 -->
      <defs>
       <path d="M 31.78125 66.40625 
Q 24.171875 66.40625 20.328125 58.90625 
Q 16.5 51.421875 16.5 36.375 
Q 16.5 21.390625 20.328125 13.890625 
Q 24.171875 6.390625 31.78125 6.390625 
Q 39.453125 6.390625 43.28125 13.890625 
Q 47.125 21.390625 47.125 36.375 
Q 47.125 51.421875 43.28125 58.90625 
Q 39.453125 66.40625 31.78125 66.40625 
z
M 31.78125 74.21875 
Q 44.046875 74.21875 50.515625 64.515625 
Q 56.984375 54.828125 56.984375 36.375 
Q 56.984375 17.96875 50.515625 8.265625 
Q 44.046875 -1.421875 31.78125 -1.421875 
Q 19.53125 -1.421875 13.0625 8.265625 
Q 6.59375 17.96875 6.59375 36.375 
Q 6.59375 54.828125 13.0625 64.515625 
Q 19.53125 74.21875 31.78125 74.21875 
z
" id="DejaVuSans-30"/>
      </defs>
      <g transform="translate(66.036932 113.111379)scale(0.1 -0.1)">
       <use xlink:href="#DejaVuSans-30"/>
      </g>
     </g>
    </g>
    <g id="xtick_2">
     <g id="line2d_2">
      <g>
       <use style="stroke:#000000;stroke-width:0.8;" x="133.190804" xlink:href="#m04f2fffcdd" y="98.512941"/>
      </g>
     </g>
     <g id="text_2">
      <!-- 2 -->
      <defs>
       <path d="M 19.1875 8.296875 
L 53.609375 8.296875 
L 53.609375 0 
L 7.328125 0 
L 7.328125 8.296875 
Q 12.9375 14.109375 22.625 23.890625 
Q 32.328125 33.6875 34.8125 36.53125 
Q 39.546875 41.84375 41.421875 45.53125 
Q 43.3125 49.21875 43.3125 52.78125 
Q 43.3125 58.59375 39.234375 62.25 
Q 35.15625 65.921875 28.609375 65.921875 
Q 23.96875 65.921875 18.8125 64.3125 
Q 13.671875 62.703125 7.8125 59.421875 
L 7.8125 69.390625 
Q 13.765625 71.78125 18.9375 73 
Q 24.125 74.21875 28.421875 74.21875 
Q 39.75 74.21875 46.484375 68.546875 
Q 53.21875 62.890625 53.21875 53.421875 
Q 53.21875 48.921875 51.53125 44.890625 
Q 49.859375 40.875 45.40625 35.40625 
Q 44.1875 33.984375 37.640625 27.21875 
Q 31.109375 20.453125 19.1875 8.296875 
z
" id="DejaVuSans-32"/>
      </defs>
      <g transform="translate(130.009554 113.111379)scale(0.1 -0.1)">
       <use xlink:href="#DejaVuSans-32"/>
      </g>
     </g>
    </g>
    <g id="xtick_3">
     <g id="line2d_3">
      <g>
       <use style="stroke:#000000;stroke-width:0.8;" x="197.163427" xlink:href="#m04f2fffcdd" y="98.512941"/>
      </g>
     </g>
     <g id="text_3">
      <!-- 4 -->
      <defs>
       <path d="M 37.796875 64.3125 
L 12.890625 25.390625 
L 37.796875 25.390625 
z
M 35.203125 72.90625 
L 47.609375 72.90625 
L 47.609375 25.390625 
L 58.015625 25.390625 
L 58.015625 17.1875 
L 47.609375 17.1875 
L 47.609375 0 
L 37.796875 0 
L 37.796875 17.1875 
L 4.890625 17.1875 
L 4.890625 26.703125 
z
" id="DejaVuSans-34"/>
      </defs>
      <g transform="translate(193.982177 113.111379)scale(0.1 -0.1)">
       <use xlink:href="#DejaVuSans-34"/>
      </g>
     </g>
    </g>
    <g id="xtick_4">
     <g id="line2d_4">
      <g>
       <use style="stroke:#000000;stroke-width:0.8;" x="261.136049" xlink:href="#m04f2fffcdd" y="98.512941"/>
      </g>
     </g>
     <g id="text_4">
      <!-- 6 -->
      <defs>
       <path d="M 33.015625 40.375 
Q 26.375 40.375 22.484375 35.828125 
Q 18.609375 31.296875 18.609375 23.390625 
Q 18.609375 15.53125 22.484375 10.953125 
Q 26.375 6.390625 33.015625 6.390625 
Q 39.65625 6.390625 43.53125 10.953125 
Q 47.40625 15.53125 47.40625 23.390625 
Q 47.40625 31.296875 43.53125 35.828125 
Q 39.65625 40.375 33.015625 40.375 
z
M 52.59375 71.296875 
L 52.59375 62.3125 
Q 48.875 64.0625 45.09375 64.984375 
Q 41.3125 65.921875 37.59375 65.921875 
Q 27.828125 65.921875 22.671875 59.328125 
Q 17.53125 52.734375 16.796875 39.40625 
Q 19.671875 43.65625 24.015625 45.921875 
Q 28.375 48.1875 33.59375 48.1875 
Q 44.578125 48.1875 50.953125 41.515625 
Q 57.328125 34.859375 57.328125 23.390625 
Q 57.328125 12.15625 50.6875 5.359375 
Q 44.046875 -1.421875 33.015625 -1.421875 
Q 20.359375 -1.421875 13.671875 8.265625 
Q 6.984375 17.96875 6.984375 36.375 
Q 6.984375 53.65625 15.1875 63.9375 
Q 23.390625 74.21875 37.203125 74.21875 
Q 40.921875 74.21875 44.703125 73.484375 
Q 48.484375 72.75 52.59375 71.296875 
z
" id="DejaVuSans-36"/>
      </defs>
      <g transform="translate(257.954799 113.111379)scale(0.1 -0.1)">
       <use xlink:href="#DejaVuSans-36"/>
      </g>
     </g>
    </g>
    <g id="xtick_5">
     <g id="line2d_5">
      <g>
       <use style="stroke:#000000;stroke-width:0.8;" x="325.108672" xlink:href="#m04f2fffcdd" y="98.512941"/>
      </g>
     </g>
     <g id="text_5">
      <!-- 8 -->
      <defs>
       <path d="M 31.78125 34.625 
Q 24.75 34.625 20.71875 30.859375 
Q 16.703125 27.09375 16.703125 20.515625 
Q 16.703125 13.921875 20.71875 10.15625 
Q 24.75 6.390625 31.78125 6.390625 
Q 38.8125 6.390625 42.859375 10.171875 
Q 46.921875 13.96875 46.921875 20.515625 
Q 46.921875 27.09375 42.890625 30.859375 
Q 38.875 34.625 31.78125 34.625 
z
M 21.921875 38.8125 
Q 15.578125 40.375 12.03125 44.71875 
Q 8.5 49.078125 8.5 55.328125 
Q 8.5 64.0625 14.71875 69.140625 
Q 20.953125 74.21875 31.78125 74.21875 
Q 42.671875 74.21875 48.875 69.140625 
Q 55.078125 64.0625 55.078125 55.328125 
Q 55.078125 49.078125 51.53125 44.71875 
Q 48 40.375 41.703125 38.8125 
Q 48.828125 37.15625 52.796875 32.3125 
Q 56.78125 27.484375 56.78125 20.515625 
Q 56.78125 9.90625 50.3125 4.234375 
Q 43.84375 -1.421875 31.78125 -1.421875 
Q 19.734375 -1.421875 13.25 4.234375 
Q 6.78125 9.90625 6.78125 20.515625 
Q 6.78125 27.484375 10.78125 32.3125 
Q 14.796875 37.15625 21.921875 38.8125 
z
M 18.3125 54.390625 
Q 18.3125 48.734375 21.84375 45.5625 
Q 25.390625 42.390625 31.78125 42.390625 
Q 38.140625 42.390625 41.71875 45.5625 
Q 45.3125 48.734375 45.3125 54.390625 
Q 45.3125 60.0625 41.71875 63.234375 
Q 38.140625 66.40625 31.78125 66.40625 
Q 25.390625 66.40625 21.84375 63.234375 
Q 18.3125 60.0625 18.3125 54.390625 
z
" id="DejaVuSans-38"/>
      </defs>
      <g transform="translate(321.927422 113.111379)scale(0.1 -0.1)">
       <use xlink:href="#DejaVuSans-38"/>
      </g>
     </g>
    </g>
    <g id="xtick_6">
     <g id="line2d_6">
      <g>
       <use style="stroke:#000000;stroke-width:0.8;" x="389.081294" xlink:href="#m04f2fffcdd" y="98.512941"/>
      </g>
     </g>
     <g id="text_6">
      <!-- 10 -->
      <defs>
       <path d="M 12.40625 8.296875 
L 28.515625 8.296875 
L 28.515625 63.921875 
L 10.984375 60.40625 
L 10.984375 69.390625 
L 28.421875 72.90625 
L 38.28125 72.90625 
L 38.28125 8.296875 
L 54.390625 8.296875 
L 54.390625 0 
L 12.40625 0 
z
" id="DejaVuSans-31"/>
      </defs>
      <g transform="translate(382.718794 113.111379)scale(0.1 -0.1)">
       <use xlink:href="#DejaVuSans-31"/>
       <use x="63.623047" xlink:href="#DejaVuSans-30"/>
      </g>
     </g>
    </g>
   </g>
   <g id="matplotlib.axis_2">
    <g id="ytick_1">
     <g id="line2d_7">
      <defs>
       <path d="M 0 0 
L -3.5 0 
" id="m05ab8db804" style="stroke:#000000;stroke-width:0.8;"/>
      </defs>
      <g>
       <use style="stroke:#000000;stroke-width:0.8;" x="54" xlink:href="#m05ab8db804" y="95.605989"/>
      </g>
     </g>
     <g id="text_7">
      <!-- 0 -->
      <g transform="translate(40.6375 99.405208)scale(0.1 -0.1)">
       <use xlink:href="#DejaVuSans-30"/>
      </g>
     </g>
    </g>
    <g id="ytick_2">
     <g id="line2d_8">
      <g>
       <use style="stroke:#000000;stroke-width:0.8;" x="54" xlink:href="#m05ab8db804" y="61.962105"/>
      </g>
     </g>
     <g id="text_8">
      <!-- 5 -->
      <defs>
       <path d="M 10.796875 72.90625 
L 49.515625 72.90625 
L 49.515625 64.59375 
L 19.828125 64.59375 
L 19.828125 46.734375 
Q 21.96875 47.46875 24.109375 47.828125 
Q 26.265625 48.1875 28.421875 48.1875 
Q 40.625 48.1875 47.75 41.5 
Q 54.890625 34.8125 54.890625 23.390625 
Q 54.890625 11.625 47.5625 5.09375 
Q 40.234375 -1.421875 26.90625 -1.421875 
Q 22.3125 -1.421875 17.546875 -0.640625 
Q 12.796875 0.140625 7.71875 1.703125 
L 7.71875 11.625 
Q 12.109375 9.234375 16.796875 8.0625 
Q 21.484375 6.890625 26.703125 6.890625 
Q 35.15625 6.890625 40.078125 11.328125 
Q 45.015625 15.765625 45.015625 23.390625 
Q 45.015625 31 40.078125 35.4375 
Q 35.15625 39.890625 26.703125 39.890625 
Q 22.75 39.890625 18.8125 39.015625 
Q 14.890625 38.140625 10.796875 36.28125 
z
" id="DejaVuSans-35"/>
      </defs>
      <g transform="translate(40.6375 65.761323)scale(0.1 -0.1)">
       <use xlink:href="#DejaVuSans-35"/>
      </g>
     </g>
    </g>
    <g id="text_9">
     <!-- $x \: [m]$ -->
     <defs>
      <path d="M 60.015625 54.6875 
L 34.90625 27.875 
L 50.296875 0 
L 39.984375 0 
L 28.421875 21.6875 
L 8.296875 0 
L -2.59375 0 
L 24.3125 28.8125 
L 10.015625 54.6875 
L 20.3125 54.6875 
L 30.8125 34.90625 
L 49.125 54.6875 
z
" id="DejaVuSans-Oblique-78"/>
      <path d="M 8.59375 75.984375 
L 29.296875 75.984375 
L 29.296875 69 
L 17.578125 69 
L 17.578125 -6.203125 
L 29.296875 -6.203125 
L 29.296875 -13.1875 
L 8.59375 -13.1875 
z
" id="DejaVuSans-5b"/>
      <path d="M 89.796875 33.015625 
L 83.40625 0 
L 74.421875 0 
L 80.71875 32.71875 
Q 81.109375 34.8125 81.296875 36.328125 
Q 81.5 37.84375 81.5 38.921875 
Q 81.5 43.3125 79.046875 45.75 
Q 76.609375 48.1875 72.21875 48.1875 
Q 65.671875 48.1875 60.546875 43.28125 
Q 55.421875 38.375 53.90625 30.515625 
L 47.90625 0 
L 38.921875 0 
L 45.3125 32.71875 
Q 45.703125 34.515625 45.890625 36.046875 
Q 46.09375 37.59375 46.09375 38.8125 
Q 46.09375 43.265625 43.65625 45.71875 
Q 41.21875 48.1875 36.921875 48.1875 
Q 30.28125 48.1875 25.140625 43.28125 
Q 20.015625 38.375 18.5 30.515625 
L 12.5 0 
L 3.515625 0 
L 14.203125 54.6875 
L 23.1875 54.6875 
L 21.484375 46.1875 
Q 25.140625 50.984375 30.046875 53.484375 
Q 34.96875 56 40.578125 56 
Q 46.53125 56 50.359375 52.875 
Q 54.203125 49.75 54.984375 44.1875 
Q 59.078125 49.953125 64.46875 52.96875 
Q 69.875 56 75.875 56 
Q 82.90625 56 86.734375 51.953125 
Q 90.578125 47.90625 90.578125 40.484375 
Q 90.578125 38.875 90.375 36.9375 
Q 90.1875 35.015625 89.796875 33.015625 
z
" id="DejaVuSans-Oblique-6d"/>
      <path d="M 30.421875 75.984375 
L 30.421875 -13.1875 
L 9.71875 -13.1875 
L 9.71875 -6.203125 
L 21.390625 -6.203125 
L 21.390625 69 
L 9.71875 69 
L 9.71875 75.984375 
z
" id="DejaVuSans-5d"/>
     </defs>
     <g transform="translate(34.557813 79.386471)rotate(-90)scale(0.1 -0.1)">
      <use transform="translate(0 0.015625)" xlink:href="#DejaVuSans-Oblique-78"/>
      <use transform="translate(80.826606 0.015625)" xlink:href="#DejaVuSans-5b"/>
      <use transform="translate(119.840278 0.015625)" xlink:href="#DejaVuSans-Oblique-6d"/>
      <use transform="translate(217.252388 0.015625)" xlink:href="#DejaVuSans-5d"/>
     </g>
    </g>
   </g>
   <g id="line2d_9">
    <path clip-path="url(#p2f8b1b6149)" d="M 69.218182 95.605989 
L 148.335899 79.075149 
L 187.35926 71.140764 
L 226.246853 63.467881 
L 259.334433 57.174648 
L 288.935019 51.735927 
L 315.672317 46.995496 
L 340.28478 42.828162 
L 371.289838 37.822404 
L 373.581818 37.466952 
L 373.581818 37.466952 
" style="fill:none;stroke:#000000;stroke-linecap:square;stroke-width:1.5;"/>
   </g>
   <g id="patch_3">
    <path d="M 54 98.512941 
L 54 34.56 
" style="fill:none;stroke:#000000;stroke-linecap:square;stroke-linejoin:miter;stroke-width:0.8;"/>
   </g>
   <g id="patch_4">
    <path d="M 388.8 98.512941 
L 388.8 34.56 
" style="fill:none;stroke:#000000;stroke-linecap:square;stroke-linejoin:miter;stroke-width:0.8;"/>
   </g>
   <g id="patch_5">
    <path d="M 54 98.512941 
L 388.8 98.512941 
" style="fill:none;stroke:#000000;stroke-linecap:square;stroke-linejoin:miter;stroke-width:0.8;"/>
   </g>
   <g id="patch_6">
    <path d="M 54 34.56 
L 388.8 34.56 
" style="fill:none;stroke:#000000;stroke-linecap:square;stroke-linejoin:miter;stroke-width:0.8;"/>
   </g>
  </g>
  <g id="axes_2">
   <g id="patch_7">
    <path d="M 54 175.256471 
L 388.8 175.256471 
L 388.8 111.303529 
L 54 111.303529 
z
" style="fill:#ffffff;"/>
   </g>
   <g id="matplotlib.axis_3">
    <g id="xtick_7">
     <g id="line2d_10">
      <g>
       <use style="stroke:#000000;stroke-width:0.8;" x="69.218182" xlink:href="#m04f2fffcdd" y="175.256471"/>
      </g>
     </g>
     <g id="text_10">
      <!-- 0 -->
      <g transform="translate(66.036932 189.854908)scale(0.1 -0.1)">
       <use xlink:href="#DejaVuSans-30"/>
      </g>
     </g>
    </g>
    <g id="xtick_8">
     <g id="line2d_11">
      <g>
       <use style="stroke:#000000;stroke-width:0.8;" x="133.190804" xlink:href="#m04f2fffcdd" y="175.256471"/>
      </g>
     </g>
     <g id="text_11">
      <!-- 2 -->
      <g transform="translate(130.009554 189.854908)scale(0.1 -0.1)">
       <use xlink:href="#DejaVuSans-32"/>
      </g>
     </g>
    </g>
    <g id="xtick_9">
     <g id="line2d_12">
      <g>
       <use style="stroke:#000000;stroke-width:0.8;" x="197.163427" xlink:href="#m04f2fffcdd" y="175.256471"/>
      </g>
     </g>
     <g id="text_12">
      <!-- 4 -->
      <g transform="translate(193.982177 189.854908)scale(0.1 -0.1)">
       <use xlink:href="#DejaVuSans-34"/>
      </g>
     </g>
    </g>
    <g id="xtick_10">
     <g id="line2d_13">
      <g>
       <use style="stroke:#000000;stroke-width:0.8;" x="261.136049" xlink:href="#m04f2fffcdd" y="175.256471"/>
      </g>
     </g>
     <g id="text_13">
      <!-- 6 -->
      <g transform="translate(257.954799 189.854908)scale(0.1 -0.1)">
       <use xlink:href="#DejaVuSans-36"/>
      </g>
     </g>
    </g>
    <g id="xtick_11">
     <g id="line2d_14">
      <g>
       <use style="stroke:#000000;stroke-width:0.8;" x="325.108672" xlink:href="#m04f2fffcdd" y="175.256471"/>
      </g>
     </g>
     <g id="text_14">
      <!-- 8 -->
      <g transform="translate(321.927422 189.854908)scale(0.1 -0.1)">
       <use xlink:href="#DejaVuSans-38"/>
      </g>
     </g>
    </g>
    <g id="xtick_12">
     <g id="line2d_15">
      <g>
       <use style="stroke:#000000;stroke-width:0.8;" x="389.081294" xlink:href="#m04f2fffcdd" y="175.256471"/>
      </g>
     </g>
     <g id="text_15">
      <!-- 10 -->
      <g transform="translate(382.718794 189.854908)scale(0.1 -0.1)">
       <use xlink:href="#DejaVuSans-31"/>
       <use x="63.623047" xlink:href="#DejaVuSans-30"/>
      </g>
     </g>
    </g>
   </g>
   <g id="matplotlib.axis_4">
    <g id="ytick_3">
     <g id="line2d_16">
      <g>
       <use style="stroke:#000000;stroke-width:0.8;" x="54" xlink:href="#m05ab8db804" y="159.870863"/>
      </g>
     </g>
     <g id="text_16">
      <!-- 21 -->
      <g transform="translate(34.275 163.670082)scale(0.1 -0.1)">
       <use xlink:href="#DejaVuSans-32"/>
       <use x="63.623047" xlink:href="#DejaVuSans-31"/>
      </g>
     </g>
    </g>
    <g id="ytick_4">
     <g id="line2d_17">
      <g>
       <use style="stroke:#000000;stroke-width:0.8;" x="54" xlink:href="#m05ab8db804" y="143.008978"/>
      </g>
     </g>
     <g id="text_17">
      <!-- 22 -->
      <g transform="translate(34.275 146.808197)scale(0.1 -0.1)">
       <use xlink:href="#DejaVuSans-32"/>
       <use x="63.623047" xlink:href="#DejaVuSans-32"/>
      </g>
     </g>
    </g>
    <g id="ytick_5">
     <g id="line2d_18">
      <g>
       <use style="stroke:#000000;stroke-width:0.8;" x="54" xlink:href="#m05ab8db804" y="126.147093"/>
      </g>
     </g>
     <g id="text_18">
      <!-- 23 -->
      <defs>
       <path d="M 40.578125 39.3125 
Q 47.65625 37.796875 51.625 33 
Q 55.609375 28.21875 55.609375 21.1875 
Q 55.609375 10.40625 48.1875 4.484375 
Q 40.765625 -1.421875 27.09375 -1.421875 
Q 22.515625 -1.421875 17.65625 -0.515625 
Q 12.796875 0.390625 7.625 2.203125 
L 7.625 11.71875 
Q 11.71875 9.328125 16.59375 8.109375 
Q 21.484375 6.890625 26.8125 6.890625 
Q 36.078125 6.890625 40.9375 10.546875 
Q 45.796875 14.203125 45.796875 21.1875 
Q 45.796875 27.640625 41.28125 31.265625 
Q 36.765625 34.90625 28.71875 34.90625 
L 20.21875 34.90625 
L 20.21875 43.015625 
L 29.109375 43.015625 
Q 36.375 43.015625 40.234375 45.921875 
Q 44.09375 48.828125 44.09375 54.296875 
Q 44.09375 59.90625 40.109375 62.90625 
Q 36.140625 65.921875 28.71875 65.921875 
Q 24.65625 65.921875 20.015625 65.03125 
Q 15.375 64.15625 9.8125 62.3125 
L 9.8125 71.09375 
Q 15.4375 72.65625 20.34375 73.4375 
Q 25.25 74.21875 29.59375 74.21875 
Q 40.828125 74.21875 47.359375 69.109375 
Q 53.90625 64.015625 53.90625 55.328125 
Q 53.90625 49.265625 50.4375 45.09375 
Q 46.96875 40.921875 40.578125 39.3125 
z
" id="DejaVuSans-33"/>
      </defs>
      <g transform="translate(34.275 129.946312)scale(0.1 -0.1)">
       <use xlink:href="#DejaVuSans-32"/>
       <use x="63.623047" xlink:href="#DejaVuSans-33"/>
      </g>
     </g>
    </g>
    <g id="text_19">
     <!-- $y \: [m]$ -->
     <defs>
      <path d="M 24.8125 -5.078125 
Q 18.5625 -15.578125 14.625 -18.1875 
Q 10.6875 -20.796875 4.59375 -20.796875 
L -2.484375 -20.796875 
L -0.984375 -13.28125 
L 4.203125 -13.28125 
Q 7.953125 -13.28125 10.59375 -11.234375 
Q 13.234375 -9.1875 16.5 -3.21875 
L 19.28125 2 
L 7.171875 54.6875 
L 16.703125 54.6875 
L 25.78125 12.796875 
L 50.875 54.6875 
L 60.296875 54.6875 
z
" id="DejaVuSans-Oblique-79"/>
     </defs>
     <g transform="translate(28.175 156.13)rotate(-90)scale(0.1 -0.1)">
      <use transform="translate(0 0.015625)" xlink:href="#DejaVuSans-Oblique-79"/>
      <use transform="translate(80.826606 0.015625)" xlink:href="#DejaVuSans-5b"/>
      <use transform="translate(119.840278 0.015625)" xlink:href="#DejaVuSans-Oblique-6d"/>
      <use transform="translate(217.252388 0.015625)" xlink:href="#DejaVuSans-5d"/>
     </g>
    </g>
   </g>
   <g id="line2d_19">
    <path clip-path="url(#p0bfdbadec0)" d="M 69.218182 172.349519 
L 81.30903 172.238593 
L 94.196522 171.896107 
L 108.123733 171.302189 
L 120.587564 170.538289 
L 134.425702 169.456316 
L 146.522298 168.313109 
L 159.616772 166.863586 
L 170.414572 165.445429 
L 186.252872 163.072653 
L 202.983286 160.275529 
L 216.084496 157.856894 
L 230.673968 154.883587 
L 246.876849 151.339708 
L 258.595386 148.547278 
L 272.210884 145.173866 
L 293.561868 139.523477 
L 307.261783 135.659313 
L 319.545487 132.034811 
L 331.559664 128.293534 
L 348.999006 122.636274 
L 362.293171 118.152027 
L 373.581818 114.210481 
L 373.581818 114.210481 
" style="fill:none;stroke:#000000;stroke-linecap:square;stroke-width:1.5;"/>
   </g>
   <g id="patch_8">
    <path d="M 54 175.256471 
L 54 111.303529 
" style="fill:none;stroke:#000000;stroke-linecap:square;stroke-linejoin:miter;stroke-width:0.8;"/>
   </g>
   <g id="patch_9">
    <path d="M 388.8 175.256471 
L 388.8 111.303529 
" style="fill:none;stroke:#000000;stroke-linecap:square;stroke-linejoin:miter;stroke-width:0.8;"/>
   </g>
   <g id="patch_10">
    <path d="M 54 175.256471 
L 388.8 175.256471 
" style="fill:none;stroke:#000000;stroke-linecap:square;stroke-linejoin:miter;stroke-width:0.8;"/>
   </g>
   <g id="patch_11">
    <path d="M 54 111.303529 
L 388.8 111.303529 
" style="fill:none;stroke:#000000;stroke-linecap:square;stroke-linejoin:miter;stroke-width:0.8;"/>
   </g>
  </g>
  <g id="axes_3">
   <g id="patch_12">
    <path d="M 54 252 
L 388.8 252 
L 388.8 188.047059 
L 54 188.047059 
z
" style="fill:#ffffff;"/>
   </g>
   <g id="matplotlib.axis_5">
    <g id="xtick_13">
     <g id="line2d_20">
      <g>
       <use style="stroke:#000000;stroke-width:0.8;" x="69.218182" xlink:href="#m04f2fffcdd" y="252"/>
      </g>
     </g>
     <g id="text_20">
      <!-- 0 -->
      <g transform="translate(66.036932 266.598437)scale(0.1 -0.1)">
       <use xlink:href="#DejaVuSans-30"/>
      </g>
     </g>
    </g>
    <g id="xtick_14">
     <g id="line2d_21">
      <g>
       <use style="stroke:#000000;stroke-width:0.8;" x="133.190804" xlink:href="#m04f2fffcdd" y="252"/>
      </g>
     </g>
     <g id="text_21">
      <!-- 2 -->
      <g transform="translate(130.009554 266.598437)scale(0.1 -0.1)">
       <use xlink:href="#DejaVuSans-32"/>
      </g>
     </g>
    </g>
    <g id="xtick_15">
     <g id="line2d_22">
      <g>
       <use style="stroke:#000000;stroke-width:0.8;" x="197.163427" xlink:href="#m04f2fffcdd" y="252"/>
      </g>
     </g>
     <g id="text_22">
      <!-- 4 -->
      <g transform="translate(193.982177 266.598437)scale(0.1 -0.1)">
       <use xlink:href="#DejaVuSans-34"/>
      </g>
     </g>
    </g>
    <g id="xtick_16">
     <g id="line2d_23">
      <g>
       <use style="stroke:#000000;stroke-width:0.8;" x="261.136049" xlink:href="#m04f2fffcdd" y="252"/>
      </g>
     </g>
     <g id="text_23">
      <!-- 6 -->
      <g transform="translate(257.954799 266.598437)scale(0.1 -0.1)">
       <use xlink:href="#DejaVuSans-36"/>
      </g>
     </g>
    </g>
    <g id="xtick_17">
     <g id="line2d_24">
      <g>
       <use style="stroke:#000000;stroke-width:0.8;" x="325.108672" xlink:href="#m04f2fffcdd" y="252"/>
      </g>
     </g>
     <g id="text_24">
      <!-- 8 -->
      <g transform="translate(321.927422 266.598437)scale(0.1 -0.1)">
       <use xlink:href="#DejaVuSans-38"/>
      </g>
     </g>
    </g>
    <g id="xtick_18">
     <g id="line2d_25">
      <g>
       <use style="stroke:#000000;stroke-width:0.8;" x="389.081294" xlink:href="#m04f2fffcdd" y="252"/>
      </g>
     </g>
     <g id="text_25">
      <!-- 10 -->
      <g transform="translate(382.718794 266.598437)scale(0.1 -0.1)">
       <use xlink:href="#DejaVuSans-31"/>
       <use x="63.623047" xlink:href="#DejaVuSans-30"/>
      </g>
     </g>
    </g>
    <g id="text_26">
     <!-- $t \: [s]$ -->
     <defs>
      <path d="M 42.28125 54.6875 
L 40.921875 47.703125 
L 23 47.703125 
L 17.1875 18.015625 
Q 16.890625 16.359375 16.75 15.234375 
Q 16.609375 14.109375 16.609375 13.484375 
Q 16.609375 10.359375 18.484375 8.9375 
Q 20.359375 7.515625 24.515625 7.515625 
L 33.59375 7.515625 
L 32.078125 0 
L 23.484375 0 
Q 15.484375 0 11.546875 3.125 
Q 7.625 6.25 7.625 12.59375 
Q 7.625 13.71875 7.765625 15.0625 
Q 7.90625 16.40625 8.203125 18.015625 
L 14.015625 47.703125 
L 6.390625 47.703125 
L 7.8125 54.6875 
L 15.28125 54.6875 
L 18.3125 70.21875 
L 27.296875 70.21875 
L 24.3125 54.6875 
z
" id="DejaVuSans-Oblique-74"/>
      <path d="M 50 53.078125 
L 48.296875 44.578125 
Q 44.734375 46.53125 40.765625 47.5 
Q 36.8125 48.484375 32.625 48.484375 
Q 25.53125 48.484375 21.453125 46.0625 
Q 17.390625 43.65625 17.390625 39.5 
Q 17.390625 34.671875 26.859375 32.078125 
Q 27.59375 31.890625 27.9375 31.78125 
L 30.8125 30.90625 
Q 39.796875 28.421875 42.796875 25.6875 
Q 45.796875 22.953125 45.796875 18.21875 
Q 45.796875 9.515625 38.890625 4.046875 
Q 31.984375 -1.421875 20.796875 -1.421875 
Q 16.453125 -1.421875 11.671875 -0.578125 
Q 6.890625 0.25 1.125 2 
L 2.875 11.28125 
Q 7.8125 8.734375 12.59375 7.421875 
Q 17.390625 6.109375 21.78125 6.109375 
Q 28.375 6.109375 32.5 8.9375 
Q 36.625 11.765625 36.625 16.109375 
Q 36.625 20.796875 25.78125 23.6875 
L 24.859375 23.921875 
L 21.78125 24.703125 
Q 14.9375 26.515625 11.765625 29.46875 
Q 8.59375 32.421875 8.59375 37.015625 
Q 8.59375 45.75 15.15625 50.875 
Q 21.734375 56 33.015625 56 
Q 37.453125 56 41.671875 55.265625 
Q 45.90625 54.546875 50 53.078125 
z
" id="DejaVuSans-Oblique-73"/>
     </defs>
     <g transform="translate(211.85 280.276563)scale(0.1 -0.1)">
      <use transform="translate(0 0.015625)" xlink:href="#DejaVuSans-Oblique-74"/>
      <use transform="translate(60.855903 0.015625)" xlink:href="#DejaVuSans-5b"/>
      <use transform="translate(99.869575 0.015625)" xlink:href="#DejaVuSans-Oblique-73"/>
      <use transform="translate(151.969185 0.015625)" xlink:href="#DejaVuSans-5d"/>
     </g>
    </g>
   </g>
   <g id="matplotlib.axis_6">
    <g id="ytick_6">
     <g id="line2d_26">
      <g>
       <use style="stroke:#000000;stroke-width:0.8;" x="54" xlink:href="#m05ab8db804" y="249.092104"/>
      </g>
     </g>
     <g id="text_27">
      <!-- 0.0 -->
      <defs>
       <path d="M 10.6875 12.40625 
L 21 12.40625 
L 21 0 
L 10.6875 0 
z
" id="DejaVuSans-2e"/>
      </defs>
      <g transform="translate(31.096875 252.891323)scale(0.1 -0.1)">
       <use xlink:href="#DejaVuSans-30"/>
       <use x="63.623047" xlink:href="#DejaVuSans-2e"/>
       <use x="95.410156" xlink:href="#DejaVuSans-30"/>
      </g>
     </g>
    </g>
    <g id="ytick_7">
     <g id="line2d_27">
      <g>
       <use style="stroke:#000000;stroke-width:0.8;" x="54" xlink:href="#m05ab8db804" y="209.982921"/>
      </g>
     </g>
     <g id="text_28">
      <!-- 0.5 -->
      <g transform="translate(31.096875 213.78214)scale(0.1 -0.1)">
       <use xlink:href="#DejaVuSans-30"/>
       <use x="63.623047" xlink:href="#DejaVuSans-2e"/>
       <use x="95.410156" xlink:href="#DejaVuSans-35"/>
      </g>
     </g>
    </g>
    <g id="text_29">
     <!-- $\theta \: [rad]$ -->
     <defs>
      <path d="M 45.515625 34.671875 
L 14.453125 34.671875 
Q 12.359375 20.0625 14.5 13.875 
Q 17.1875 6.25 24.46875 6.25 
Q 31.78125 6.25 37.359375 13.921875 
Q 42.234375 20.65625 45.515625 34.671875 
z
M 47.015625 42.96875 
Q 48.34375 56.84375 46.625 61.71875 
Q 43.953125 69.4375 36.765625 69.4375 
Q 29.296875 69.4375 23.828125 61.8125 
Q 19.53125 55.671875 16.15625 42.96875 
z
M 38.1875 76.765625 
Q 49.90625 76.765625 54.59375 66.40625 
Q 59.28125 56.109375 55.71875 37.84375 
Q 52.203125 19.625 43.453125 9.28125 
Q 34.765625 -1.125 23.046875 -1.125 
Q 11.28125 -1.125 6.640625 9.28125 
Q 2 19.625 5.515625 37.84375 
Q 9.078125 56.109375 17.71875 66.40625 
Q 26.421875 76.765625 38.1875 76.765625 
z
" id="DejaVuSans-Oblique-3b8"/>
      <path d="M 44.578125 46.390625 
Q 43.21875 47.125 41.453125 47.515625 
Q 39.703125 47.90625 37.703125 47.90625 
Q 30.515625 47.90625 25.140625 42.453125 
Q 19.78125 37.015625 18.015625 27.875 
L 12.5 0 
L 3.515625 0 
L 14.203125 54.6875 
L 23.1875 54.6875 
L 21.484375 46.1875 
Q 25.046875 50.921875 30 53.453125 
Q 34.96875 56 40.578125 56 
Q 42.046875 56 43.453125 55.828125 
Q 44.875 55.671875 46.296875 55.28125 
z
" id="DejaVuSans-Oblique-72"/>
      <path d="M 53.71875 31.203125 
L 47.609375 0 
L 38.625 0 
L 40.28125 8.296875 
Q 36.328125 3.421875 31.265625 1 
Q 26.21875 -1.421875 20.015625 -1.421875 
Q 13.03125 -1.421875 8.5625 2.84375 
Q 4.109375 7.125 4.109375 13.8125 
Q 4.109375 23.390625 11.75 28.953125 
Q 19.390625 34.515625 32.8125 34.515625 
L 45.3125 34.515625 
L 45.796875 36.921875 
Q 45.90625 37.3125 45.953125 37.765625 
Q 46 38.234375 46 39.203125 
Q 46 43.5625 42.453125 45.96875 
Q 38.921875 48.390625 32.515625 48.390625 
Q 28.125 48.390625 23.5 47.265625 
Q 18.890625 46.140625 14.015625 43.890625 
L 15.578125 52.203125 
Q 20.65625 54.109375 25.515625 55.046875 
Q 30.375 56 34.90625 56 
Q 44.578125 56 49.625 51.796875 
Q 54.6875 47.609375 54.6875 39.59375 
Q 54.6875 37.984375 54.4375 35.8125 
Q 54.203125 33.640625 53.71875 31.203125 
z
M 44 27.484375 
L 35.015625 27.484375 
Q 23.96875 27.484375 18.671875 24.53125 
Q 13.375 21.578125 13.375 15.375 
Q 13.375 11.078125 16.078125 8.640625 
Q 18.796875 6.203125 23.578125 6.203125 
Q 30.90625 6.203125 36.375 11.453125 
Q 41.84375 16.703125 43.609375 25.484375 
z
" id="DejaVuSans-Oblique-61"/>
      <path d="M 41.796875 8.203125 
Q 38.1875 3.46875 33.25 1.015625 
Q 28.328125 -1.421875 22.3125 -1.421875 
Q 14.109375 -1.421875 9.34375 4.171875 
Q 4.59375 9.765625 4.59375 19.484375 
Q 4.59375 27.59375 7.46875 34.9375 
Q 10.359375 42.28125 15.828125 48.09375 
Q 19.4375 51.953125 23.96875 53.96875 
Q 28.515625 56 33.5 56 
Q 38.765625 56 42.796875 53.453125 
Q 46.828125 50.921875 49.03125 46.1875 
L 54.890625 75.984375 
L 63.921875 75.984375 
L 49.125 0 
L 40.09375 0 
z
M 13.921875 21.09375 
Q 13.921875 14.015625 17.109375 10.0625 
Q 20.3125 6.109375 25.984375 6.109375 
Q 30.171875 6.109375 33.765625 8.125 
Q 37.359375 10.15625 40.09375 14.109375 
Q 42.96875 18.21875 44.625 23.578125 
Q 46.296875 28.953125 46.296875 34.1875 
Q 46.296875 40.96875 43.09375 44.765625 
Q 39.890625 48.578125 34.28125 48.578125 
Q 30.03125 48.578125 26.359375 46.578125 
Q 22.703125 44.578125 20.125 40.828125 
Q 17.28125 36.765625 15.59375 31.390625 
Q 13.921875 26.03125 13.921875 21.09375 
z
" id="DejaVuSans-Oblique-64"/>
     </defs>
     <g transform="translate(25.017187 236.373529)rotate(-90)scale(0.1 -0.1)">
      <use transform="translate(0 0.234375)" xlink:href="#DejaVuSans-Oblique-3b8"/>
      <use transform="translate(82.82856 0.234375)" xlink:href="#DejaVuSans-5b"/>
      <use transform="translate(121.842231 0.234375)" xlink:href="#DejaVuSans-Oblique-72"/>
      <use transform="translate(162.955513 0.234375)" xlink:href="#DejaVuSans-Oblique-61"/>
      <use transform="translate(224.23481 0.234375)" xlink:href="#DejaVuSans-Oblique-64"/>
      <use transform="translate(287.711372 0.234375)" xlink:href="#DejaVuSans-5d"/>
     </g>
    </g>
   </g>
   <g id="line2d_28">
    <path clip-path="url(#p2511144ae3)" d="M 69.218182 249.092104 
L 69.500642 249.038698 
L 69.851493 248.963549 
L 71.336707 248.688513 
L 75.49156 247.680941 
L 75.919077 247.562953 
L 76.23982 247.499793 
L 76.691704 247.341331 
L 77.030385 247.27494 
L 87.646516 245.126097 
L 88.446081 245.083689 
L 88.767713 245.051153 
L 89.535867 244.889059 
L 90.159055 244.745366 
L 90.430152 244.703128 
L 91.928771 244.431305 
L 92.162026 244.385419 
L 94.831051 243.954654 
L 96.021714 243.746299 
L 96.359218 243.680484 
L 98.268592 243.463379 
L 98.626446 243.456729 
L 100.338356 242.981149 
L 101.075487 242.711331 
L 102.05343 242.420677 
L 103.081436 242.287609 
L 104.240371 242.165109 
L 104.671009 242.115392 
L 104.973024 241.991984 
L 105.490679 241.919627 
L 105.720747 241.902565 
L 106.231768 241.789985 
L 107.07805 241.621505 
L 107.308797 241.596003 
L 109.017023 241.197938 
L 109.453862 241.109475 
L 109.926235 240.943335 
L 110.520933 240.775815 
L 111.51025 240.647598 
L 111.813658 240.635858 
L 112.210579 240.477793 
L 113.156249 240.286444 
L 113.960534 239.871878 
L 116.257718 239.618602 
L 117.014112 239.310649 
L 118.879121 239.057002 
L 119.203777 238.969317 
L 120.874959 238.515458 
L 121.702462 238.103706 
L 122.026623 238.053655 
L 122.484626 237.940558 
L 124.347655 237.780993 
L 125.727775 237.827463 
L 127.267078 237.563978 
L 127.68294 237.46329 
L 129.16394 237.043773 
L 129.34702 236.973404 
L 130.260719 237.192941 
L 131.11838 237.209265 
L 131.744303 236.963307 
L 132.280808 236.695476 
L 132.693753 236.719352 
L 133.485339 236.575516 
L 133.899454 236.444851 
L 139.263606 235.224869 
L 139.606587 235.122937 
L 140.429527 234.894277 
L 140.727742 234.919181 
L 141.38352 234.81239 
L 141.65676 234.718148 
L 142.097795 234.550979 
L 143.586081 234.325532 
L 143.872483 234.240275 
L 144.294844 234.288269 
L 144.972069 234.057314 
L 146.961363 233.719663 
L 147.492233 233.643841 
L 148.068134 233.711331 
L 149.770948 233.15722 
L 151.855171 232.993758 
L 153.192742 232.531255 
L 154.345535 232.241844 
L 154.674324 232.175309 
L 154.977621 232.197438 
L 155.493013 232.049006 
L 157.903907 231.564041 
L 158.474862 231.238006 
L 159.236135 231.106672 
L 159.616772 230.953223 
L 160.669772 230.865548 
L 161.022053 230.786939 
L 161.961052 230.379545 
L 162.933792 230.034841 
L 163.814025 229.52485 
L 167.030265 228.929352 
L 169.278929 227.941873 
L 169.698043 227.862212 
L 170.050376 227.744353 
L 173.701721 227.165369 
L 174.286952 227.123444 
L 174.58516 227.101466 
L 176.581629 226.743512 
L 177.75566 226.974912 
L 178.203896 226.881919 
L 179.509319 226.514275 
L 180.830046 226.454695 
L 181.680634 226.109253 
L 182.335905 226.144933 
L 182.663541 226.153038 
L 183.357697 225.854253 
L 184.051852 225.459175 
L 184.746008 225.284157 
L 185.539317 225.137228 
L 187.35926 224.66529 
L 188.865931 224.659581 
L 189.547935 224.446204 
L 189.908686 224.323437 
L 190.230379 224.1741 
L 190.882134 223.945139 
L 191.39979 223.955743 
L 193.074672 224.254486 
L 194.337409 223.919457 
L 194.758321 224.043754 
L 196.846973 223.745725 
L 197.200717 223.659209 
L 197.938092 223.682684 
L 199.649251 223.334652 
L 200.1136 223.161572 
L 201.476688 222.76785 
L 202.021924 222.661014 
L 202.983286 222.45859 
L 203.478301 222.258297 
L 204.220825 222.38573 
L 206.861828 221.55472 
L 207.593448 221.532203 
L 207.860245 221.608065 
L 209.505861 221.253788 
L 210.242618 221.055806 
L 211.039659 220.860473 
L 211.468321 220.68181 
L 212.325646 220.617126 
L 212.754308 220.68736 
L 213.18297 220.5975 
L 214.468957 219.790421 
L 214.897619 219.594461 
L 215.326281 219.608526 
L 215.754943 219.508795 
L 216.414049 219.232351 
L 219.067795 218.776386 
L 220.351078 218.490082 
L 220.839195 218.426988 
L 222.040088 217.952498 
L 225.176577 217.957714 
L 226.070481 217.775964 
L 226.854554 217.50731 
L 227.504922 217.444858 
L 229.481113 216.933416 
L 229.925486 216.969256 
L 230.923461 216.69651 
L 231.172955 216.687275 
L 231.671942 216.513957 
L 232.17093 216.557426 
L 233.036726 216.284388 
L 233.702362 216.352996 
L 233.916245 216.320083 
L 234.180921 216.298856 
L 236.127225 216.415535 
L 236.406094 216.502285 
L 236.889597 216.424074 
L 237.266067 216.214933 
L 239.992928 215.654816 
L 241.363025 214.885295 
L 242.312732 214.857952 
L 243.324112 214.949436 
L 244.207064 214.761163 
L 244.713927 214.749 
L 245.220791 214.563888 
L 246.302252 213.960467 
L 246.876849 213.913961 
L 247.451446 213.983757 
L 248.026044 213.836253 
L 249.175238 213.274218 
L 249.96428 212.914516 
L 250.753322 212.429205 
L 251.542365 212.100853 
L 252.958454 211.887395 
L 255.269678 211.565132 
L 257.117294 212.081551 
L 259.334433 212.277217 
L 260.073479 212.353603 
L 261.551572 211.781494 
L 262.290618 211.716529 
L 263.756679 211.220457 
L 264.483693 211.346136 
L 265.210707 211.33468 
L 266.276031 210.886176 
L 266.808693 210.719804 
L 268.916226 209.586839 
L 270.260417 209.241332 
L 271.653597 209.159891 
L 273.277778 208.703102 
L 274.471212 208.740585 
L 275.875507 208.734483 
L 277.225171 208.548849 
L 278.18778 208.400072 
L 278.669084 208.205743 
L 279.150388 208.193927 
L 279.872345 208.038885 
L 281.976793 208.089101 
L 282.396904 207.905267 
L 283.657239 207.859685 
L 285.337686 208.129667 
L 285.757798 208.283687 
L 286.177909 208.272693 
L 286.98562 207.950445 
L 287.550747 207.846019 
L 287.869737 207.868862 
L 288.437491 207.566006 
L 289.783926 207.562825 
L 292.619039 206.222618 
L 293.561868 206.367227 
L 294.033282 206.352008 
L 295.316804 205.889519 
L 296.244925 205.818278 
L 296.571585 205.922803 
L 297.224905 205.691412 
L 299.030545 205.01588 
L 299.856207 204.939125 
L 301.258539 204.461739 
L 301.725983 204.409773 
L 302.193427 204.107022 
L 302.660871 204.032966 
L 303.128315 204.184468 
L 304.530647 204.033764 
L 305.446243 204.294391 
L 306.828837 204.350052 
L 307.261783 204.262075 
L 307.539064 204.269475 
L 308.370904 203.91315 
L 308.783883 203.747441 
L 309.196861 203.76544 
L 311.601272 202.422643 
L 311.944759 202.412746 
L 312.771685 202.637122 
L 314.222001 202.309171 
L 314.70544 202.492038 
L 315.188879 202.49509 
L 317.122634 201.836271 
L 317.606072 201.665496 
L 318.089511 201.746785 
L 319.382454 201.338589 
L 319.871553 201.444488 
L 320.110408 201.416109 
L 320.588117 201.096585 
L 321.19918 200.885566 
L 322.860994 200.683569 
L 324.084191 199.811552 
L 326.567529 199.397713 
L 326.855127 199.427334 
L 327.623026 199.113211 
L 328.503957 198.702021 
L 329.49792 198.350024 
L 329.910269 198.196 
L 330.734966 198.281097 
L 331.559664 198.327592 
L 332.796711 198.470541 
L 334.979398 198.533047 
L 335.525997 198.223843 
L 336.991518 197.841812 
L 337.327173 197.872558 
L 337.998483 197.640903 
L 339.341103 197.438413 
L 340.756619 196.679635 
L 341.228457 196.529259 
L 342.285606 196.440586 
L 343.554185 196.500535 
L 343.977045 196.362871 
L 345.779286 196.468862 
L 347.67235 196.277062 
L 350.325662 196.301958 
L 353.094183 195.240557 
L 353.697334 195.254221 
L 354.60206 194.802124 
L 354.972492 194.804672 
L 355.233005 194.743043 
L 355.898353 194.564574 
L 356.221888 194.555603 
L 357.293406 194.162943 
L 357.617187 193.968389 
L 358.132098 193.802538 
L 360.410412 193.886857 
L 360.958031 193.702471 
L 361.50565 193.683554 
L 362.293171 193.783412 
L 364.204905 193.33731 
L 366.965471 193.182792 
L 370.133474 191.736901 
L 370.783827 191.580308 
L 371.289838 191.461216 
L 372.301859 190.978344 
L 373.581818 190.954011 
L 373.581818 190.954011 
" style="fill:none;stroke:#000000;stroke-linecap:square;stroke-width:1.5;"/>
   </g>
   <g id="patch_13">
    <path d="M 54 252 
L 54 188.047059 
" style="fill:none;stroke:#000000;stroke-linecap:square;stroke-linejoin:miter;stroke-width:0.8;"/>
   </g>
   <g id="patch_14">
    <path d="M 388.8 252 
L 388.8 188.047059 
" style="fill:none;stroke:#000000;stroke-linecap:square;stroke-linejoin:miter;stroke-width:0.8;"/>
   </g>
   <g id="patch_15">
    <path d="M 54 252 
L 388.8 252 
" style="fill:none;stroke:#000000;stroke-linecap:square;stroke-linejoin:miter;stroke-width:0.8;"/>
   </g>
   <g id="patch_16">
    <path d="M 54 188.047059 
L 388.8 188.047059 
" style="fill:none;stroke:#000000;stroke-linecap:square;stroke-linejoin:miter;stroke-width:0.8;"/>
   </g>
  </g>
 </g>
 <defs>
  <clipPath id="p2f8b1b6149">
   <rect height="63.952941" width="334.8" x="54" y="34.56"/>
  </clipPath>
  <clipPath id="p0bfdbadec0">
   <rect height="63.952941" width="334.8" x="54" y="111.303529"/>
  </clipPath>
  <clipPath id="p2511144ae3">
   <rect height="63.952941" width="334.8" x="54" y="188.047059"/>
  </clipPath>
 </defs>
</svg>
