<?xml version="1.0" encoding="utf-8" standalone="no"?>
<!DOCTYPE svg PUBLIC "-//W3C//DTD SVG 1.1//EN"
  "http://www.w3.org/Graphics/SVG/1.1/DTD/svg11.dtd">
<!-- Created with matplotlib (http://matplotlib.org/) -->
<svg height="265.69625pt" version="1.1" viewBox="0 0 397.682813 265.69625" width="397.682813pt" xmlns="http://www.w3.org/2000/svg" xmlns:xlink="http://www.w3.org/1999/xlink">
 <defs>
  <style type="text/css">
*{stroke-linecap:butt;stroke-linejoin:round;}
  </style>
 </defs>
 <g id="figure_1">
  <g id="patch_1">
   <path d="M 0 265.69625 
L 397.682813 265.69625 
L 397.682813 0 
L 0 0 
z
" style="fill:#ffffff;"/>
  </g>
  <g id="axes_1">
   <g id="patch_2">
    <path d="M 52.182813 57.969565 
L 386.982813 57.969565 
L 386.982813 10.7 
L 52.182813 10.7 
z
" style="fill:#ffffff;"/>
   </g>
   <g id="matplotlib.axis_1">
    <g id="xtick_1">
     <g id="line2d_1">
      <defs>
       <path d="M 0 0 
L 0 3.5 
" id="m81883946bd" style="stroke:#000000;stroke-width:0.8;"/>
      </defs>
      <g>
       <use style="stroke:#000000;stroke-width:0.8;" x="67.400994" xlink:href="#m81883946bd" y="57.969565"/>
      </g>
     </g>
    </g>
    <g id="xtick_2">
     <g id="line2d_2">
      <g>
       <use style="stroke:#000000;stroke-width:0.8;" x="115.409185" xlink:href="#m81883946bd" y="57.969565"/>
      </g>
     </g>
    </g>
    <g id="xtick_3">
     <g id="line2d_3">
      <g>
       <use style="stroke:#000000;stroke-width:0.8;" x="163.417375" xlink:href="#m81883946bd" y="57.969565"/>
      </g>
     </g>
    </g>
    <g id="xtick_4">
     <g id="line2d_4">
      <g>
       <use style="stroke:#000000;stroke-width:0.8;" x="211.425566" xlink:href="#m81883946bd" y="57.969565"/>
      </g>
     </g>
    </g>
    <g id="xtick_5">
     <g id="line2d_5">
      <g>
       <use style="stroke:#000000;stroke-width:0.8;" x="259.433757" xlink:href="#m81883946bd" y="57.969565"/>
      </g>
     </g>
    </g>
    <g id="xtick_6">
     <g id="line2d_6">
      <g>
       <use style="stroke:#000000;stroke-width:0.8;" x="307.441947" xlink:href="#m81883946bd" y="57.969565"/>
      </g>
     </g>
    </g>
    <g id="xtick_7">
     <g id="line2d_7">
      <g>
       <use style="stroke:#000000;stroke-width:0.8;" x="355.450138" xlink:href="#m81883946bd" y="57.969565"/>
      </g>
     </g>
    </g>
   </g>
   <g id="matplotlib.axis_2">
    <g id="ytick_1">
     <g id="line2d_8">
      <defs>
       <path d="M 0 0 
L -3.5 0 
" id="m32c5c1da26" style="stroke:#000000;stroke-width:0.8;"/>
      </defs>
      <g>
       <use style="stroke:#000000;stroke-width:0.8;" x="52.182813" xlink:href="#m32c5c1da26" y="55.957073"/>
      </g>
     </g>
     <g id="text_1">
      <!-- 0 -->
      <defs>
       <path d="M 31.78125 66.40625 
Q 24.171875 66.40625 20.328125 58.90625 
Q 16.5 51.421875 16.5 36.375 
Q 16.5 21.390625 20.328125 13.890625 
Q 24.171875 6.390625 31.78125 6.390625 
Q 39.453125 6.390625 43.28125 13.890625 
Q 47.125 21.390625 47.125 36.375 
Q 47.125 51.421875 43.28125 58.90625 
Q 39.453125 66.40625 31.78125 66.40625 
z
M 31.78125 74.21875 
Q 44.046875 74.21875 50.515625 64.515625 
Q 56.984375 54.828125 56.984375 36.375 
Q 56.984375 17.96875 50.515625 8.265625 
Q 44.046875 -1.421875 31.78125 -1.421875 
Q 19.53125 -1.421875 13.0625 8.265625 
Q 6.59375 17.96875 6.59375 36.375 
Q 6.59375 54.828125 13.0625 64.515625 
Q 19.53125 74.21875 31.78125 74.21875 
z
" id="DejaVuSans-30"/>
      </defs>
      <g transform="translate(38.820312 59.756291)scale(0.1 -0.1)">
       <use xlink:href="#DejaVuSans-30"/>
      </g>
     </g>
    </g>
    <g id="ytick_2">
     <g id="line2d_9">
      <g>
       <use style="stroke:#000000;stroke-width:0.8;" x="52.182813" xlink:href="#m32c5c1da26" y="28.732286"/>
      </g>
     </g>
     <g id="text_2">
      <!-- 20 -->
      <defs>
       <path d="M 19.1875 8.296875 
L 53.609375 8.296875 
L 53.609375 0 
L 7.328125 0 
L 7.328125 8.296875 
Q 12.9375 14.109375 22.625 23.890625 
Q 32.328125 33.6875 34.8125 36.53125 
Q 39.546875 41.84375 41.421875 45.53125 
Q 43.3125 49.21875 43.3125 52.78125 
Q 43.3125 58.59375 39.234375 62.25 
Q 35.15625 65.921875 28.609375 65.921875 
Q 23.96875 65.921875 18.8125 64.3125 
Q 13.671875 62.703125 7.8125 59.421875 
L 7.8125 69.390625 
Q 13.765625 71.78125 18.9375 73 
Q 24.125 74.21875 28.421875 74.21875 
Q 39.75 74.21875 46.484375 68.546875 
Q 53.21875 62.890625 53.21875 53.421875 
Q 53.21875 48.921875 51.53125 44.890625 
Q 49.859375 40.875 45.40625 35.40625 
Q 44.1875 33.984375 37.640625 27.21875 
Q 31.109375 20.453125 19.1875 8.296875 
z
" id="DejaVuSans-32"/>
      </defs>
      <g transform="translate(32.457813 32.531505)scale(0.1 -0.1)">
       <use xlink:href="#DejaVuSans-32"/>
       <use x="63.623047" xlink:href="#DejaVuSans-30"/>
      </g>
     </g>
    </g>
    <g id="text_3">
     <!-- $x \: [m]$ -->
     <defs>
      <path d="M 60.015625 54.6875 
L 34.90625 27.875 
L 50.296875 0 
L 39.984375 0 
L 28.421875 21.6875 
L 8.296875 0 
L -2.59375 0 
L 24.3125 28.8125 
L 10.015625 54.6875 
L 20.3125 54.6875 
L 30.8125 34.90625 
L 49.125 54.6875 
z
" id="DejaVuSans-Oblique-78"/>
      <path d="M 8.59375 75.984375 
L 29.296875 75.984375 
L 29.296875 69 
L 17.578125 69 
L 17.578125 -6.203125 
L 29.296875 -6.203125 
L 29.296875 -13.1875 
L 8.59375 -13.1875 
z
" id="DejaVuSans-5b"/>
      <path d="M 89.796875 33.015625 
L 83.40625 0 
L 74.421875 0 
L 80.71875 32.71875 
Q 81.109375 34.8125 81.296875 36.328125 
Q 81.5 37.84375 81.5 38.921875 
Q 81.5 43.3125 79.046875 45.75 
Q 76.609375 48.1875 72.21875 48.1875 
Q 65.671875 48.1875 60.546875 43.28125 
Q 55.421875 38.375 53.90625 30.515625 
L 47.90625 0 
L 38.921875 0 
L 45.3125 32.71875 
Q 45.703125 34.515625 45.890625 36.046875 
Q 46.09375 37.59375 46.09375 38.8125 
Q 46.09375 43.265625 43.65625 45.71875 
Q 41.21875 48.1875 36.921875 48.1875 
Q 30.28125 48.1875 25.140625 43.28125 
Q 20.015625 38.375 18.5 30.515625 
L 12.5 0 
L 3.515625 0 
L 14.203125 54.6875 
L 23.1875 54.6875 
L 21.484375 46.1875 
Q 25.140625 50.984375 30.046875 53.484375 
Q 34.96875 56 40.578125 56 
Q 46.53125 56 50.359375 52.875 
Q 54.203125 49.75 54.984375 44.1875 
Q 59.078125 49.953125 64.46875 52.96875 
Q 69.875 56 75.875 56 
Q 82.90625 56 86.734375 51.953125 
Q 90.578125 47.90625 90.578125 40.484375 
Q 90.578125 38.875 90.375 36.9375 
Q 90.1875 35.015625 89.796875 33.015625 
z
" id="DejaVuSans-Oblique-6d"/>
      <path d="M 30.421875 75.984375 
L 30.421875 -13.1875 
L 9.71875 -13.1875 
L 9.71875 -6.203125 
L 21.390625 -6.203125 
L 21.390625 69 
L 9.71875 69 
L 9.71875 75.984375 
z
" id="DejaVuSans-5d"/>
     </defs>
     <g transform="translate(26.378125 47.184783)rotate(-90)scale(0.1 -0.1)">
      <use transform="translate(0 0.015625)" xlink:href="#DejaVuSans-Oblique-78"/>
      <use transform="translate(80.826606 0.015625)" xlink:href="#DejaVuSans-5b"/>
      <use transform="translate(119.840278 0.015625)" xlink:href="#DejaVuSans-Oblique-6d"/>
      <use transform="translate(217.252388 0.015625)" xlink:href="#DejaVuSans-5d"/>
     </g>
    </g>
   </g>
   <g id="line2d_10">
    <path clip-path="url(#p92d96de871)" d="M 67.400994 55.820949 
L 206.616455 36.13514 
L 371.764631 12.848617 
L 371.764631 12.848617 
" style="fill:none;stroke:#000000;stroke-linecap:square;stroke-width:1.5;"/>
   </g>
   <g id="patch_3">
    <path d="M 52.182813 57.969565 
L 52.182813 10.7 
" style="fill:none;stroke:#000000;stroke-linecap:square;stroke-linejoin:miter;stroke-width:0.8;"/>
   </g>
   <g id="patch_4">
    <path d="M 386.982813 57.969565 
L 386.982813 10.7 
" style="fill:none;stroke:#000000;stroke-linecap:square;stroke-linejoin:miter;stroke-width:0.8;"/>
   </g>
   <g id="patch_5">
    <path d="M 52.182813 57.969565 
L 386.982813 57.969565 
" style="fill:none;stroke:#000000;stroke-linecap:square;stroke-linejoin:miter;stroke-width:0.8;"/>
   </g>
   <g id="patch_6">
    <path d="M 52.182813 10.7 
L 386.982813 10.7 
" style="fill:none;stroke:#000000;stroke-linecap:square;stroke-linejoin:miter;stroke-width:0.8;"/>
   </g>
  </g>
  <g id="axes_2">
   <g id="patch_7">
    <path d="M 52.182813 114.693043 
L 386.982813 114.693043 
L 386.982813 67.423478 
L 52.182813 67.423478 
z
" style="fill:#ffffff;"/>
   </g>
   <g id="matplotlib.axis_3">
    <g id="xtick_8">
     <g id="line2d_11">
      <g>
       <use style="stroke:#000000;stroke-width:0.8;" x="67.400994" xlink:href="#m81883946bd" y="114.693043"/>
      </g>
     </g>
    </g>
    <g id="xtick_9">
     <g id="line2d_12">
      <g>
       <use style="stroke:#000000;stroke-width:0.8;" x="115.409185" xlink:href="#m81883946bd" y="114.693043"/>
      </g>
     </g>
    </g>
    <g id="xtick_10">
     <g id="line2d_13">
      <g>
       <use style="stroke:#000000;stroke-width:0.8;" x="163.417375" xlink:href="#m81883946bd" y="114.693043"/>
      </g>
     </g>
    </g>
    <g id="xtick_11">
     <g id="line2d_14">
      <g>
       <use style="stroke:#000000;stroke-width:0.8;" x="211.425566" xlink:href="#m81883946bd" y="114.693043"/>
      </g>
     </g>
    </g>
    <g id="xtick_12">
     <g id="line2d_15">
      <g>
       <use style="stroke:#000000;stroke-width:0.8;" x="259.433757" xlink:href="#m81883946bd" y="114.693043"/>
      </g>
     </g>
    </g>
    <g id="xtick_13">
     <g id="line2d_16">
      <g>
       <use style="stroke:#000000;stroke-width:0.8;" x="307.441947" xlink:href="#m81883946bd" y="114.693043"/>
      </g>
     </g>
    </g>
    <g id="xtick_14">
     <g id="line2d_17">
      <g>
       <use style="stroke:#000000;stroke-width:0.8;" x="355.450138" xlink:href="#m81883946bd" y="114.693043"/>
      </g>
     </g>
    </g>
   </g>
   <g id="matplotlib.axis_4">
    <g id="ytick_3">
     <g id="line2d_18">
      <g>
       <use style="stroke:#000000;stroke-width:0.8;" x="52.182813" xlink:href="#m32c5c1da26" y="100.519428"/>
      </g>
     </g>
     <g id="text_4">
      <!-- 10 -->
      <defs>
       <path d="M 12.40625 8.296875 
L 28.515625 8.296875 
L 28.515625 63.921875 
L 10.984375 60.40625 
L 10.984375 69.390625 
L 28.421875 72.90625 
L 38.28125 72.90625 
L 38.28125 8.296875 
L 54.390625 8.296875 
L 54.390625 0 
L 12.40625 0 
z
" id="DejaVuSans-31"/>
      </defs>
      <g transform="translate(32.457813 104.318647)scale(0.1 -0.1)">
       <use xlink:href="#DejaVuSans-31"/>
       <use x="63.623047" xlink:href="#DejaVuSans-30"/>
      </g>
     </g>
    </g>
    <g id="ytick_4">
     <g id="line2d_19">
      <g>
       <use style="stroke:#000000;stroke-width:0.8;" x="52.182813" xlink:href="#m32c5c1da26" y="68.072532"/>
      </g>
     </g>
     <g id="text_5">
      <!-- 12 -->
      <g transform="translate(32.457813 71.871751)scale(0.1 -0.1)">
       <use xlink:href="#DejaVuSans-31"/>
       <use x="63.623047" xlink:href="#DejaVuSans-32"/>
      </g>
     </g>
    </g>
    <g id="text_6">
     <!-- $y \: [m]$ -->
     <defs>
      <path d="M 24.8125 -5.078125 
Q 18.5625 -15.578125 14.625 -18.1875 
Q 10.6875 -20.796875 4.59375 -20.796875 
L -2.484375 -20.796875 
L -0.984375 -13.28125 
L 4.203125 -13.28125 
Q 7.953125 -13.28125 10.59375 -11.234375 
Q 13.234375 -9.1875 16.5 -3.21875 
L 19.28125 2 
L 7.171875 54.6875 
L 16.703125 54.6875 
L 25.78125 12.796875 
L 50.875 54.6875 
L 60.296875 54.6875 
z
" id="DejaVuSans-Oblique-79"/>
     </defs>
     <g transform="translate(26.357813 103.908261)rotate(-90)scale(0.1 -0.1)">
      <use transform="translate(0 0.015625)" xlink:href="#DejaVuSans-Oblique-79"/>
      <use transform="translate(80.826606 0.015625)" xlink:href="#DejaVuSans-5b"/>
      <use transform="translate(119.840278 0.015625)" xlink:href="#DejaVuSans-Oblique-6d"/>
      <use transform="translate(217.252388 0.015625)" xlink:href="#DejaVuSans-5d"/>
     </g>
    </g>
   </g>
   <g id="line2d_20">
    <path clip-path="url(#p601a34c02e)" d="M 67.400994 69.62963 
L 69.321322 69.58328 
L 78.343859 69.639328 
L 85.635815 69.743944 
L 97.157781 70.176454 
L 103.878927 70.526637 
L 113.480565 70.96339 
L 119.241548 71.225338 
L 125.962695 71.715271 
L 133.644005 72.588559 
L 148.046463 73.921423 
L 154.767609 74.583029 
L 158.608264 75.131669 
L 175.891213 78.172495 
L 192.213998 81.163931 
L 197.974981 82.277947 
L 225.819731 86.962272 
L 236.381533 88.574022 
L 247.903499 90.846617 
L 253.664482 92.208564 
L 258.465301 93.351326 
L 265.186448 94.64233 
L 293.991362 99.937206 
L 302.632836 101.542687 
L 317.035293 103.963521 
L 329.517423 106.053318 
L 341.039389 107.74122 
L 364.08332 111.245604 
L 371.764631 112.544427 
L 371.764631 112.544427 
" style="fill:none;stroke:#000000;stroke-linecap:square;stroke-width:1.5;"/>
   </g>
   <g id="patch_8">
    <path d="M 52.182813 114.693043 
L 52.182813 67.423478 
" style="fill:none;stroke:#000000;stroke-linecap:square;stroke-linejoin:miter;stroke-width:0.8;"/>
   </g>
   <g id="patch_9">
    <path d="M 386.982813 114.693043 
L 386.982813 67.423478 
" style="fill:none;stroke:#000000;stroke-linecap:square;stroke-linejoin:miter;stroke-width:0.8;"/>
   </g>
   <g id="patch_10">
    <path d="M 52.182813 114.693043 
L 386.982813 114.693043 
" style="fill:none;stroke:#000000;stroke-linecap:square;stroke-linejoin:miter;stroke-width:0.8;"/>
   </g>
   <g id="patch_11">
    <path d="M 52.182813 67.423478 
L 386.982813 67.423478 
" style="fill:none;stroke:#000000;stroke-linecap:square;stroke-linejoin:miter;stroke-width:0.8;"/>
   </g>
  </g>
  <g id="axes_3">
   <g id="patch_12">
    <path d="M 52.182813 171.416522 
L 386.982813 171.416522 
L 386.982813 124.146957 
L 52.182813 124.146957 
z
" style="fill:#ffffff;"/>
   </g>
   <g id="matplotlib.axis_5">
    <g id="xtick_15">
     <g id="line2d_21">
      <g>
       <use style="stroke:#000000;stroke-width:0.8;" x="67.400994" xlink:href="#m81883946bd" y="171.416522"/>
      </g>
     </g>
    </g>
    <g id="xtick_16">
     <g id="line2d_22">
      <g>
       <use style="stroke:#000000;stroke-width:0.8;" x="115.409185" xlink:href="#m81883946bd" y="171.416522"/>
      </g>
     </g>
    </g>
    <g id="xtick_17">
     <g id="line2d_23">
      <g>
       <use style="stroke:#000000;stroke-width:0.8;" x="163.417375" xlink:href="#m81883946bd" y="171.416522"/>
      </g>
     </g>
    </g>
    <g id="xtick_18">
     <g id="line2d_24">
      <g>
       <use style="stroke:#000000;stroke-width:0.8;" x="211.425566" xlink:href="#m81883946bd" y="171.416522"/>
      </g>
     </g>
    </g>
    <g id="xtick_19">
     <g id="line2d_25">
      <g>
       <use style="stroke:#000000;stroke-width:0.8;" x="259.433757" xlink:href="#m81883946bd" y="171.416522"/>
      </g>
     </g>
    </g>
    <g id="xtick_20">
     <g id="line2d_26">
      <g>
       <use style="stroke:#000000;stroke-width:0.8;" x="307.441947" xlink:href="#m81883946bd" y="171.416522"/>
      </g>
     </g>
    </g>
    <g id="xtick_21">
     <g id="line2d_27">
      <g>
       <use style="stroke:#000000;stroke-width:0.8;" x="355.450138" xlink:href="#m81883946bd" y="171.416522"/>
      </g>
     </g>
    </g>
   </g>
   <g id="matplotlib.axis_6">
    <g id="ytick_5">
     <g id="line2d_28">
      <g>
       <use style="stroke:#000000;stroke-width:0.8;" x="52.182813" xlink:href="#m32c5c1da26" y="154.584005"/>
      </g>
     </g>
     <g id="text_7">
      <!-- −0.1 -->
      <defs>
       <path d="M 10.59375 35.5 
L 73.1875 35.5 
L 73.1875 27.203125 
L 10.59375 27.203125 
z
" id="DejaVuSans-2212"/>
       <path d="M 10.6875 12.40625 
L 21 12.40625 
L 21 0 
L 10.6875 0 
z
" id="DejaVuSans-2e"/>
      </defs>
      <g transform="translate(20.9 158.383224)scale(0.1 -0.1)">
       <use xlink:href="#DejaVuSans-2212"/>
       <use x="83.789062" xlink:href="#DejaVuSans-30"/>
       <use x="147.412109" xlink:href="#DejaVuSans-2e"/>
       <use x="179.199219" xlink:href="#DejaVuSans-31"/>
      </g>
     </g>
    </g>
    <g id="ytick_6">
     <g id="line2d_29">
      <g>
       <use style="stroke:#000000;stroke-width:0.8;" x="52.182813" xlink:href="#m32c5c1da26" y="127.586798"/>
      </g>
     </g>
     <g id="text_8">
      <!-- 0.0 -->
      <g transform="translate(29.279688 131.386017)scale(0.1 -0.1)">
       <use xlink:href="#DejaVuSans-30"/>
       <use x="63.623047" xlink:href="#DejaVuSans-2e"/>
       <use x="95.410156" xlink:href="#DejaVuSans-30"/>
      </g>
     </g>
    </g>
    <g id="text_9">
     <!-- $\theta \: [rad]$ -->
     <defs>
      <path d="M 45.515625 34.671875 
L 14.453125 34.671875 
Q 12.359375 20.0625 14.5 13.875 
Q 17.1875 6.25 24.46875 6.25 
Q 31.78125 6.25 37.359375 13.921875 
Q 42.234375 20.65625 45.515625 34.671875 
z
M 47.015625 42.96875 
Q 48.34375 56.84375 46.625 61.71875 
Q 43.953125 69.4375 36.765625 69.4375 
Q 29.296875 69.4375 23.828125 61.8125 
Q 19.53125 55.671875 16.15625 42.96875 
z
M 38.1875 76.765625 
Q 49.90625 76.765625 54.59375 66.40625 
Q 59.28125 56.109375 55.71875 37.84375 
Q 52.203125 19.625 43.453125 9.28125 
Q 34.765625 -1.125 23.046875 -1.125 
Q 11.28125 -1.125 6.640625 9.28125 
Q 2 19.625 5.515625 37.84375 
Q 9.078125 56.109375 17.71875 66.40625 
Q 26.421875 76.765625 38.1875 76.765625 
z
" id="DejaVuSans-Oblique-3b8"/>
      <path d="M 44.578125 46.390625 
Q 43.21875 47.125 41.453125 47.515625 
Q 39.703125 47.90625 37.703125 47.90625 
Q 30.515625 47.90625 25.140625 42.453125 
Q 19.78125 37.015625 18.015625 27.875 
L 12.5 0 
L 3.515625 0 
L 14.203125 54.6875 
L 23.1875 54.6875 
L 21.484375 46.1875 
Q 25.046875 50.921875 30 53.453125 
Q 34.96875 56 40.578125 56 
Q 42.046875 56 43.453125 55.828125 
Q 44.875 55.671875 46.296875 55.28125 
z
" id="DejaVuSans-Oblique-72"/>
      <path d="M 53.71875 31.203125 
L 47.609375 0 
L 38.625 0 
L 40.28125 8.296875 
Q 36.328125 3.421875 31.265625 1 
Q 26.21875 -1.421875 20.015625 -1.421875 
Q 13.03125 -1.421875 8.5625 2.84375 
Q 4.109375 7.125 4.109375 13.8125 
Q 4.109375 23.390625 11.75 28.953125 
Q 19.390625 34.515625 32.8125 34.515625 
L 45.3125 34.515625 
L 45.796875 36.921875 
Q 45.90625 37.3125 45.953125 37.765625 
Q 46 38.234375 46 39.203125 
Q 46 43.5625 42.453125 45.96875 
Q 38.921875 48.390625 32.515625 48.390625 
Q 28.125 48.390625 23.5 47.265625 
Q 18.890625 46.140625 14.015625 43.890625 
L 15.578125 52.203125 
Q 20.65625 54.109375 25.515625 55.046875 
Q 30.375 56 34.90625 56 
Q 44.578125 56 49.625 51.796875 
Q 54.6875 47.609375 54.6875 39.59375 
Q 54.6875 37.984375 54.4375 35.8125 
Q 54.203125 33.640625 53.71875 31.203125 
z
M 44 27.484375 
L 35.015625 27.484375 
Q 23.96875 27.484375 18.671875 24.53125 
Q 13.375 21.578125 13.375 15.375 
Q 13.375 11.078125 16.078125 8.640625 
Q 18.796875 6.203125 23.578125 6.203125 
Q 30.90625 6.203125 36.375 11.453125 
Q 41.84375 16.703125 43.609375 25.484375 
z
" id="DejaVuSans-Oblique-61"/>
      <path d="M 41.796875 8.203125 
Q 38.1875 3.46875 33.25 1.015625 
Q 28.328125 -1.421875 22.3125 -1.421875 
Q 14.109375 -1.421875 9.34375 4.171875 
Q 4.59375 9.765625 4.59375 19.484375 
Q 4.59375 27.59375 7.46875 34.9375 
Q 10.359375 42.28125 15.828125 48.09375 
Q 19.4375 51.953125 23.96875 53.96875 
Q 28.515625 56 33.5 56 
Q 38.765625 56 42.796875 53.453125 
Q 46.828125 50.921875 49.03125 46.1875 
L 54.890625 75.984375 
L 63.921875 75.984375 
L 49.125 0 
L 40.09375 0 
z
M 13.921875 21.09375 
Q 13.921875 14.015625 17.109375 10.0625 
Q 20.3125 6.109375 25.984375 6.109375 
Q 30.171875 6.109375 33.765625 8.125 
Q 37.359375 10.15625 40.09375 14.109375 
Q 42.96875 18.21875 44.625 23.578125 
Q 46.296875 28.953125 46.296875 34.1875 
Q 46.296875 40.96875 43.09375 44.765625 
Q 39.890625 48.578125 34.28125 48.578125 
Q 30.03125 48.578125 26.359375 46.578125 
Q 22.703125 44.578125 20.125 40.828125 
Q 17.28125 36.765625 15.59375 31.390625 
Q 13.921875 26.03125 13.921875 21.09375 
z
" id="DejaVuSans-Oblique-64"/>
     </defs>
     <g transform="translate(14.820312 164.131739)rotate(-90)scale(0.1 -0.1)">
      <use transform="translate(0 0.234375)" xlink:href="#DejaVuSans-Oblique-3b8"/>
      <use transform="translate(82.82856 0.234375)" xlink:href="#DejaVuSans-5b"/>
      <use transform="translate(121.842231 0.234375)" xlink:href="#DejaVuSans-Oblique-72"/>
      <use transform="translate(162.955513 0.234375)" xlink:href="#DejaVuSans-Oblique-61"/>
      <use transform="translate(224.23481 0.234375)" xlink:href="#DejaVuSans-Oblique-64"/>
      <use transform="translate(287.711372 0.234375)" xlink:href="#DejaVuSans-5d"/>
     </g>
    </g>
   </g>
   <g id="line2d_30">
    <path clip-path="url(#p943ed63f48)" d="M 67.400994 127.586798 
L 68.361158 129.039553 
L 69.321322 129.771947 
L 70.281486 131.406301 
L 71.24165 131.857539 
L 72.201813 129.553114 
L 73.161977 128.076394 
L 73.796816 127.7454 
L 74.366913 127.9466 
L 74.746204 127.691073 
L 75.125495 127.223047 
L 75.543265 126.493127 
L 76.100643 126.801812 
L 76.658021 126.650057 
L 77.23584 126.295573 
L 77.901312 127.534063 
L 78.057453 127.581111 
L 78.167429 127.490948 
L 78.29211 127.464744 
L 78.467093 127.728145 
L 78.538579 127.696351 
L 78.739415 127.769955 
L 79.089945 128.005577 
L 79.327987 128.609468 
L 79.59301 128.259909 
L 79.858032 128.490134 
L 80.123055 127.977851 
L 80.973666 129.096032 
L 81.43974 129.853076 
L 82.07976 129.635055 
L 82.755323 129.054674 
L 83.715487 130.419239 
L 84.675651 132.380655 
L 85.635815 135.003913 
L 86.595979 134.786024 
L 87.556142 135.97451 
L 88.516306 134.450303 
L 89.47647 134.423676 
L 91.396798 132.080236 
L 92.356961 131.153798 
L 93.317125 130.845362 
L 94.277289 132.679282 
L 95.237453 133.73752 
L 96.197617 135.347968 
L 97.157781 133.057775 
L 99.078108 135.750943 
L 100.038272 136.99611 
L 100.998436 137.699377 
L 101.9586 136.795771 
L 102.918763 135.238833 
L 103.878927 136.236089 
L 104.839091 136.996194 
L 105.799255 139.039296 
L 106.759419 137.701809 
L 107.719582 137.052916 
L 108.679746 135.559734 
L 109.63991 133.393397 
L 110.600074 131.590956 
L 111.560238 130.458944 
L 112.520402 132.6733 
L 113.480565 131.709844 
L 114.440729 132.333992 
L 115.400893 134.677478 
L 116.361057 135.062244 
L 117.321221 135.142471 
L 118.281384 137.325512 
L 119.241548 137.560143 
L 120.201712 135.959102 
L 121.161876 134.923252 
L 123.082203 139.245013 
L 124.042367 141.506708 
L 126.922859 149.113456 
L 127.883023 148.096675 
L 128.843186 145.515933 
L 129.80335 145.912672 
L 130.763514 145.679689 
L 131.723678 143.62881 
L 132.683842 142.803479 
L 133.644005 144.19658 
L 134.604169 142.460586 
L 135.564333 142.796466 
L 136.524497 142.039429 
L 137.484661 140.870138 
L 138.444824 141.232351 
L 139.404988 141.214248 
L 140.365152 143.638594 
L 141.325316 141.574648 
L 142.28548 142.988401 
L 143.245643 141.975008 
L 144.205807 142.692 
L 145.165971 144.488985 
L 146.126135 143.756356 
L 147.086299 141.454171 
L 148.046463 140.636917 
L 149.006626 141.091199 
L 150.926954 143.185768 
L 151.887118 143.354744 
L 152.847282 145.025899 
L 153.807445 144.888251 
L 155.727773 148.17775 
L 157.648101 152.767128 
L 158.608264 153.973439 
L 159.568428 155.595733 
L 160.528592 155.154474 
L 161.488756 155.291207 
L 162.44892 156.067176 
L 163.409084 155.176313 
L 164.369247 156.885176 
L 165.329411 156.259948 
L 166.289575 154.931686 
L 167.249739 155.613635 
L 168.209903 153.618551 
L 169.170066 155.128934 
L 170.13023 157.004024 
L 171.090394 155.057773 
L 172.050558 157.249825 
L 173.970885 156.350657 
L 174.931049 156.499463 
L 175.891213 155.425771 
L 176.851377 156.825076 
L 177.811541 157.609938 
L 178.771705 157.106956 
L 179.731868 159.034588 
L 180.692032 158.103981 
L 181.652196 156.03792 
L 182.61236 155.162451 
L 183.572524 157.455924 
L 184.532687 155.73023 
L 185.492851 157.790076 
L 186.453015 156.721637 
L 187.413179 155.483547 
L 188.373343 155.002645 
L 189.333506 156.515179 
L 190.29367 157.214317 
L 191.253834 158.186483 
L 192.213998 160.407778 
L 193.174162 161.522505 
L 194.134326 160.646494 
L 195.094489 159.18846 
L 197.014817 154.751429 
L 197.974981 156.05777 
L 199.895308 151.303979 
L 200.855472 152.612125 
L 201.815636 153.068359 
L 202.7758 155.474693 
L 203.735964 156.198119 
L 204.696127 157.730017 
L 205.656291 155.586867 
L 206.616455 155.485531 
L 207.576619 154.851673 
L 208.536783 153.122489 
L 209.496947 154.781689 
L 210.45711 154.289884 
L 211.417274 156.657333 
L 212.377438 155.760655 
L 213.337602 154.410273 
L 214.297766 154.799628 
L 215.257929 154.763632 
L 216.218093 154.573195 
L 217.178257 156.806484 
L 219.098585 153.741016 
L 220.058748 153.786553 
L 221.018912 156.249802 
L 221.979076 155.755474 
L 222.93924 153.735171 
L 223.899404 152.695986 
L 224.859567 150.391104 
L 225.819731 150.25038 
L 226.779895 150.692934 
L 227.740059 148.409267 
L 228.700223 150.59435 
L 229.660387 150.203807 
L 230.62055 151.947703 
L 231.580714 153.173872 
L 232.540878 151.029429 
L 233.501042 153.103378 
L 234.461206 153.677726 
L 235.421369 155.704332 
L 236.381533 156.799129 
L 237.341697 159.085378 
L 238.301861 158.808264 
L 239.262025 159.626019 
L 240.222188 159.882619 
L 241.182352 159.358111 
L 242.142516 159.991755 
L 244.062844 157.763496 
L 245.023008 159.239079 
L 245.983171 158.228428 
L 246.943335 159.916586 
L 247.903499 161.89639 
L 249.823827 164.764381 
L 250.78399 165.58564 
L 251.744154 166.620602 
L 252.704318 167.009565 
L 253.664482 169.267905 
L 254.624646 168.177876 
L 255.584809 167.315853 
L 256.544973 164.854756 
L 257.505137 162.771522 
L 258.465301 161.645274 
L 259.425465 159.51202 
L 260.385629 157.785045 
L 261.345792 157.574678 
L 262.305956 157.128447 
L 263.26612 158.46945 
L 264.226284 158.40057 
L 265.186448 157.424775 
L 266.146611 155.382164 
L 267.106775 154.348384 
L 268.066939 154.976132 
L 269.027103 154.295326 
L 269.987267 154.022668 
L 270.94743 154.122812 
L 271.907594 156.003479 
L 272.867758 156.869312 
L 273.827922 159.048267 
L 274.788086 158.065866 
L 275.74825 159.062364 
L 276.708413 158.661976 
L 277.668577 156.377128 
L 278.628741 154.852725 
L 279.588905 156.151536 
L 280.549069 154.976897 
L 281.509232 156.394166 
L 282.469396 157.576437 
L 283.42956 159.462405 
L 284.389724 157.289756 
L 285.349888 156.804689 
L 286.310051 158.430305 
L 287.270215 158.333145 
L 288.230379 155.863444 
L 289.190543 157.899545 
L 290.150707 159.247211 
L 291.11087 158.375509 
L 292.071034 159.091284 
L 293.031198 160.234669 
L 293.991362 158.988572 
L 294.951526 159.57554 
L 295.91169 159.986256 
L 296.871853 159.136311 
L 297.832017 159.570548 
L 298.792181 158.568282 
L 300.712509 154.530348 
L 301.672672 152.05982 
L 302.632836 153.33909 
L 304.553164 152.866831 
L 305.513328 151.641682 
L 306.473491 151.481975 
L 307.433655 153.338934 
L 308.393819 153.66048 
L 309.353983 155.419035 
L 310.314147 156.522668 
L 311.274311 155.572047 
L 312.234474 157.019758 
L 313.194638 154.874498 
L 314.154802 153.404111 
L 316.07513 157.636633 
L 317.035293 156.837789 
L 317.995457 154.631836 
L 318.955621 156.203212 
L 319.915785 155.15387 
L 320.875949 156.921466 
L 321.836112 156.751045 
L 322.796276 156.291227 
L 323.75644 154.991363 
L 324.716604 153.390832 
L 325.676768 151.436502 
L 326.636932 152.804709 
L 327.597095 153.398871 
L 328.557259 151.372973 
L 329.517423 150.396614 
L 330.477587 148.41903 
L 332.397914 151.56478 
L 333.358078 152.561503 
L 334.318242 151.266528 
L 335.278406 150.750608 
L 336.23857 150.475861 
L 337.198733 150.409225 
L 338.158897 150.939854 
L 339.119061 152.636288 
L 340.079225 152.694638 
L 341.039389 150.704709 
L 341.999553 152.034197 
L 342.959716 150.646547 
L 343.91988 148.692947 
L 344.880044 147.731347 
L 345.840208 149.778831 
L 346.800372 149.927442 
L 348.720699 153.520532 
L 349.680863 152.878011 
L 350.641027 154.125524 
L 351.601191 153.939512 
L 352.561354 153.574166 
L 353.521518 154.333429 
L 354.481682 154.781303 
L 355.441846 153.557278 
L 356.40201 151.583016 
L 357.362174 150.441985 
L 358.322337 149.502955 
L 359.282501 150.593799 
L 360.242665 151.458482 
L 361.202829 153.689869 
L 362.162993 152.989959 
L 363.123156 152.618163 
L 364.08332 153.529737 
L 365.043484 151.45631 
L 366.003648 152.451079 
L 366.963812 153.716075 
L 367.923975 154.748898 
L 368.884139 156.161114 
L 369.844303 157.942309 
L 370.804467 156.162563 
L 371.764631 155.421199 
L 371.764631 155.421199 
" style="fill:none;stroke:#000000;stroke-linecap:square;stroke-width:1.5;"/>
   </g>
   <g id="patch_13">
    <path d="M 52.182813 171.416522 
L 52.182813 124.146957 
" style="fill:none;stroke:#000000;stroke-linecap:square;stroke-linejoin:miter;stroke-width:0.8;"/>
   </g>
   <g id="patch_14">
    <path d="M 386.982813 171.416522 
L 386.982813 124.146957 
" style="fill:none;stroke:#000000;stroke-linecap:square;stroke-linejoin:miter;stroke-width:0.8;"/>
   </g>
   <g id="patch_15">
    <path d="M 52.182813 171.416522 
L 386.982813 171.416522 
" style="fill:none;stroke:#000000;stroke-linecap:square;stroke-linejoin:miter;stroke-width:0.8;"/>
   </g>
   <g id="patch_16">
    <path d="M 52.182813 124.146957 
L 386.982813 124.146957 
" style="fill:none;stroke:#000000;stroke-linecap:square;stroke-linejoin:miter;stroke-width:0.8;"/>
   </g>
  </g>
  <g id="axes_4">
   <g id="patch_17">
    <path d="M 52.182813 228.14 
L 386.982813 228.14 
L 386.982813 180.870435 
L 52.182813 180.870435 
z
" style="fill:#ffffff;"/>
   </g>
   <g id="matplotlib.axis_7">
    <g id="xtick_22">
     <g id="line2d_31">
      <g>
       <use style="stroke:#000000;stroke-width:0.8;" x="67.400994" xlink:href="#m81883946bd" y="228.14"/>
      </g>
     </g>
     <g id="text_10">
      <!-- 0 -->
      <g transform="translate(64.219744 242.738438)scale(0.1 -0.1)">
       <use xlink:href="#DejaVuSans-30"/>
      </g>
     </g>
    </g>
    <g id="xtick_23">
     <g id="line2d_32">
      <g>
       <use style="stroke:#000000;stroke-width:0.8;" x="115.409185" xlink:href="#m81883946bd" y="228.14"/>
      </g>
     </g>
     <g id="text_11">
      <!-- 5 -->
      <defs>
       <path d="M 10.796875 72.90625 
L 49.515625 72.90625 
L 49.515625 64.59375 
L 19.828125 64.59375 
L 19.828125 46.734375 
Q 21.96875 47.46875 24.109375 47.828125 
Q 26.265625 48.1875 28.421875 48.1875 
Q 40.625 48.1875 47.75 41.5 
Q 54.890625 34.8125 54.890625 23.390625 
Q 54.890625 11.625 47.5625 5.09375 
Q 40.234375 -1.421875 26.90625 -1.421875 
Q 22.3125 -1.421875 17.546875 -0.640625 
Q 12.796875 0.140625 7.71875 1.703125 
L 7.71875 11.625 
Q 12.109375 9.234375 16.796875 8.0625 
Q 21.484375 6.890625 26.703125 6.890625 
Q 35.15625 6.890625 40.078125 11.328125 
Q 45.015625 15.765625 45.015625 23.390625 
Q 45.015625 31 40.078125 35.4375 
Q 35.15625 39.890625 26.703125 39.890625 
Q 22.75 39.890625 18.8125 39.015625 
Q 14.890625 38.140625 10.796875 36.28125 
z
" id="DejaVuSans-35"/>
      </defs>
      <g transform="translate(112.227935 242.738438)scale(0.1 -0.1)">
       <use xlink:href="#DejaVuSans-35"/>
      </g>
     </g>
    </g>
    <g id="xtick_24">
     <g id="line2d_33">
      <g>
       <use style="stroke:#000000;stroke-width:0.8;" x="163.417375" xlink:href="#m81883946bd" y="228.14"/>
      </g>
     </g>
     <g id="text_12">
      <!-- 10 -->
      <g transform="translate(157.054875 242.738438)scale(0.1 -0.1)">
       <use xlink:href="#DejaVuSans-31"/>
       <use x="63.623047" xlink:href="#DejaVuSans-30"/>
      </g>
     </g>
    </g>
    <g id="xtick_25">
     <g id="line2d_34">
      <g>
       <use style="stroke:#000000;stroke-width:0.8;" x="211.425566" xlink:href="#m81883946bd" y="228.14"/>
      </g>
     </g>
     <g id="text_13">
      <!-- 15 -->
      <g transform="translate(205.063066 242.738438)scale(0.1 -0.1)">
       <use xlink:href="#DejaVuSans-31"/>
       <use x="63.623047" xlink:href="#DejaVuSans-35"/>
      </g>
     </g>
    </g>
    <g id="xtick_26">
     <g id="line2d_35">
      <g>
       <use style="stroke:#000000;stroke-width:0.8;" x="259.433757" xlink:href="#m81883946bd" y="228.14"/>
      </g>
     </g>
     <g id="text_14">
      <!-- 20 -->
      <g transform="translate(253.071257 242.738438)scale(0.1 -0.1)">
       <use xlink:href="#DejaVuSans-32"/>
       <use x="63.623047" xlink:href="#DejaVuSans-30"/>
      </g>
     </g>
    </g>
    <g id="xtick_27">
     <g id="line2d_36">
      <g>
       <use style="stroke:#000000;stroke-width:0.8;" x="307.441947" xlink:href="#m81883946bd" y="228.14"/>
      </g>
     </g>
     <g id="text_15">
      <!-- 25 -->
      <g transform="translate(301.079447 242.738438)scale(0.1 -0.1)">
       <use xlink:href="#DejaVuSans-32"/>
       <use x="63.623047" xlink:href="#DejaVuSans-35"/>
      </g>
     </g>
    </g>
    <g id="xtick_28">
     <g id="line2d_37">
      <g>
       <use style="stroke:#000000;stroke-width:0.8;" x="355.450138" xlink:href="#m81883946bd" y="228.14"/>
      </g>
     </g>
     <g id="text_16">
      <!-- 30 -->
      <defs>
       <path d="M 40.578125 39.3125 
Q 47.65625 37.796875 51.625 33 
Q 55.609375 28.21875 55.609375 21.1875 
Q 55.609375 10.40625 48.1875 4.484375 
Q 40.765625 -1.421875 27.09375 -1.421875 
Q 22.515625 -1.421875 17.65625 -0.515625 
Q 12.796875 0.390625 7.625 2.203125 
L 7.625 11.71875 
Q 11.71875 9.328125 16.59375 8.109375 
Q 21.484375 6.890625 26.8125 6.890625 
Q 36.078125 6.890625 40.9375 10.546875 
Q 45.796875 14.203125 45.796875 21.1875 
Q 45.796875 27.640625 41.28125 31.265625 
Q 36.765625 34.90625 28.71875 34.90625 
L 20.21875 34.90625 
L 20.21875 43.015625 
L 29.109375 43.015625 
Q 36.375 43.015625 40.234375 45.921875 
Q 44.09375 48.828125 44.09375 54.296875 
Q 44.09375 59.90625 40.109375 62.90625 
Q 36.140625 65.921875 28.71875 65.921875 
Q 24.65625 65.921875 20.015625 65.03125 
Q 15.375 64.15625 9.8125 62.3125 
L 9.8125 71.09375 
Q 15.4375 72.65625 20.34375 73.4375 
Q 25.25 74.21875 29.59375 74.21875 
Q 40.828125 74.21875 47.359375 69.109375 
Q 53.90625 64.015625 53.90625 55.328125 
Q 53.90625 49.265625 50.4375 45.09375 
Q 46.96875 40.921875 40.578125 39.3125 
z
" id="DejaVuSans-33"/>
      </defs>
      <g transform="translate(349.087638 242.738438)scale(0.1 -0.1)">
       <use xlink:href="#DejaVuSans-33"/>
       <use x="63.623047" xlink:href="#DejaVuSans-30"/>
      </g>
     </g>
    </g>
    <g id="text_17">
     <!-- $t \: [s]$ -->
     <defs>
      <path d="M 42.28125 54.6875 
L 40.921875 47.703125 
L 23 47.703125 
L 17.1875 18.015625 
Q 16.890625 16.359375 16.75 15.234375 
Q 16.609375 14.109375 16.609375 13.484375 
Q 16.609375 10.359375 18.484375 8.9375 
Q 20.359375 7.515625 24.515625 7.515625 
L 33.59375 7.515625 
L 32.078125 0 
L 23.484375 0 
Q 15.484375 0 11.546875 3.125 
Q 7.625 6.25 7.625 12.59375 
Q 7.625 13.71875 7.765625 15.0625 
Q 7.90625 16.40625 8.203125 18.015625 
L 14.015625 47.703125 
L 6.390625 47.703125 
L 7.8125 54.6875 
L 15.28125 54.6875 
L 18.3125 70.21875 
L 27.296875 70.21875 
L 24.3125 54.6875 
z
" id="DejaVuSans-Oblique-74"/>
      <path d="M 50 53.078125 
L 48.296875 44.578125 
Q 44.734375 46.53125 40.765625 47.5 
Q 36.8125 48.484375 32.625 48.484375 
Q 25.53125 48.484375 21.453125 46.0625 
Q 17.390625 43.65625 17.390625 39.5 
Q 17.390625 34.671875 26.859375 32.078125 
Q 27.59375 31.890625 27.9375 31.78125 
L 30.8125 30.90625 
Q 39.796875 28.421875 42.796875 25.6875 
Q 45.796875 22.953125 45.796875 18.21875 
Q 45.796875 9.515625 38.890625 4.046875 
Q 31.984375 -1.421875 20.796875 -1.421875 
Q 16.453125 -1.421875 11.671875 -0.578125 
Q 6.890625 0.25 1.125 2 
L 2.875 11.28125 
Q 7.8125 8.734375 12.59375 7.421875 
Q 17.390625 6.109375 21.78125 6.109375 
Q 28.375 6.109375 32.5 8.9375 
Q 36.625 11.765625 36.625 16.109375 
Q 36.625 20.796875 25.78125 23.6875 
L 24.859375 23.921875 
L 21.78125 24.703125 
Q 14.9375 26.515625 11.765625 29.46875 
Q 8.59375 32.421875 8.59375 37.015625 
Q 8.59375 45.75 15.15625 50.875 
Q 21.734375 56 33.015625 56 
Q 37.453125 56 41.671875 55.265625 
Q 45.90625 54.546875 50 53.078125 
z
" id="DejaVuSans-Oblique-73"/>
     </defs>
     <g transform="translate(210.032813 256.416562)scale(0.1 -0.1)">
      <use transform="translate(0 0.015625)" xlink:href="#DejaVuSans-Oblique-74"/>
      <use transform="translate(60.855903 0.015625)" xlink:href="#DejaVuSans-5b"/>
      <use transform="translate(99.869575 0.015625)" xlink:href="#DejaVuSans-Oblique-73"/>
      <use transform="translate(151.969185 0.015625)" xlink:href="#DejaVuSans-5d"/>
     </g>
    </g>
   </g>
   <g id="matplotlib.axis_8">
    <g id="ytick_7">
     <g id="line2d_38">
      <g>
       <use style="stroke:#000000;stroke-width:0.8;" x="52.182813" xlink:href="#m32c5c1da26" y="226.127537"/>
      </g>
     </g>
     <g id="text_18">
      <!-- −0.1 -->
      <g transform="translate(20.9 229.926755)scale(0.1 -0.1)">
       <use xlink:href="#DejaVuSans-2212"/>
       <use x="83.789062" xlink:href="#DejaVuSans-30"/>
       <use x="147.412109" xlink:href="#DejaVuSans-2e"/>
       <use x="179.199219" xlink:href="#DejaVuSans-31"/>
      </g>
     </g>
    </g>
    <g id="ytick_8">
     <g id="line2d_39">
      <g>
       <use style="stroke:#000000;stroke-width:0.8;" x="52.182813" xlink:href="#m32c5c1da26" y="204.541083"/>
      </g>
     </g>
     <g id="text_19">
      <!-- 0.0 -->
      <g transform="translate(29.279688 208.340302)scale(0.1 -0.1)">
       <use xlink:href="#DejaVuSans-30"/>
       <use x="63.623047" xlink:href="#DejaVuSans-2e"/>
       <use x="95.410156" xlink:href="#DejaVuSans-30"/>
      </g>
     </g>
    </g>
    <g id="ytick_9">
     <g id="line2d_40">
      <g>
       <use style="stroke:#000000;stroke-width:0.8;" x="52.182813" xlink:href="#m32c5c1da26" y="182.95463"/>
      </g>
     </g>
     <g id="text_20">
      <!-- 0.1 -->
      <g transform="translate(29.279688 186.753848)scale(0.1 -0.1)">
       <use xlink:href="#DejaVuSans-30"/>
       <use x="63.623047" xlink:href="#DejaVuSans-2e"/>
       <use x="95.410156" xlink:href="#DejaVuSans-31"/>
      </g>
     </g>
    </g>
    <g id="text_21">
     <!-- $\phi \: [rad]$ -->
     <defs>
      <path d="M 46.734375 75.984375 
L 42.78125 55.8125 
Q 52.546875 55.8125 57.5625 48.34375 
Q 62.75 40.71875 60.15625 27.296875 
Q 57.515625 13.875 49.359375 6.25 
Q 41.453125 -1.21875 31.6875 -1.21875 
L 27.875 -20.796875 
L 18.953125 -20.796875 
L 22.75 -1.21875 
Q 13.03125 -1.21875 7.953125 6.25 
Q 2.78125 13.875 5.421875 27.296875 
Q 8.015625 40.71875 16.15625 48.34375 
Q 24.125 55.8125 33.84375 55.8125 
L 37.796875 75.984375 
z
M 33.25 6.78125 
Q 38.765625 6.78125 43.5 11.8125 
Q 48.6875 17.4375 50.6875 27.296875 
Q 52.640625 37.0625 49.515625 42.78125 
Q 46.734375 47.796875 41.21875 47.796875 
z
M 24.3125 6.78125 
L 32.28125 47.796875 
Q 26.8125 47.796875 22.078125 42.78125 
Q 16.75 37.0625 14.890625 27.296875 
Q 13.03125 17.4375 16.0625 11.8125 
Q 18.796875 6.78125 24.3125 6.78125 
z
" id="DejaVuSans-Oblique-3d5"/>
     </defs>
     <g transform="translate(14.8 221.105217)rotate(-90)scale(0.1 -0.1)">
      <use transform="translate(0 0.015625)" xlink:href="#DejaVuSans-Oblique-3d5"/>
      <use transform="translate(87.613716 0.015625)" xlink:href="#DejaVuSans-5b"/>
      <use transform="translate(126.627388 0.015625)" xlink:href="#DejaVuSans-Oblique-72"/>
      <use transform="translate(167.740669 0.015625)" xlink:href="#DejaVuSans-Oblique-61"/>
      <use transform="translate(229.019966 0.015625)" xlink:href="#DejaVuSans-Oblique-64"/>
      <use transform="translate(292.496528 0.015625)" xlink:href="#DejaVuSans-5d"/>
     </g>
    </g>
   </g>
   <g id="line2d_41">
    <path clip-path="url(#pa87a2816d9)" d="M 67.400994 217.129067 
L 68.361158 209.719623 
L 69.321322 218.381181 
L 70.281486 207.120928 
L 71.24165 184.070335 
L 72.201813 193.617814 
L 73.161977 201.233506 
L 73.796816 207.853769 
L 74.366913 198.519533 
L 75.125495 190.785686 
L 75.543265 210.599056 
L 76.100643 201.633675 
L 76.658021 199.651267 
L 77.23584 222.477318 
L 77.797554 208.896249 
L 77.901312 200.047869 
L 78.00507 220.585155 
L 78.106932 183.614589 
L 78.088426 224.86889 
L 78.167429 193.375648 
L 78.29211 224.485881 
L 78.343859 224.789844 
L 78.467093 200.90755 
L 78.538579 214.858646 
L 78.6385 199.80461 
L 78.739415 212.786478 
L 78.840331 207.995028 
L 78.947565 209.438055 
L 79.089945 225.414417 
L 79.327987 191.316079 
L 79.59301 213.202469 
L 79.858032 187.379973 
L 80.123055 216.527794 
L 80.361498 219.757139 
L 80.599941 211.237205 
L 80.973666 217.574285 
L 81.43974 200.355441 
L 82.07976 197.706141 
L 82.755323 217.217175 
L 83.715487 220.495183 
L 84.675651 225.946336 
L 85.635815 200.470924 
L 86.595979 215.396076 
L 87.556142 190.063815 
L 88.516306 205.760868 
L 89.47647 194.220118 
L 90.436634 195.172484 
L 91.396798 197.333389 
L 92.356961 202.550717 
L 93.317125 220.843881 
L 94.277289 212.209829 
L 95.237453 217.922728 
L 96.197617 183.119568 
L 97.157781 218.852892 
L 98.117944 214.612566 
L 99.078108 214.477881 
L 100.038272 209.729964 
L 100.998436 196.075315 
L 101.9586 191.708215 
L 102.918763 214.595825 
L 103.878927 210.217858 
L 104.839091 221.908633 
L 105.799255 191.046403 
L 106.759419 200.18802 
L 107.719582 191.85578 
L 108.679746 186.796051 
L 109.63991 190.48728 
L 110.600074 195.997866 
L 111.560238 224.819633 
L 112.520402 194.033545 
L 113.480565 211.084728 
L 114.440729 224.445286 
L 115.400893 205.924317 
L 116.361057 205.108172 
L 117.321221 223.639919 
L 118.281384 204.684925 
L 119.241548 190.461202 
L 120.201712 196.845299 
L 121.161876 223.230675 
L 122.12204 222.676438 
L 123.082203 222.573666 
L 124.042367 225.911455 
L 125.002531 222.908072 
L 125.962695 225.733328 
L 126.922859 193.473328 
L 127.883023 183.019051 
L 128.843186 210.195729 
L 129.80335 201.924283 
L 130.763514 186.80059 
L 131.723678 199.064408 
L 132.683842 217.331507 
L 133.644005 188.016505 
L 134.604169 209.155787 
L 135.564333 197.420632 
L 136.524497 194.974642 
L 137.484661 208.687221 
L 138.444824 203.965972 
L 139.404988 225.857818 
L 140.365152 184.297938 
L 141.325316 218.993284 
L 142.28548 194.182 
L 143.245643 211.885793 
L 144.205807 219.589098 
L 145.165971 196.587688 
L 146.126135 185.137602 
L 147.086299 199.303336 
L 148.046463 209.062427 
L 149.006626 214.022232 
L 149.96679 212.07319 
L 150.926954 205.271997 
L 151.887118 219.147742 
L 152.847282 201.863145 
L 153.807445 219.816373 
L 154.767609 216.900788 
L 155.727773 223.599132 
L 156.687937 222.609815 
L 157.648101 213.332671 
L 158.608264 217.914204 
L 159.568428 199.31719 
L 160.528592 206.267966 
L 161.488756 211.192519 
L 162.44892 196.04069 
L 163.409084 220.399441 
L 164.369247 197.449827 
L 165.329411 193.576313 
L 166.289575 211.638661 
L 167.249739 186.320318 
L 168.209903 219.635951 
L 169.170066 219.497267 
L 170.13023 185.962285 
L 171.090394 225.626561 
L 172.050558 198.365448 
L 173.010722 201.306208 
L 173.970885 206.174637 
L 174.931049 194.937597 
L 175.891213 217.798766 
L 176.851377 210.113569 
L 177.811541 199.557924 
L 178.771705 221.961694 
L 179.731868 194.610051 
L 180.692032 187.397325 
L 181.652196 198.563428 
L 182.61236 225.254158 
L 183.572524 187.312006 
L 184.532687 224.338782 
L 185.492851 193.160823 
L 186.453015 194.797728 
L 187.413179 201.288301 
L 188.373343 218.156027 
L 189.333506 209.323884 
L 190.29367 212.6104 
L 191.253834 223.226903 
L 192.213998 212.465897 
L 193.174162 196.043502 
L 194.134326 192.578661 
L 195.094489 186.001815 
L 196.054653 187.192649 
L 197.014817 217.760874 
L 197.974981 183.175491 
L 198.935145 185.029964 
L 199.895308 217.994341 
L 200.855472 207.203813 
L 201.815636 225.379231 
L 202.7758 208.808691 
L 203.735964 217.574335 
L 204.696127 184.436023 
L 205.656291 205.671666 
L 206.616455 198.852538 
L 207.576619 189.921276 
L 208.536783 220.577048 
L 209.496947 198.604687 
L 210.45711 225.894708 
L 211.417274 194.511129 
L 212.377438 193.676626 
L 213.337602 209.056328 
L 214.297766 203.771517 
L 215.257929 202.942886 
L 216.218093 224.293816 
L 217.178257 188.153777 
L 218.138421 193.660266 
L 219.098585 206.033797 
L 220.058748 225.991383 
L 221.018912 198.035829 
L 221.979076 187.455455 
L 222.93924 197.118631 
L 223.899404 185.061183 
L 224.859567 205.261929 
L 225.819731 208.361842 
L 226.779895 184.127964 
L 227.740059 225.749522 
L 228.700223 198.972658 
L 229.660387 220.413222 
L 230.62055 213.728341 
L 231.580714 184.808188 
L 232.540878 224.712582 
L 233.501042 207.564976 
L 234.461206 222.028889 
L 235.421369 212.411626 
L 236.381533 223.813744 
L 237.341697 200.165786 
L 238.301861 212.171088 
L 240.222188 199.777777 
L 241.182352 210.591866 
L 242.142516 194.100263 
L 243.10268 195.832192 
L 244.062844 218.377665 
L 245.023008 194.267934 
L 245.983171 220.39543 
L 246.943335 220.337674 
L 247.903499 215.900211 
L 248.863663 215.666031 
L 249.823827 210.647954 
L 250.78399 213.02937 
L 251.744154 207.111237 
L 252.704318 224.097792 
L 253.664482 192.99572 
L 254.624646 198.11812 
L 255.584809 183.599409 
L 256.544973 188.350659 
L 257.505137 196.263504 
L 258.465301 186.645051 
L 259.425465 191.163709 
L 260.385629 204.033634 
L 261.345792 200.666587 
L 262.305956 216.714484 
L 263.26612 202.713014 
L 264.226284 196.143922 
L 265.186448 187.449203 
L 266.146611 197.166759 
L 267.106775 210.801883 
L 268.066939 197.92559 
L 269.027103 202.806019 
L 269.987267 205.596111 
L 270.94743 220.949114 
L 271.907594 210.508206 
L 272.867758 223.066646 
L 273.827922 194.044079 
L 274.788086 214.354723 
L 276.708413 184.945738 
L 277.668577 193.111133 
L 278.628741 217.100762 
L 279.588905 192.957125 
L 280.549069 218.154518 
L 281.509232 213.569999 
L 282.469396 220.199701 
L 283.42956 183.916689 
L 285.349888 219.040798 
L 286.310051 202.230069 
L 287.270215 183.11585 
L 288.230379 224.552274 
L 289.190543 214.377986 
L 290.150707 195.889568 
L 291.11087 211.70371 
L 292.071034 213.875817 
L 293.031198 192.653617 
L 293.991362 210.896566 
L 294.951526 207.516687 
L 295.91169 196.768471 
L 296.871853 209.140489 
L 297.832017 195.267848 
L 298.792181 187.731336 
L 299.752345 188.509724 
L 300.712509 184.474858 
L 301.672672 217.797194 
L 302.632836 200.928182 
L 303.593 203.030832 
L 304.553164 193.922647 
L 305.513328 204.201776 
L 306.473491 220.88077 
L 307.433655 205.728147 
L 308.393819 219.867432 
L 309.353983 212.706987 
L 310.314147 195.364031 
L 311.274311 218.180296 
L 312.234474 184.357146 
L 313.194638 193.644444 
L 314.154802 224.697911 
L 315.114966 220.59853 
L 316.07513 195.904396 
L 317.035293 186.045805 
L 317.995457 220.197416 
L 318.955621 193.745441 
L 319.915785 221.142579 
L 320.875949 201.37381 
L 321.836112 200.813778 
L 322.796276 193.488795 
L 323.75644 191.585062 
L 324.716604 188.677013 
L 325.676768 218.153882 
L 326.636932 208.400922 
L 327.597095 186.373764 
L 328.557259 197.779851 
L 329.517423 187.854521 
L 330.477587 219.599245 
L 331.437751 217.283134 
L 332.397914 212.02759 
L 333.358078 192.409992 
L 334.318242 201.220313 
L 335.278406 202.457063 
L 336.23857 204.163853 
L 337.198733 209.246471 
L 338.158897 218.972272 
L 340.079225 187.165818 
L 341.039389 217.966439 
L 341.999553 191.002635 
L 342.959716 188.741715 
L 343.91988 197.670847 
L 344.880044 223.19684 
L 345.840208 203.972923 
L 346.800372 219.809448 
L 347.760535 219.357961 
L 348.720699 197.402717 
L 349.680863 216.221038 
L 350.641027 201.732283 
L 351.601191 201.608764 
L 352.561354 211.512504 
L 353.521518 207.781706 
L 354.481682 193.457239 
L 355.441846 188.315319 
L 356.40201 196.137201 
L 357.362174 197.125932 
L 358.322337 214.874021 
L 359.282501 211.109213 
L 360.242665 223.464593 
L 361.202829 196.484594 
L 362.162993 202.078579 
L 363.123156 212.803745 
L 364.08332 185.520078 
L 365.043484 215.196584 
L 366.003648 214.593376 
L 366.963812 212.614919 
L 367.923975 216.144048 
L 368.884139 219.02495 
L 369.844303 187.464435 
L 370.804467 199.735734 
L 370.804467 199.735734 
" style="fill:none;stroke:#000000;stroke-linecap:square;stroke-width:1.5;"/>
   </g>
   <g id="patch_18">
    <path d="M 52.182813 228.14 
L 52.182813 180.870435 
" style="fill:none;stroke:#000000;stroke-linecap:square;stroke-linejoin:miter;stroke-width:0.8;"/>
   </g>
   <g id="patch_19">
    <path d="M 386.982813 228.14 
L 386.982813 180.870435 
" style="fill:none;stroke:#000000;stroke-linecap:square;stroke-linejoin:miter;stroke-width:0.8;"/>
   </g>
   <g id="patch_20">
    <path d="M 52.182813 228.14 
L 386.982813 228.14 
" style="fill:none;stroke:#000000;stroke-linecap:square;stroke-linejoin:miter;stroke-width:0.8;"/>
   </g>
   <g id="patch_21">
    <path d="M 52.182813 180.870435 
L 386.982813 180.870435 
" style="fill:none;stroke:#000000;stroke-linecap:square;stroke-linejoin:miter;stroke-width:0.8;"/>
   </g>
  </g>
 </g>
 <defs>
  <clipPath id="p92d96de871">
   <rect height="47.269565" width="334.8" x="52.182813" y="10.7"/>
  </clipPath>
  <clipPath id="p601a34c02e">
   <rect height="47.269565" width="334.8" x="52.182813" y="67.423478"/>
  </clipPath>
  <clipPath id="p943ed63f48">
   <rect height="47.269565" width="334.8" x="52.182813" y="124.146957"/>
  </clipPath>
  <clipPath id="pa87a2816d9">
   <rect height="47.269565" width="334.8" x="52.182813" y="180.870435"/>
  </clipPath>
 </defs>
</svg>
