<?xml version="1.0" encoding="utf-8" standalone="no"?>
<!DOCTYPE svg PUBLIC "-//W3C//DTD SVG 1.1//EN"
  "http://www.w3.org/Graphics/SVG/1.1/DTD/svg11.dtd">
<!-- Created with matplotlib (http://matplotlib.org/) -->
<svg height="265.69625pt" version="1.1" viewBox="0 0 386.125 265.69625" width="386.125pt" xmlns="http://www.w3.org/2000/svg" xmlns:xlink="http://www.w3.org/1999/xlink">
 <defs>
  <style type="text/css">
*{stroke-linecap:butt;stroke-linejoin:round;}
  </style>
 </defs>
 <g id="figure_1">
  <g id="patch_1">
   <path d="M 0 265.69625 
L 386.125 265.69625 
L 386.125 0 
L 0 0 
z
" style="fill:#ffffff;"/>
  </g>
  <g id="axes_1">
   <g id="patch_2">
    <path d="M 40.625 74.652941 
L 375.425 74.652941 
L 375.425 10.7 
L 40.625 10.7 
z
" style="fill:#ffffff;"/>
   </g>
   <g id="matplotlib.axis_1">
    <g id="xtick_1">
     <g id="line2d_1">
      <defs>
       <path d="M 0 0 
L 0 3.5 
" id="m3efe075be9" style="stroke:#000000;stroke-width:0.8;"/>
      </defs>
      <g>
       <use style="stroke:#000000;stroke-width:0.8;" x="55.843182" xlink:href="#m3efe075be9" y="74.652941"/>
      </g>
     </g>
    </g>
    <g id="xtick_2">
     <g id="line2d_2">
      <g>
       <use style="stroke:#000000;stroke-width:0.8;" x="121.299612" xlink:href="#m3efe075be9" y="74.652941"/>
      </g>
     </g>
    </g>
    <g id="xtick_3">
     <g id="line2d_3">
      <g>
       <use style="stroke:#000000;stroke-width:0.8;" x="186.756041" xlink:href="#m3efe075be9" y="74.652941"/>
      </g>
     </g>
    </g>
    <g id="xtick_4">
     <g id="line2d_4">
      <g>
       <use style="stroke:#000000;stroke-width:0.8;" x="252.212471" xlink:href="#m3efe075be9" y="74.652941"/>
      </g>
     </g>
    </g>
    <g id="xtick_5">
     <g id="line2d_5">
      <g>
       <use style="stroke:#000000;stroke-width:0.8;" x="317.668901" xlink:href="#m3efe075be9" y="74.652941"/>
      </g>
     </g>
    </g>
   </g>
   <g id="matplotlib.axis_2">
    <g id="ytick_1">
     <g id="line2d_6">
      <defs>
       <path d="M 0 0 
L -3.5 0 
" id="m248dc3ae52" style="stroke:#000000;stroke-width:0.8;"/>
      </defs>
      <g>
       <use style="stroke:#000000;stroke-width:0.8;" x="40.625" xlink:href="#m248dc3ae52" y="71.745989"/>
      </g>
     </g>
     <g id="text_1">
      <!-- 0 -->
      <defs>
       <path d="M 31.78125 66.40625 
Q 24.171875 66.40625 20.328125 58.90625 
Q 16.5 51.421875 16.5 36.375 
Q 16.5 21.390625 20.328125 13.890625 
Q 24.171875 6.390625 31.78125 6.390625 
Q 39.453125 6.390625 43.28125 13.890625 
Q 47.125 21.390625 47.125 36.375 
Q 47.125 51.421875 43.28125 58.90625 
Q 39.453125 66.40625 31.78125 66.40625 
z
M 31.78125 74.21875 
Q 44.046875 74.21875 50.515625 64.515625 
Q 56.984375 54.828125 56.984375 36.375 
Q 56.984375 17.96875 50.515625 8.265625 
Q 44.046875 -1.421875 31.78125 -1.421875 
Q 19.53125 -1.421875 13.0625 8.265625 
Q 6.59375 17.96875 6.59375 36.375 
Q 6.59375 54.828125 13.0625 64.515625 
Q 19.53125 74.21875 31.78125 74.21875 
z
" id="DejaVuSans-30"/>
      </defs>
      <g transform="translate(27.2625 75.545208)scale(0.1 -0.1)">
       <use xlink:href="#DejaVuSans-30"/>
      </g>
     </g>
    </g>
    <g id="ytick_2">
     <g id="line2d_7">
      <g>
       <use style="stroke:#000000;stroke-width:0.8;" x="40.625" xlink:href="#m248dc3ae52" y="42.83724"/>
      </g>
     </g>
     <g id="text_2">
      <!-- 5 -->
      <defs>
       <path d="M 10.796875 72.90625 
L 49.515625 72.90625 
L 49.515625 64.59375 
L 19.828125 64.59375 
L 19.828125 46.734375 
Q 21.96875 47.46875 24.109375 47.828125 
Q 26.265625 48.1875 28.421875 48.1875 
Q 40.625 48.1875 47.75 41.5 
Q 54.890625 34.8125 54.890625 23.390625 
Q 54.890625 11.625 47.5625 5.09375 
Q 40.234375 -1.421875 26.90625 -1.421875 
Q 22.3125 -1.421875 17.546875 -0.640625 
Q 12.796875 0.140625 7.71875 1.703125 
L 7.71875 11.625 
Q 12.109375 9.234375 16.796875 8.0625 
Q 21.484375 6.890625 26.703125 6.890625 
Q 35.15625 6.890625 40.078125 11.328125 
Q 45.015625 15.765625 45.015625 23.390625 
Q 45.015625 31 40.078125 35.4375 
Q 35.15625 39.890625 26.703125 39.890625 
Q 22.75 39.890625 18.8125 39.015625 
Q 14.890625 38.140625 10.796875 36.28125 
z
" id="DejaVuSans-35"/>
      </defs>
      <g transform="translate(27.2625 46.636458)scale(0.1 -0.1)">
       <use xlink:href="#DejaVuSans-35"/>
      </g>
     </g>
    </g>
    <g id="ytick_3">
     <g id="line2d_8">
      <g>
       <use style="stroke:#000000;stroke-width:0.8;" x="40.625" xlink:href="#m248dc3ae52" y="13.92849"/>
      </g>
     </g>
     <g id="text_3">
      <!-- 10 -->
      <defs>
       <path d="M 12.40625 8.296875 
L 28.515625 8.296875 
L 28.515625 63.921875 
L 10.984375 60.40625 
L 10.984375 69.390625 
L 28.421875 72.90625 
L 38.28125 72.90625 
L 38.28125 8.296875 
L 54.390625 8.296875 
L 54.390625 0 
L 12.40625 0 
z
" id="DejaVuSans-31"/>
      </defs>
      <g transform="translate(20.9 17.727709)scale(0.1 -0.1)">
       <use xlink:href="#DejaVuSans-31"/>
       <use x="63.623047" xlink:href="#DejaVuSans-30"/>
      </g>
     </g>
    </g>
    <g id="text_4">
     <!-- $x \: [m]$ -->
     <defs>
      <path d="M 60.015625 54.6875 
L 34.90625 27.875 
L 50.296875 0 
L 39.984375 0 
L 28.421875 21.6875 
L 8.296875 0 
L -2.59375 0 
L 24.3125 28.8125 
L 10.015625 54.6875 
L 20.3125 54.6875 
L 30.8125 34.90625 
L 49.125 54.6875 
z
" id="DejaVuSans-Oblique-78"/>
      <path d="M 8.59375 75.984375 
L 29.296875 75.984375 
L 29.296875 69 
L 17.578125 69 
L 17.578125 -6.203125 
L 29.296875 -6.203125 
L 29.296875 -13.1875 
L 8.59375 -13.1875 
z
" id="DejaVuSans-5b"/>
      <path d="M 89.796875 33.015625 
L 83.40625 0 
L 74.421875 0 
L 80.71875 32.71875 
Q 81.109375 34.8125 81.296875 36.328125 
Q 81.5 37.84375 81.5 38.921875 
Q 81.5 43.3125 79.046875 45.75 
Q 76.609375 48.1875 72.21875 48.1875 
Q 65.671875 48.1875 60.546875 43.28125 
Q 55.421875 38.375 53.90625 30.515625 
L 47.90625 0 
L 38.921875 0 
L 45.3125 32.71875 
Q 45.703125 34.515625 45.890625 36.046875 
Q 46.09375 37.59375 46.09375 38.8125 
Q 46.09375 43.265625 43.65625 45.71875 
Q 41.21875 48.1875 36.921875 48.1875 
Q 30.28125 48.1875 25.140625 43.28125 
Q 20.015625 38.375 18.5 30.515625 
L 12.5 0 
L 3.515625 0 
L 14.203125 54.6875 
L 23.1875 54.6875 
L 21.484375 46.1875 
Q 25.140625 50.984375 30.046875 53.484375 
Q 34.96875 56 40.578125 56 
Q 46.53125 56 50.359375 52.875 
Q 54.203125 49.75 54.984375 44.1875 
Q 59.078125 49.953125 64.46875 52.96875 
Q 69.875 56 75.875 56 
Q 82.90625 56 86.734375 51.953125 
Q 90.578125 47.90625 90.578125 40.484375 
Q 90.578125 38.875 90.375 36.9375 
Q 90.1875 35.015625 89.796875 33.015625 
z
" id="DejaVuSans-Oblique-6d"/>
      <path d="M 30.421875 75.984375 
L 30.421875 -13.1875 
L 9.71875 -13.1875 
L 9.71875 -6.203125 
L 21.390625 -6.203125 
L 21.390625 69 
L 9.71875 69 
L 9.71875 75.984375 
z
" id="DejaVuSans-5d"/>
     </defs>
     <g transform="translate(14.820313 55.526471)rotate(-90)scale(0.1 -0.1)">
      <use transform="translate(0 0.015625)" xlink:href="#DejaVuSans-Oblique-78"/>
      <use transform="translate(80.826606 0.015625)" xlink:href="#DejaVuSans-5b"/>
      <use transform="translate(119.840278 0.015625)" xlink:href="#DejaVuSans-Oblique-6d"/>
      <use transform="translate(217.252388 0.015625)" xlink:href="#DejaVuSans-5d"/>
     </g>
    </g>
   </g>
   <g id="line2d_9">
    <path clip-path="url(#p5c96df442f)" d="M 55.843182 71.745989 
L 55.843182 71.745989 
L 55.843182 71.745989 
L 55.843596 71.745806 
L 55.84401 71.745624 
L 55.844424 71.745441 
L 55.848564 71.743612 
L 55.852704 71.741784 
L 55.894102 71.723501 
L 55.9355 71.705217 
L 56.349483 71.522396 
L 56.763466 71.339608 
L 58.306236 70.658955 
L 59.849006 69.979863 
L 61.391777 69.303304 
L 72.885497 64.434288 
L 82.025754 60.958286 
L 84.507219 60.101406 
L 84.635221 60.058274 
L 84.763223 60.015182 
L 84.891224 59.972131 
L 85.019226 59.929119 
L 85.275229 59.843176 
L 85.531232 59.757394 
L 85.787236 59.671773 
L 88.347269 58.824523 
L 90.907302 57.993847 
L 93.467335 57.18014 
L 96.027368 56.383792 
L 108.208326 52.842895 
L 121.982591 49.370182 
L 122.337484 49.28943 
L 122.692377 49.209394 
L 123.04727 49.130077 
L 123.402162 49.051481 
L 124.111948 48.895738 
L 124.821733 48.7429 
L 125.531519 48.592985 
L 132.629373 47.257991 
L 134.390898 46.974029 
L 139.869185 46.214559 
L 140.011142 46.197245 
L 140.1531 46.179948 
L 140.295057 46.162668 
L 140.437014 46.145405 
L 140.720928 46.110911 
L 141.004842 46.076484 
L 141.288756 46.042124 
L 144.127898 45.702203 
L 146.96704 45.368978 
L 149.806182 45.042457 
L 160.57347 43.865478 
L 176.65298 42.288626 
L 176.836878 42.271483 
L 177.020776 42.254179 
L 177.204674 42.236715 
L 177.388572 42.219089 
L 177.756368 42.183518 
L 178.124164 42.147304 
L 178.49196 42.110448 
L 182.169922 41.706852 
L 185.847884 41.239904 
L 186.756041 41.114913 
L 189.769468 40.673231 
L 190.01309 40.636174 
L 190.256713 40.599164 
L 190.500335 40.5622 
L 190.743957 40.525284 
L 191.231202 40.451546 
L 191.718447 40.377997 
L 192.205692 40.304636 
L 197.078139 39.581427 
L 201.950586 38.877153 
L 206.823034 38.191873 
L 212.938613 37.359911 
L 239.121185 34.090978 
L 251.152649 32.845531 
L 251.587122 32.800329 
L 255.931855 32.336731 
L 260.276587 31.861578 
L 265.303757 31.30412 
L 291.486329 28.166204 
L 299.5574 27.097577 
L 299.58814 27.093498 
L 299.649619 27.085322 
L 299.711099 27.077127 
L 300.325892 26.994271 
L 300.940686 26.909597 
L 301.55548 26.82311 
L 307.703419 25.859496 
L 313.851358 24.719841 
L 317.668901 23.926013 
L 320.122256 23.381882 
L 320.245215 23.353991 
L 320.368174 23.326086 
L 320.491132 23.298168 
L 320.614091 23.270237 
L 320.860009 23.214347 
L 321.105926 23.158404 
L 321.351844 23.102407 
L 323.811019 22.539507 
L 326.270195 21.971286 
L 328.729371 21.397764 
L 331.188546 20.818958 
L 343.851473 17.755643 
L 356.272137 14.618079 
L 356.763972 14.491546 
L 357.255807 14.365058 
L 357.747643 14.238612 
L 358.239478 14.11221 
L 359.223148 13.859494 
L 360.206818 13.606952 
" style="fill:none;stroke:#000000;stroke-linecap:square;stroke-width:1.5;"/>
   </g>
   <g id="patch_3">
    <path d="M 40.625 74.652941 
L 40.625 10.7 
" style="fill:none;stroke:#000000;stroke-linecap:square;stroke-linejoin:miter;stroke-width:0.8;"/>
   </g>
   <g id="patch_4">
    <path d="M 375.425 74.652941 
L 375.425 10.7 
" style="fill:none;stroke:#000000;stroke-linecap:square;stroke-linejoin:miter;stroke-width:0.8;"/>
   </g>
   <g id="patch_5">
    <path d="M 40.625 74.652941 
L 375.425 74.652941 
" style="fill:none;stroke:#000000;stroke-linecap:square;stroke-linejoin:miter;stroke-width:0.8;"/>
   </g>
   <g id="patch_6">
    <path d="M 40.625 10.7 
L 375.425 10.7 
" style="fill:none;stroke:#000000;stroke-linecap:square;stroke-linejoin:miter;stroke-width:0.8;"/>
   </g>
  </g>
  <g id="axes_2">
   <g id="patch_7">
    <path d="M 40.625 151.396471 
L 375.425 151.396471 
L 375.425 87.443529 
L 40.625 87.443529 
z
" style="fill:#ffffff;"/>
   </g>
   <g id="matplotlib.axis_3">
    <g id="xtick_6">
     <g id="line2d_10">
      <g>
       <use style="stroke:#000000;stroke-width:0.8;" x="55.843182" xlink:href="#m3efe075be9" y="151.396471"/>
      </g>
     </g>
    </g>
    <g id="xtick_7">
     <g id="line2d_11">
      <g>
       <use style="stroke:#000000;stroke-width:0.8;" x="121.299612" xlink:href="#m3efe075be9" y="151.396471"/>
      </g>
     </g>
    </g>
    <g id="xtick_8">
     <g id="line2d_12">
      <g>
       <use style="stroke:#000000;stroke-width:0.8;" x="186.756041" xlink:href="#m3efe075be9" y="151.396471"/>
      </g>
     </g>
    </g>
    <g id="xtick_9">
     <g id="line2d_13">
      <g>
       <use style="stroke:#000000;stroke-width:0.8;" x="252.212471" xlink:href="#m3efe075be9" y="151.396471"/>
      </g>
     </g>
    </g>
    <g id="xtick_10">
     <g id="line2d_14">
      <g>
       <use style="stroke:#000000;stroke-width:0.8;" x="317.668901" xlink:href="#m3efe075be9" y="151.396471"/>
      </g>
     </g>
    </g>
   </g>
   <g id="matplotlib.axis_4">
    <g id="ytick_4">
     <g id="line2d_15">
      <g>
       <use style="stroke:#000000;stroke-width:0.8;" x="40.625" xlink:href="#m248dc3ae52" y="128.387701"/>
      </g>
     </g>
     <g id="text_5">
      <!-- 10 -->
      <g transform="translate(20.9 132.186919)scale(0.1 -0.1)">
       <use xlink:href="#DejaVuSans-31"/>
       <use x="63.623047" xlink:href="#DejaVuSans-30"/>
      </g>
     </g>
    </g>
    <g id="ytick_5">
     <g id="line2d_16">
      <g>
       <use style="stroke:#000000;stroke-width:0.8;" x="40.625" xlink:href="#m248dc3ae52" y="99.111385"/>
      </g>
     </g>
     <g id="text_6">
      <!-- 20 -->
      <defs>
       <path d="M 19.1875 8.296875 
L 53.609375 8.296875 
L 53.609375 0 
L 7.328125 0 
L 7.328125 8.296875 
Q 12.9375 14.109375 22.625 23.890625 
Q 32.328125 33.6875 34.8125 36.53125 
Q 39.546875 41.84375 41.421875 45.53125 
Q 43.3125 49.21875 43.3125 52.78125 
Q 43.3125 58.59375 39.234375 62.25 
Q 35.15625 65.921875 28.609375 65.921875 
Q 23.96875 65.921875 18.8125 64.3125 
Q 13.671875 62.703125 7.8125 59.421875 
L 7.8125 69.390625 
Q 13.765625 71.78125 18.9375 73 
Q 24.125 74.21875 28.421875 74.21875 
Q 39.75 74.21875 46.484375 68.546875 
Q 53.21875 62.890625 53.21875 53.421875 
Q 53.21875 48.921875 51.53125 44.890625 
Q 49.859375 40.875 45.40625 35.40625 
Q 44.1875 33.984375 37.640625 27.21875 
Q 31.109375 20.453125 19.1875 8.296875 
z
" id="DejaVuSans-32"/>
      </defs>
      <g transform="translate(20.9 102.910604)scale(0.1 -0.1)">
       <use xlink:href="#DejaVuSans-32"/>
       <use x="63.623047" xlink:href="#DejaVuSans-30"/>
      </g>
     </g>
    </g>
    <g id="text_7">
     <!-- $y \: [m]$ -->
     <defs>
      <path d="M 24.8125 -5.078125 
Q 18.5625 -15.578125 14.625 -18.1875 
Q 10.6875 -20.796875 4.59375 -20.796875 
L -2.484375 -20.796875 
L -0.984375 -13.28125 
L 4.203125 -13.28125 
Q 7.953125 -13.28125 10.59375 -11.234375 
Q 13.234375 -9.1875 16.5 -3.21875 
L 19.28125 2 
L 7.171875 54.6875 
L 16.703125 54.6875 
L 25.78125 12.796875 
L 50.875 54.6875 
L 60.296875 54.6875 
z
" id="DejaVuSans-Oblique-79"/>
     </defs>
     <g transform="translate(14.8 132.27)rotate(-90)scale(0.1 -0.1)">
      <use transform="translate(0 0.015625)" xlink:href="#DejaVuSans-Oblique-79"/>
      <use transform="translate(80.826606 0.015625)" xlink:href="#DejaVuSans-5b"/>
      <use transform="translate(119.840278 0.015625)" xlink:href="#DejaVuSans-Oblique-6d"/>
      <use transform="translate(217.252388 0.015625)" xlink:href="#DejaVuSans-5d"/>
     </g>
    </g>
   </g>
   <g id="line2d_17">
    <path clip-path="url(#p9c32ea5218)" d="M 55.843182 148.489519 
L 55.843182 148.489519 
L 55.843182 148.489519 
L 55.843596 148.489519 
L 55.84401 148.489519 
L 55.844424 148.489519 
L 55.848564 148.489519 
L 55.852704 148.489518 
L 55.894102 148.489507 
L 55.9355 148.489486 
L 56.349483 148.488335 
L 56.763466 148.486243 
L 58.306236 148.471918 
L 59.849006 148.444549 
L 61.391777 148.404176 
L 72.885497 147.704419 
L 82.025754 146.673865 
L 84.507219 146.328132 
L 84.635221 146.309628 
L 84.763223 146.2911 
L 84.891224 146.272547 
L 85.019226 146.253971 
L 85.275229 146.216771 
L 85.531232 146.179477 
L 85.787236 146.142087 
L 88.347269 145.763009 
L 90.907302 145.374642 
L 93.467335 144.97717 
L 96.027368 144.570784 
L 108.208326 142.521622 
L 121.982591 139.994799 
L 122.337484 139.926777 
L 122.692377 139.858539 
L 123.04727 139.790086 
L 123.402162 139.72142 
L 124.111948 139.583668 
L 124.821733 139.445084 
L 125.531519 139.305684 
L 132.629373 137.870259 
L 134.390898 137.503517 
L 139.869185 136.340684 
L 140.011142 136.310172 
L 140.1531 136.279658 
L 140.295057 136.249142 
L 140.437014 136.218623 
L 140.720928 136.15758 
L 141.004842 136.096528 
L 141.288756 136.035466 
L 144.127898 135.42432 
L 146.96704 134.81223 
L 149.806182 134.199215 
L 160.57347 131.866765 
L 176.65298 128.361674 
L 176.836878 128.321475 
L 177.020776 128.281294 
L 177.204674 128.24113 
L 177.388572 128.200985 
L 177.756368 128.120731 
L 178.124164 128.04055 
L 178.49196 127.960445 
L 182.169922 127.164041 
L 185.847884 126.376706 
L 186.756041 126.183795 
L 189.769468 125.548507 
L 190.01309 125.497358 
L 190.256713 125.446201 
L 190.500335 125.395035 
L 190.743957 125.34386 
L 191.231202 125.241494 
L 191.718447 125.139092 
L 192.205692 125.036656 
L 197.078139 124.010423 
L 201.950586 122.980828 
L 206.823034 121.947956 
L 212.938613 120.649033 
L 239.121185 115.043071 
L 251.152649 112.4274 
L 251.587122 112.332972 
L 255.931855 111.390134 
L 260.276587 110.448773 
L 265.303757 109.360658 
L 291.486329 103.727512 
L 299.5574 102.005581 
L 299.58814 101.999024 
L 299.649619 101.985913 
L 299.711099 101.972806 
L 300.325892 101.841877 
L 300.940686 101.711246 
L 301.55548 101.58092 
L 307.703419 100.295812 
L 313.851358 99.048218 
L 317.668901 98.295119 
L 320.122256 97.820691 
L 320.245215 97.797098 
L 320.368174 97.773508 
L 320.491132 97.749923 
L 320.614091 97.726341 
L 320.860009 97.679187 
L 321.105926 97.632049 
L 321.351844 97.584927 
L 323.811019 97.114604 
L 326.270195 96.645924 
L 328.729371 96.178904 
L 331.188546 95.713557 
L 343.851473 93.344442 
L 356.272137 91.066111 
L 356.763972 90.976708 
L 357.255807 90.88729 
L 357.747643 90.797856 
L 358.239478 90.708406 
L 359.223148 90.529475 
L 360.206818 90.350481 
" style="fill:none;stroke:#000000;stroke-linecap:square;stroke-width:1.5;"/>
   </g>
   <g id="patch_8">
    <path d="M 40.625 151.396471 
L 40.625 87.443529 
" style="fill:none;stroke:#000000;stroke-linecap:square;stroke-linejoin:miter;stroke-width:0.8;"/>
   </g>
   <g id="patch_9">
    <path d="M 375.425 151.396471 
L 375.425 87.443529 
" style="fill:none;stroke:#000000;stroke-linecap:square;stroke-linejoin:miter;stroke-width:0.8;"/>
   </g>
   <g id="patch_10">
    <path d="M 40.625 151.396471 
L 375.425 151.396471 
" style="fill:none;stroke:#000000;stroke-linecap:square;stroke-linejoin:miter;stroke-width:0.8;"/>
   </g>
   <g id="patch_11">
    <path d="M 40.625 87.443529 
L 375.425 87.443529 
" style="fill:none;stroke:#000000;stroke-linecap:square;stroke-linejoin:miter;stroke-width:0.8;"/>
   </g>
  </g>
  <g id="axes_3">
   <g id="patch_12">
    <path d="M 40.625 228.14 
L 375.425 228.14 
L 375.425 164.187059 
L 40.625 164.187059 
z
" style="fill:#ffffff;"/>
   </g>
   <g id="matplotlib.axis_5">
    <g id="xtick_11">
     <g id="line2d_18">
      <g>
       <use style="stroke:#000000;stroke-width:0.8;" x="55.843182" xlink:href="#m3efe075be9" y="228.14"/>
      </g>
     </g>
     <g id="text_8">
      <!-- 0 -->
      <g transform="translate(52.661932 242.738437)scale(0.1 -0.1)">
       <use xlink:href="#DejaVuSans-30"/>
      </g>
     </g>
    </g>
    <g id="xtick_12">
     <g id="line2d_19">
      <g>
       <use style="stroke:#000000;stroke-width:0.8;" x="121.299612" xlink:href="#m3efe075be9" y="228.14"/>
      </g>
     </g>
     <g id="text_9">
      <!-- 5 -->
      <g transform="translate(118.118362 242.738437)scale(0.1 -0.1)">
       <use xlink:href="#DejaVuSans-35"/>
      </g>
     </g>
    </g>
    <g id="xtick_13">
     <g id="line2d_20">
      <g>
       <use style="stroke:#000000;stroke-width:0.8;" x="186.756041" xlink:href="#m3efe075be9" y="228.14"/>
      </g>
     </g>
     <g id="text_10">
      <!-- 10 -->
      <g transform="translate(180.393541 242.738437)scale(0.1 -0.1)">
       <use xlink:href="#DejaVuSans-31"/>
       <use x="63.623047" xlink:href="#DejaVuSans-30"/>
      </g>
     </g>
    </g>
    <g id="xtick_14">
     <g id="line2d_21">
      <g>
       <use style="stroke:#000000;stroke-width:0.8;" x="252.212471" xlink:href="#m3efe075be9" y="228.14"/>
      </g>
     </g>
     <g id="text_11">
      <!-- 15 -->
      <g transform="translate(245.849971 242.738437)scale(0.1 -0.1)">
       <use xlink:href="#DejaVuSans-31"/>
       <use x="63.623047" xlink:href="#DejaVuSans-35"/>
      </g>
     </g>
    </g>
    <g id="xtick_15">
     <g id="line2d_22">
      <g>
       <use style="stroke:#000000;stroke-width:0.8;" x="317.668901" xlink:href="#m3efe075be9" y="228.14"/>
      </g>
     </g>
     <g id="text_12">
      <!-- 20 -->
      <g transform="translate(311.306401 242.738437)scale(0.1 -0.1)">
       <use xlink:href="#DejaVuSans-32"/>
       <use x="63.623047" xlink:href="#DejaVuSans-30"/>
      </g>
     </g>
    </g>
    <g id="text_13">
     <!-- $t \: [s]$ -->
     <defs>
      <path d="M 42.28125 54.6875 
L 40.921875 47.703125 
L 23 47.703125 
L 17.1875 18.015625 
Q 16.890625 16.359375 16.75 15.234375 
Q 16.609375 14.109375 16.609375 13.484375 
Q 16.609375 10.359375 18.484375 8.9375 
Q 20.359375 7.515625 24.515625 7.515625 
L 33.59375 7.515625 
L 32.078125 0 
L 23.484375 0 
Q 15.484375 0 11.546875 3.125 
Q 7.625 6.25 7.625 12.59375 
Q 7.625 13.71875 7.765625 15.0625 
Q 7.90625 16.40625 8.203125 18.015625 
L 14.015625 47.703125 
L 6.390625 47.703125 
L 7.8125 54.6875 
L 15.28125 54.6875 
L 18.3125 70.21875 
L 27.296875 70.21875 
L 24.3125 54.6875 
z
" id="DejaVuSans-Oblique-74"/>
      <path d="M 50 53.078125 
L 48.296875 44.578125 
Q 44.734375 46.53125 40.765625 47.5 
Q 36.8125 48.484375 32.625 48.484375 
Q 25.53125 48.484375 21.453125 46.0625 
Q 17.390625 43.65625 17.390625 39.5 
Q 17.390625 34.671875 26.859375 32.078125 
Q 27.59375 31.890625 27.9375 31.78125 
L 30.8125 30.90625 
Q 39.796875 28.421875 42.796875 25.6875 
Q 45.796875 22.953125 45.796875 18.21875 
Q 45.796875 9.515625 38.890625 4.046875 
Q 31.984375 -1.421875 20.796875 -1.421875 
Q 16.453125 -1.421875 11.671875 -0.578125 
Q 6.890625 0.25 1.125 2 
L 2.875 11.28125 
Q 7.8125 8.734375 12.59375 7.421875 
Q 17.390625 6.109375 21.78125 6.109375 
Q 28.375 6.109375 32.5 8.9375 
Q 36.625 11.765625 36.625 16.109375 
Q 36.625 20.796875 25.78125 23.6875 
L 24.859375 23.921875 
L 21.78125 24.703125 
Q 14.9375 26.515625 11.765625 29.46875 
Q 8.59375 32.421875 8.59375 37.015625 
Q 8.59375 45.75 15.15625 50.875 
Q 21.734375 56 33.015625 56 
Q 37.453125 56 41.671875 55.265625 
Q 45.90625 54.546875 50 53.078125 
z
" id="DejaVuSans-Oblique-73"/>
     </defs>
     <g transform="translate(198.475 256.416562)scale(0.1 -0.1)">
      <use transform="translate(0 0.015625)" xlink:href="#DejaVuSans-Oblique-74"/>
      <use transform="translate(60.855903 0.015625)" xlink:href="#DejaVuSans-5b"/>
      <use transform="translate(99.869575 0.015625)" xlink:href="#DejaVuSans-Oblique-73"/>
      <use transform="translate(151.969185 0.015625)" xlink:href="#DejaVuSans-5d"/>
     </g>
    </g>
   </g>
   <g id="matplotlib.axis_6">
    <g id="ytick_6">
     <g id="line2d_23">
      <g>
       <use style="stroke:#000000;stroke-width:0.8;" x="40.625" xlink:href="#m248dc3ae52" y="225.233048"/>
      </g>
     </g>
     <g id="text_14">
      <!-- 0 -->
      <g transform="translate(27.2625 229.032267)scale(0.1 -0.1)">
       <use xlink:href="#DejaVuSans-30"/>
      </g>
     </g>
    </g>
    <g id="ytick_7">
     <g id="line2d_24">
      <g>
       <use style="stroke:#000000;stroke-width:0.8;" x="40.625" xlink:href="#m248dc3ae52" y="182.859453"/>
      </g>
     </g>
     <g id="text_15">
      <!-- 1 -->
      <g transform="translate(27.2625 186.658672)scale(0.1 -0.1)">
       <use xlink:href="#DejaVuSans-31"/>
      </g>
     </g>
    </g>
    <g id="text_16">
     <!-- $\theta \: [rad]$ -->
     <defs>
      <path d="M 45.515625 34.671875 
L 14.453125 34.671875 
Q 12.359375 20.0625 14.5 13.875 
Q 17.1875 6.25 24.46875 6.25 
Q 31.78125 6.25 37.359375 13.921875 
Q 42.234375 20.65625 45.515625 34.671875 
z
M 47.015625 42.96875 
Q 48.34375 56.84375 46.625 61.71875 
Q 43.953125 69.4375 36.765625 69.4375 
Q 29.296875 69.4375 23.828125 61.8125 
Q 19.53125 55.671875 16.15625 42.96875 
z
M 38.1875 76.765625 
Q 49.90625 76.765625 54.59375 66.40625 
Q 59.28125 56.109375 55.71875 37.84375 
Q 52.203125 19.625 43.453125 9.28125 
Q 34.765625 -1.125 23.046875 -1.125 
Q 11.28125 -1.125 6.640625 9.28125 
Q 2 19.625 5.515625 37.84375 
Q 9.078125 56.109375 17.71875 66.40625 
Q 26.421875 76.765625 38.1875 76.765625 
z
" id="DejaVuSans-Oblique-3b8"/>
      <path d="M 44.578125 46.390625 
Q 43.21875 47.125 41.453125 47.515625 
Q 39.703125 47.90625 37.703125 47.90625 
Q 30.515625 47.90625 25.140625 42.453125 
Q 19.78125 37.015625 18.015625 27.875 
L 12.5 0 
L 3.515625 0 
L 14.203125 54.6875 
L 23.1875 54.6875 
L 21.484375 46.1875 
Q 25.046875 50.921875 30 53.453125 
Q 34.96875 56 40.578125 56 
Q 42.046875 56 43.453125 55.828125 
Q 44.875 55.671875 46.296875 55.28125 
z
" id="DejaVuSans-Oblique-72"/>
      <path d="M 53.71875 31.203125 
L 47.609375 0 
L 38.625 0 
L 40.28125 8.296875 
Q 36.328125 3.421875 31.265625 1 
Q 26.21875 -1.421875 20.015625 -1.421875 
Q 13.03125 -1.421875 8.5625 2.84375 
Q 4.109375 7.125 4.109375 13.8125 
Q 4.109375 23.390625 11.75 28.953125 
Q 19.390625 34.515625 32.8125 34.515625 
L 45.3125 34.515625 
L 45.796875 36.921875 
Q 45.90625 37.3125 45.953125 37.765625 
Q 46 38.234375 46 39.203125 
Q 46 43.5625 42.453125 45.96875 
Q 38.921875 48.390625 32.515625 48.390625 
Q 28.125 48.390625 23.5 47.265625 
Q 18.890625 46.140625 14.015625 43.890625 
L 15.578125 52.203125 
Q 20.65625 54.109375 25.515625 55.046875 
Q 30.375 56 34.90625 56 
Q 44.578125 56 49.625 51.796875 
Q 54.6875 47.609375 54.6875 39.59375 
Q 54.6875 37.984375 54.4375 35.8125 
Q 54.203125 33.640625 53.71875 31.203125 
z
M 44 27.484375 
L 35.015625 27.484375 
Q 23.96875 27.484375 18.671875 24.53125 
Q 13.375 21.578125 13.375 15.375 
Q 13.375 11.078125 16.078125 8.640625 
Q 18.796875 6.203125 23.578125 6.203125 
Q 30.90625 6.203125 36.375 11.453125 
Q 41.84375 16.703125 43.609375 25.484375 
z
" id="DejaVuSans-Oblique-61"/>
      <path d="M 41.796875 8.203125 
Q 38.1875 3.46875 33.25 1.015625 
Q 28.328125 -1.421875 22.3125 -1.421875 
Q 14.109375 -1.421875 9.34375 4.171875 
Q 4.59375 9.765625 4.59375 19.484375 
Q 4.59375 27.59375 7.46875 34.9375 
Q 10.359375 42.28125 15.828125 48.09375 
Q 19.4375 51.953125 23.96875 53.96875 
Q 28.515625 56 33.5 56 
Q 38.765625 56 42.796875 53.453125 
Q 46.828125 50.921875 49.03125 46.1875 
L 54.890625 75.984375 
L 63.921875 75.984375 
L 49.125 0 
L 40.09375 0 
z
M 13.921875 21.09375 
Q 13.921875 14.015625 17.109375 10.0625 
Q 20.3125 6.109375 25.984375 6.109375 
Q 30.171875 6.109375 33.765625 8.125 
Q 37.359375 10.15625 40.09375 14.109375 
Q 42.96875 18.21875 44.625 23.578125 
Q 46.296875 28.953125 46.296875 34.1875 
Q 46.296875 40.96875 43.09375 44.765625 
Q 39.890625 48.578125 34.28125 48.578125 
Q 30.03125 48.578125 26.359375 46.578125 
Q 22.703125 44.578125 20.125 40.828125 
Q 17.28125 36.765625 15.59375 31.390625 
Q 13.921875 26.03125 13.921875 21.09375 
z
" id="DejaVuSans-Oblique-64"/>
     </defs>
     <g transform="translate(21.182813 212.513529)rotate(-90)scale(0.1 -0.1)">
      <use transform="translate(0 0.234375)" xlink:href="#DejaVuSans-Oblique-3b8"/>
      <use transform="translate(82.82856 0.234375)" xlink:href="#DejaVuSans-5b"/>
      <use transform="translate(121.842231 0.234375)" xlink:href="#DejaVuSans-Oblique-72"/>
      <use transform="translate(162.955513 0.234375)" xlink:href="#DejaVuSans-Oblique-61"/>
      <use transform="translate(224.23481 0.234375)" xlink:href="#DejaVuSans-Oblique-64"/>
      <use transform="translate(287.711372 0.234375)" xlink:href="#DejaVuSans-5d"/>
     </g>
    </g>
   </g>
   <g id="line2d_25">
    <path clip-path="url(#p709117f04e)" d="M 55.843182 225.233048 
L 55.843182 225.233048 
L 55.843182 225.233048 
L 55.843596 225.232617 
L 55.84401 225.232187 
L 55.844424 225.231756 
L 55.848564 225.227448 
L 55.852704 225.223141 
L 55.894102 225.180065 
L 55.9355 225.13699 
L 56.349483 224.706234 
L 56.763466 224.275479 
L 58.306236 222.670203 
L 59.849006 221.064927 
L 61.391777 219.459651 
L 72.885497 207.50026 
L 82.025754 197.989684 
L 84.507219 195.494538 
L 84.635221 195.448207 
L 84.763223 195.401876 
L 84.891224 195.355545 
L 85.019226 195.309214 
L 85.275229 195.216552 
L 85.531232 195.123889 
L 85.787236 195.031227 
L 88.347269 194.104605 
L 90.907302 193.177983 
L 93.467335 192.251361 
L 96.027368 191.324739 
L 108.208326 186.915756 
L 121.982591 181.832903 
L 122.337484 181.607286 
L 122.692377 181.381669 
L 123.04727 181.156052 
L 123.402162 180.930434 
L 124.111948 180.4792 
L 124.821733 180.027966 
L 125.531519 179.576731 
L 132.629373 175.064388 
L 134.390898 173.944528 
L 139.869185 170.540301 
L 140.011142 170.528558 
L 140.1531 170.516814 
L 140.295057 170.50507 
L 140.437014 170.493327 
L 140.720928 170.46984 
L 141.004842 170.446353 
L 141.288756 170.422866 
L 144.127898 170.187995 
L 146.96704 169.953124 
L 149.806182 169.718253 
L 160.57347 168.827519 
L 176.65298 167.598439 
L 176.836878 167.68434 
L 177.020776 167.77024 
L 177.204674 167.85614 
L 177.388572 167.942041 
L 177.756368 168.113841 
L 178.124164 168.285642 
L 178.49196 168.457443 
L 182.169922 170.175449 
L 185.847884 171.893456 
L 186.756041 172.317663 
L 189.769468 173.591706 
L 190.01309 173.57195 
L 190.256713 173.552193 
L 190.500335 173.532437 
L 190.743957 173.512681 
L 191.231202 173.473169 
L 191.718447 173.433656 
L 192.205692 173.394144 
L 197.078139 172.99902 
L 201.950586 172.603896 
L 206.823034 172.208772 
L 212.938613 171.712838 
L 239.121185 167.094011 
L 251.152649 168.723119 
L 251.587122 168.749438 
L 255.931855 169.012625 
L 260.276587 169.275812 
L 265.303757 169.580339 
L 291.486329 173.745067 
L 299.5574 171.589232 
L 299.58814 171.604142 
L 299.649619 171.633962 
L 299.711099 171.663781 
L 300.325892 171.961977 
L 300.940686 172.260174 
L 301.55548 172.55837 
L 307.703419 175.540331 
L 313.851358 178.522293 
L 317.668901 180.373932 
L 320.122256 181.516413 
L 320.245215 181.528571 
L 320.368174 181.540729 
L 320.491132 181.552887 
L 320.614091 181.565045 
L 320.860009 181.589361 
L 321.105926 181.613677 
L 321.351844 181.637993 
L 323.811019 181.881152 
L 326.270195 182.124312 
L 328.729371 182.367472 
L 331.188546 182.610631 
L 343.851473 183.862723 
L 356.272137 185.031784 
L 356.763972 185.02134 
L 357.255807 185.010896 
L 357.747643 185.000452 
L 358.239478 184.990008 
L 359.223148 184.969119 
L 360.206818 184.948231 
" style="fill:none;stroke:#000000;stroke-linecap:square;stroke-width:1.5;"/>
   </g>
   <g id="patch_13">
    <path d="M 40.625 228.14 
L 40.625 164.187059 
" style="fill:none;stroke:#000000;stroke-linecap:square;stroke-linejoin:miter;stroke-width:0.8;"/>
   </g>
   <g id="patch_14">
    <path d="M 375.425 228.14 
L 375.425 164.187059 
" style="fill:none;stroke:#000000;stroke-linecap:square;stroke-linejoin:miter;stroke-width:0.8;"/>
   </g>
   <g id="patch_15">
    <path d="M 40.625 228.14 
L 375.425 228.14 
" style="fill:none;stroke:#000000;stroke-linecap:square;stroke-linejoin:miter;stroke-width:0.8;"/>
   </g>
   <g id="patch_16">
    <path d="M 40.625 164.187059 
L 375.425 164.187059 
" style="fill:none;stroke:#000000;stroke-linecap:square;stroke-linejoin:miter;stroke-width:0.8;"/>
   </g>
  </g>
 </g>
 <defs>
  <clipPath id="p5c96df442f">
   <rect height="63.952941" width="334.8" x="40.625" y="10.7"/>
  </clipPath>
  <clipPath id="p9c32ea5218">
   <rect height="63.952941" width="334.8" x="40.625" y="87.443529"/>
  </clipPath>
  <clipPath id="p709117f04e">
   <rect height="63.952941" width="334.8" x="40.625" y="164.187059"/>
  </clipPath>
 </defs>
</svg>
