<?xml version="1.0" encoding="utf-8" standalone="no"?>
<!DOCTYPE svg PUBLIC "-//W3C//DTD SVG 1.1//EN"
  "http://www.w3.org/Graphics/SVG/1.1/DTD/svg11.dtd">
<!-- Created with matplotlib (http://matplotlib.org/) -->
<svg height="270.76825pt" version="1.1" viewBox="0 0 386.853906 270.76825" width="386.853906pt" xmlns="http://www.w3.org/2000/svg" xmlns:xlink="http://www.w3.org/1999/xlink">
 <defs>
  <style type="text/css">
*{stroke-linecap:butt;stroke-linejoin:round;}
  </style>
 </defs>
 <g id="figure_1">
  <g id="patch_1">
   <path d="M 0 270.76825 
L 386.853906 270.76825 
L 386.853906 0 
L 0 0 
z
" style="fill:#ffffff;"/>
  </g>
  <g id="axes_1">
   <g id="patch_2">
    <path d="M 40.625 233.212 
L 375.425 233.212 
L 375.425 32.332 
L 40.625 32.332 
z
" style="fill:#ffffff;"/>
   </g>
   <g id="patch_3">
    <path clip-path="url(#pdb3b40500e)" d="M 180.940925 123.31465 
L 183.188477 134.157066 
L 190.056386 143.139679 
L 199.810408 136.924723 
L 209.211552 135.663353 
L 203.444363 126.803384 
L 208.830215 115.444005 
L 198.225275 112.895577 
L 193.129813 121.862158 
L 181.953734 123.572328 
z
" style="fill:#808080;opacity:0.6;stroke:#000000;stroke-linejoin:miter;"/>
   </g>
   <g id="patch_4">
    <path clip-path="url(#pdb3b40500e)" d="M 120.879087 103.108428 
L 132.664024 103.368189 
L 140.08836 111.007499 
L 147.046201 103.720846 
L 147.008429 95.091144 
L 146.057752 86.091884 
L 136.859091 87.39598 
L 130.25471 87.675385 
L 120.007966 91.704883 
L 129.347214 99.170977 
z
" style="fill:#808080;opacity:0.6;stroke:#000000;stroke-linejoin:miter;"/>
   </g>
   <g id="patch_5">
    <path clip-path="url(#pdb3b40500e)" d="M 299.639199 197.411794 
L 295.982014 188.118619 
L 287.044672 192.89017 
L 277.314882 194.149882 
L 272.554466 204.478051 
L 278.075265 215.056543 
L 289.420986 212.038129 
L 295.538288 209.797453 
L 296.376642 203.842667 
L 305.318937 194.520974 
z
" style="fill:#808080;opacity:0.6;stroke:#000000;stroke-linejoin:miter;"/>
   </g>
   <g id="patch_6">
    <path clip-path="url(#pdb3b40500e)" d="M 223.639602 173.163578 
L 220.514103 184.627439 
L 209.348632 188.881106 
L 218.582272 195.185009 
L 224.244311 197.187165 
L 228.929578 195.230989 
L 236.852292 193.95172 
L 238.450279 185.449397 
L 230.869846 181.578879 
L 223.870296 174.832543 
z
" style="fill:#808080;opacity:0.6;stroke:#000000;stroke-linejoin:miter;"/>
   </g>
   <g id="patch_7">
    <path clip-path="url(#pdb3b40500e)" d="M 147.993733 215.291093 
L 155.262848 213.50024 
L 166.101377 221.936867 
L 172.530257 211.754178 
L 171.174836 200.052932 
L 158.523085 201.313881 
L 152.838828 196.923412 
L 149.536793 203.140254 
L 137.887717 209.123358 
L 143.116467 220.251778 
z
" style="fill:#808080;opacity:0.6;stroke:#000000;stroke-linejoin:miter;"/>
   </g>
   <g id="patch_8">
    <path clip-path="url(#pdb3b40500e)" d="M 284.763499 68.109172 
L 292.851405 65.615975 
L 296.392002 60.122032 
L 301.451716 54.350934 
L 293.878974 51.406512 
L 290.030888 49.27556 
L 279.301433 42.387948 
L 282.931538 54.437876 
L 274.992626 63.678808 
L 283.85422 70.324828 
z
" style="fill:#808080;opacity:0.6;stroke:#000000;stroke-linejoin:miter;"/>
   </g>
   <g id="patch_9">
    <path clip-path="url(#pdb3b40500e)" d="M 157.221495 133.437489 
L 145.82316 136.070724 
L 144.939752 147.208126 
L 138.438306 156.314276 
L 147.054122 162.952527 
L 155.321677 156.947759 
L 164.762691 159.442955 
L 165.609031 150.578587 
L 161.43316 144.508189 
L 157.185324 133.642597 
z
" style="fill:#808080;opacity:0.6;stroke:#000000;stroke-linejoin:miter;"/>
   </g>
   <g id="patch_10">
    <path clip-path="url(#pdb3b40500e)" d="M 248.828195 158.628124 
L 257.299122 157.39991 
L 263.449488 155.40678 
L 269.096922 149.934362 
L 271.399491 139.244422 
L 261.703924 133.798109 
L 252.513801 137.071055 
L 245.915755 142.298712 
L 249.732714 149.743406 
L 250.851268 156.047612 
z
" style="fill:#808080;opacity:0.6;stroke:#000000;stroke-linejoin:miter;"/>
   </g>
   <g id="patch_11">
    <path clip-path="url(#pdb3b40500e)" d="M 214.482795 80.324527 
L 218.515902 71.560215 
L 211.868746 65.3125 
L 207.610901 62.197163 
L 201.034189 58.414066 
L 196.753828 64.567183 
L 193.188341 71.485651 
L 197.289528 78.730938 
L 205.19518 83.745684 
L 213.56111 79.242632 
z
" style="fill:#808080;opacity:0.6;stroke:#000000;stroke-linejoin:miter;"/>
   </g>
   <g id="patch_12">
    <path clip-path="url(#pdb3b40500e)" d="M 305.392849 170.100126 
L 316.723672 168.684078 
L 313.602662 157.802857 
L 308.950624 151.633999 
L 302.244177 149.923042 
L 292.992186 148.054478 
L 285.719642 156.032691 
L 292.755062 164.344889 
L 297.603085 170.181353 
L 304.609271 167.697618 
z
" style="fill:#808080;opacity:0.6;stroke:#000000;stroke-linejoin:miter;"/>
   </g>
   <g id="patch_13">
    <path clip-path="url(#pdb3b40500e)" d="M 291.905605 93.02408 
L 281.140877 88.5835 
L 278.291793 98.953778 
L 284.638584 105.582365 
L 286.864737 116.136834 
L 294.263065 106.945108 
L 298.698615 104.839824 
L 305.66363 98.50569 
L 297.47481 94.443035 
L 291.779903 85.481953 
z
" style="fill:#808080;opacity:0.6;stroke:#000000;stroke-linejoin:miter;"/>
   </g>
   <g id="patch_14">
    <path clip-path="url(#pdb3b40500e)" d="M 119.95455 165.345541 
L 120.955315 157.500761 
L 118.557692 151.698087 
L 114.738297 145.077811 
L 106.624322 145.58202 
L 98.213944 149.976378 
L 97.079442 160.007485 
L 101.869113 169.559115 
L 112.260155 168.780879 
L 118.157006 163.473313 
z
" style="fill:#808080;opacity:0.6;stroke:#000000;stroke-linejoin:miter;"/>
   </g>
   <g id="patch_15">
    <path clip-path="url(#pdb3b40500e)" d="M 241.895364 98.212937 
L 235.184138 91.28874 
L 226.435191 96.219988 
L 221.472681 106.8755 
L 228.679954 116.316484 
L 238.911571 120.495686 
L 243.528107 109.518814 
L 251.37432 106.824531 
L 254.675666 96.176274 
L 243.23775 94.871402 
z
" style="fill:#808080;opacity:0.6;stroke:#000000;stroke-linejoin:miter;"/>
   </g>
   <g id="patch_16">
    <path clip-path="url(#pdb3b40500e)" d="M 117.647221 48.798158 
L 110.534956 49.457123 
L 102.672937 49.387179 
L 99.912798 57.009663 
L 100.441178 65.660896 
L 107.303992 73.330494 
L 116.189569 68.200963 
L 125.73028 64.548979 
L 126.380268 53.808338 
L 118.342863 47.791797 
z
" style="fill:#808080;opacity:0.6;stroke:#000000;stroke-linejoin:miter;"/>
   </g>
   <g id="patch_17">
    <path clip-path="url(#pdb3b40500e)" d="M 250.15423 72.990876 
L 258.35342 66.432947 
L 259.41561 56.801218 
L 257.661783 46.813466 
L 247.012619 51.58529 
L 241.272233 50.129419 
L 237.935987 55.268806 
L 234.018253 63.173478 
L 238.896019 72.954265 
L 249.181577 69.067977 
z
" style="fill:#808080;opacity:0.6;stroke:#000000;stroke-linejoin:miter;"/>
   </g>
   <g id="patch_18">
    <path clip-path="url(#pdb3b40500e)" d="M 177.967344 50.968812 
L 168.054064 47.092896 
L 161.318109 50.40251 
L 148.380092 45.744791 
L 153.622855 57.317994 
L 153.634373 65.122 
L 160.710452 70.659085 
L 169.847143 68.626201 
L 168.818998 59.072732 
L 176.949928 51.373792 
z
" style="fill:#808080;opacity:0.6;stroke:#000000;stroke-linejoin:miter;"/>
   </g>
   <g id="patch_19">
    <path clip-path="url(#pdb3b40500e)" d="M 107.845872 222.329312 
L 119.375804 219.399603 
L 123.053 209.70313 
L 123.434461 201.98058 
L 119.647919 194.987042 
L 112.165955 198.285758 
L 100.58479 192.497882 
L 97.584597 203.344771 
L 101.067173 212.787203 
L 110.715943 211.921723 
z
" style="fill:#808080;opacity:0.6;stroke:#000000;stroke-linejoin:miter;"/>
   </g>
   <g id="matplotlib.axis_1">
    <g id="xtick_1">
     <g id="line2d_1">
      <defs>
       <path d="M 0 0 
L 0 3.5 
" id="m17de1d5e11" style="stroke:#000000;stroke-width:0.8;"/>
      </defs>
      <g>
       <use style="stroke:#000000;stroke-width:0.8;" x="55.843182" xlink:href="#m17de1d5e11" y="233.212"/>
      </g>
     </g>
     <g id="text_1">
      <!-- 0 -->
      <defs>
       <path d="M 31.78125 66.40625 
Q 24.171875 66.40625 20.328125 58.90625 
Q 16.5 51.421875 16.5 36.375 
Q 16.5 21.390625 20.328125 13.890625 
Q 24.171875 6.390625 31.78125 6.390625 
Q 39.453125 6.390625 43.28125 13.890625 
Q 47.125 21.390625 47.125 36.375 
Q 47.125 51.421875 43.28125 58.90625 
Q 39.453125 66.40625 31.78125 66.40625 
z
M 31.78125 74.21875 
Q 44.046875 74.21875 50.515625 64.515625 
Q 56.984375 54.828125 56.984375 36.375 
Q 56.984375 17.96875 50.515625 8.265625 
Q 44.046875 -1.421875 31.78125 -1.421875 
Q 19.53125 -1.421875 13.0625 8.265625 
Q 6.59375 17.96875 6.59375 36.375 
Q 6.59375 54.828125 13.0625 64.515625 
Q 19.53125 74.21875 31.78125 74.21875 
z
" id="DejaVuSans-30"/>
      </defs>
      <g transform="translate(52.661932 247.810438)scale(0.1 -0.1)">
       <use xlink:href="#DejaVuSans-30"/>
      </g>
     </g>
    </g>
    <g id="xtick_2">
     <g id="line2d_2">
      <g>
       <use style="stroke:#000000;stroke-width:0.8;" x="116.715909" xlink:href="#m17de1d5e11" y="233.212"/>
      </g>
     </g>
     <g id="text_2">
      <!-- 10 -->
      <defs>
       <path d="M 12.40625 8.296875 
L 28.515625 8.296875 
L 28.515625 63.921875 
L 10.984375 60.40625 
L 10.984375 69.390625 
L 28.421875 72.90625 
L 38.28125 72.90625 
L 38.28125 8.296875 
L 54.390625 8.296875 
L 54.390625 0 
L 12.40625 0 
z
" id="DejaVuSans-31"/>
      </defs>
      <g transform="translate(110.353409 247.810438)scale(0.1 -0.1)">
       <use xlink:href="#DejaVuSans-31"/>
       <use x="63.623047" xlink:href="#DejaVuSans-30"/>
      </g>
     </g>
    </g>
    <g id="xtick_3">
     <g id="line2d_3">
      <g>
       <use style="stroke:#000000;stroke-width:0.8;" x="177.588636" xlink:href="#m17de1d5e11" y="233.212"/>
      </g>
     </g>
     <g id="text_3">
      <!-- 20 -->
      <defs>
       <path d="M 19.1875 8.296875 
L 53.609375 8.296875 
L 53.609375 0 
L 7.328125 0 
L 7.328125 8.296875 
Q 12.9375 14.109375 22.625 23.890625 
Q 32.328125 33.6875 34.8125 36.53125 
Q 39.546875 41.84375 41.421875 45.53125 
Q 43.3125 49.21875 43.3125 52.78125 
Q 43.3125 58.59375 39.234375 62.25 
Q 35.15625 65.921875 28.609375 65.921875 
Q 23.96875 65.921875 18.8125 64.3125 
Q 13.671875 62.703125 7.8125 59.421875 
L 7.8125 69.390625 
Q 13.765625 71.78125 18.9375 73 
Q 24.125 74.21875 28.421875 74.21875 
Q 39.75 74.21875 46.484375 68.546875 
Q 53.21875 62.890625 53.21875 53.421875 
Q 53.21875 48.921875 51.53125 44.890625 
Q 49.859375 40.875 45.40625 35.40625 
Q 44.1875 33.984375 37.640625 27.21875 
Q 31.109375 20.453125 19.1875 8.296875 
z
" id="DejaVuSans-32"/>
      </defs>
      <g transform="translate(171.226136 247.810438)scale(0.1 -0.1)">
       <use xlink:href="#DejaVuSans-32"/>
       <use x="63.623047" xlink:href="#DejaVuSans-30"/>
      </g>
     </g>
    </g>
    <g id="xtick_4">
     <g id="line2d_4">
      <g>
       <use style="stroke:#000000;stroke-width:0.8;" x="238.461364" xlink:href="#m17de1d5e11" y="233.212"/>
      </g>
     </g>
     <g id="text_4">
      <!-- 30 -->
      <defs>
       <path d="M 40.578125 39.3125 
Q 47.65625 37.796875 51.625 33 
Q 55.609375 28.21875 55.609375 21.1875 
Q 55.609375 10.40625 48.1875 4.484375 
Q 40.765625 -1.421875 27.09375 -1.421875 
Q 22.515625 -1.421875 17.65625 -0.515625 
Q 12.796875 0.390625 7.625 2.203125 
L 7.625 11.71875 
Q 11.71875 9.328125 16.59375 8.109375 
Q 21.484375 6.890625 26.8125 6.890625 
Q 36.078125 6.890625 40.9375 10.546875 
Q 45.796875 14.203125 45.796875 21.1875 
Q 45.796875 27.640625 41.28125 31.265625 
Q 36.765625 34.90625 28.71875 34.90625 
L 20.21875 34.90625 
L 20.21875 43.015625 
L 29.109375 43.015625 
Q 36.375 43.015625 40.234375 45.921875 
Q 44.09375 48.828125 44.09375 54.296875 
Q 44.09375 59.90625 40.109375 62.90625 
Q 36.140625 65.921875 28.71875 65.921875 
Q 24.65625 65.921875 20.015625 65.03125 
Q 15.375 64.15625 9.8125 62.3125 
L 9.8125 71.09375 
Q 15.4375 72.65625 20.34375 73.4375 
Q 25.25 74.21875 29.59375 74.21875 
Q 40.828125 74.21875 47.359375 69.109375 
Q 53.90625 64.015625 53.90625 55.328125 
Q 53.90625 49.265625 50.4375 45.09375 
Q 46.96875 40.921875 40.578125 39.3125 
z
" id="DejaVuSans-33"/>
      </defs>
      <g transform="translate(232.098864 247.810438)scale(0.1 -0.1)">
       <use xlink:href="#DejaVuSans-33"/>
       <use x="63.623047" xlink:href="#DejaVuSans-30"/>
      </g>
     </g>
    </g>
    <g id="xtick_5">
     <g id="line2d_5">
      <g>
       <use style="stroke:#000000;stroke-width:0.8;" x="299.334091" xlink:href="#m17de1d5e11" y="233.212"/>
      </g>
     </g>
     <g id="text_5">
      <!-- 40 -->
      <defs>
       <path d="M 37.796875 64.3125 
L 12.890625 25.390625 
L 37.796875 25.390625 
z
M 35.203125 72.90625 
L 47.609375 72.90625 
L 47.609375 25.390625 
L 58.015625 25.390625 
L 58.015625 17.1875 
L 47.609375 17.1875 
L 47.609375 0 
L 37.796875 0 
L 37.796875 17.1875 
L 4.890625 17.1875 
L 4.890625 26.703125 
z
" id="DejaVuSans-34"/>
      </defs>
      <g transform="translate(292.971591 247.810438)scale(0.1 -0.1)">
       <use xlink:href="#DejaVuSans-34"/>
       <use x="63.623047" xlink:href="#DejaVuSans-30"/>
      </g>
     </g>
    </g>
    <g id="xtick_6">
     <g id="line2d_6">
      <g>
       <use style="stroke:#000000;stroke-width:0.8;" x="360.206818" xlink:href="#m17de1d5e11" y="233.212"/>
      </g>
     </g>
     <g id="text_6">
      <!-- 50 -->
      <defs>
       <path d="M 10.796875 72.90625 
L 49.515625 72.90625 
L 49.515625 64.59375 
L 19.828125 64.59375 
L 19.828125 46.734375 
Q 21.96875 47.46875 24.109375 47.828125 
Q 26.265625 48.1875 28.421875 48.1875 
Q 40.625 48.1875 47.75 41.5 
Q 54.890625 34.8125 54.890625 23.390625 
Q 54.890625 11.625 47.5625 5.09375 
Q 40.234375 -1.421875 26.90625 -1.421875 
Q 22.3125 -1.421875 17.546875 -0.640625 
Q 12.796875 0.140625 7.71875 1.703125 
L 7.71875 11.625 
Q 12.109375 9.234375 16.796875 8.0625 
Q 21.484375 6.890625 26.703125 6.890625 
Q 35.15625 6.890625 40.078125 11.328125 
Q 45.015625 15.765625 45.015625 23.390625 
Q 45.015625 31 40.078125 35.4375 
Q 35.15625 39.890625 26.703125 39.890625 
Q 22.75 39.890625 18.8125 39.015625 
Q 14.890625 38.140625 10.796875 36.28125 
z
" id="DejaVuSans-35"/>
      </defs>
      <g transform="translate(353.844318 247.810438)scale(0.1 -0.1)">
       <use xlink:href="#DejaVuSans-35"/>
       <use x="63.623047" xlink:href="#DejaVuSans-30"/>
      </g>
     </g>
    </g>
    <g id="text_7">
     <!-- $x \: [m]$ -->
     <defs>
      <path d="M 60.015625 54.6875 
L 34.90625 27.875 
L 50.296875 0 
L 39.984375 0 
L 28.421875 21.6875 
L 8.296875 0 
L -2.59375 0 
L 24.3125 28.8125 
L 10.015625 54.6875 
L 20.3125 54.6875 
L 30.8125 34.90625 
L 49.125 54.6875 
z
" id="DejaVuSans-Oblique-78"/>
      <path d="M 8.59375 75.984375 
L 29.296875 75.984375 
L 29.296875 69 
L 17.578125 69 
L 17.578125 -6.203125 
L 29.296875 -6.203125 
L 29.296875 -13.1875 
L 8.59375 -13.1875 
z
" id="DejaVuSans-5b"/>
      <path d="M 89.796875 33.015625 
L 83.40625 0 
L 74.421875 0 
L 80.71875 32.71875 
Q 81.109375 34.8125 81.296875 36.328125 
Q 81.5 37.84375 81.5 38.921875 
Q 81.5 43.3125 79.046875 45.75 
Q 76.609375 48.1875 72.21875 48.1875 
Q 65.671875 48.1875 60.546875 43.28125 
Q 55.421875 38.375 53.90625 30.515625 
L 47.90625 0 
L 38.921875 0 
L 45.3125 32.71875 
Q 45.703125 34.515625 45.890625 36.046875 
Q 46.09375 37.59375 46.09375 38.8125 
Q 46.09375 43.265625 43.65625 45.71875 
Q 41.21875 48.1875 36.921875 48.1875 
Q 30.28125 48.1875 25.140625 43.28125 
Q 20.015625 38.375 18.5 30.515625 
L 12.5 0 
L 3.515625 0 
L 14.203125 54.6875 
L 23.1875 54.6875 
L 21.484375 46.1875 
Q 25.140625 50.984375 30.046875 53.484375 
Q 34.96875 56 40.578125 56 
Q 46.53125 56 50.359375 52.875 
Q 54.203125 49.75 54.984375 44.1875 
Q 59.078125 49.953125 64.46875 52.96875 
Q 69.875 56 75.875 56 
Q 82.90625 56 86.734375 51.953125 
Q 90.578125 47.90625 90.578125 40.484375 
Q 90.578125 38.875 90.375 36.9375 
Q 90.1875 35.015625 89.796875 33.015625 
z
" id="DejaVuSans-Oblique-6d"/>
      <path d="M 30.421875 75.984375 
L 30.421875 -13.1875 
L 9.71875 -13.1875 
L 9.71875 -6.203125 
L 21.390625 -6.203125 
L 21.390625 69 
L 9.71875 69 
L 9.71875 75.984375 
z
" id="DejaVuSans-5d"/>
     </defs>
     <g transform="translate(195.175 261.488563)scale(0.1 -0.1)">
      <use transform="translate(0 0.015625)" xlink:href="#DejaVuSans-Oblique-78"/>
      <use transform="translate(80.826606 0.015625)" xlink:href="#DejaVuSans-5b"/>
      <use transform="translate(119.840278 0.015625)" xlink:href="#DejaVuSans-Oblique-6d"/>
      <use transform="translate(217.252388 0.015625)" xlink:href="#DejaVuSans-5d"/>
     </g>
    </g>
   </g>
   <g id="matplotlib.axis_2">
    <g id="ytick_1">
     <g id="line2d_7">
      <defs>
       <path d="M 0 0 
L -3.5 0 
" id="m8801b51f61" style="stroke:#000000;stroke-width:0.8;"/>
      </defs>
      <g>
       <use style="stroke:#000000;stroke-width:0.8;" x="40.625" xlink:href="#m8801b51f61" y="224.081091"/>
      </g>
     </g>
     <g id="text_8">
      <!-- 0 -->
      <g transform="translate(27.2625 227.88031)scale(0.1 -0.1)">
       <use xlink:href="#DejaVuSans-30"/>
      </g>
     </g>
    </g>
    <g id="ytick_2">
     <g id="line2d_8">
      <g>
       <use style="stroke:#000000;stroke-width:0.8;" x="40.625" xlink:href="#m8801b51f61" y="193.644727"/>
      </g>
     </g>
     <g id="text_9">
      <!-- 5 -->
      <g transform="translate(27.2625 197.443946)scale(0.1 -0.1)">
       <use xlink:href="#DejaVuSans-35"/>
      </g>
     </g>
    </g>
    <g id="ytick_3">
     <g id="line2d_9">
      <g>
       <use style="stroke:#000000;stroke-width:0.8;" x="40.625" xlink:href="#m8801b51f61" y="163.208364"/>
      </g>
     </g>
     <g id="text_10">
      <!-- 10 -->
      <g transform="translate(20.9 167.007582)scale(0.1 -0.1)">
       <use xlink:href="#DejaVuSans-31"/>
       <use x="63.623047" xlink:href="#DejaVuSans-30"/>
      </g>
     </g>
    </g>
    <g id="ytick_4">
     <g id="line2d_10">
      <g>
       <use style="stroke:#000000;stroke-width:0.8;" x="40.625" xlink:href="#m8801b51f61" y="132.772"/>
      </g>
     </g>
     <g id="text_11">
      <!-- 15 -->
      <g transform="translate(20.9 136.571219)scale(0.1 -0.1)">
       <use xlink:href="#DejaVuSans-31"/>
       <use x="63.623047" xlink:href="#DejaVuSans-35"/>
      </g>
     </g>
    </g>
    <g id="ytick_5">
     <g id="line2d_11">
      <g>
       <use style="stroke:#000000;stroke-width:0.8;" x="40.625" xlink:href="#m8801b51f61" y="102.335636"/>
      </g>
     </g>
     <g id="text_12">
      <!-- 20 -->
      <g transform="translate(20.9 106.134855)scale(0.1 -0.1)">
       <use xlink:href="#DejaVuSans-32"/>
       <use x="63.623047" xlink:href="#DejaVuSans-30"/>
      </g>
     </g>
    </g>
    <g id="ytick_6">
     <g id="line2d_12">
      <g>
       <use style="stroke:#000000;stroke-width:0.8;" x="40.625" xlink:href="#m8801b51f61" y="71.899273"/>
      </g>
     </g>
     <g id="text_13">
      <!-- 25 -->
      <g transform="translate(20.9 75.698491)scale(0.1 -0.1)">
       <use xlink:href="#DejaVuSans-32"/>
       <use x="63.623047" xlink:href="#DejaVuSans-35"/>
      </g>
     </g>
    </g>
    <g id="ytick_7">
     <g id="line2d_13">
      <g>
       <use style="stroke:#000000;stroke-width:0.8;" x="40.625" xlink:href="#m8801b51f61" y="41.462909"/>
      </g>
     </g>
     <g id="text_14">
      <!-- 30 -->
      <g transform="translate(20.9 45.262128)scale(0.1 -0.1)">
       <use xlink:href="#DejaVuSans-33"/>
       <use x="63.623047" xlink:href="#DejaVuSans-30"/>
      </g>
     </g>
    </g>
    <g id="text_15">
     <!-- $y \: [m]$ -->
     <defs>
      <path d="M 24.8125 -5.078125 
Q 18.5625 -15.578125 14.625 -18.1875 
Q 10.6875 -20.796875 4.59375 -20.796875 
L -2.484375 -20.796875 
L -0.984375 -13.28125 
L 4.203125 -13.28125 
Q 7.953125 -13.28125 10.59375 -11.234375 
Q 13.234375 -9.1875 16.5 -3.21875 
L 19.28125 2 
L 7.171875 54.6875 
L 16.703125 54.6875 
L 25.78125 12.796875 
L 50.875 54.6875 
L 60.296875 54.6875 
z
" id="DejaVuSans-Oblique-79"/>
     </defs>
     <g transform="translate(14.8 145.622)rotate(-90)scale(0.1 -0.1)">
      <use transform="translate(0 0.015625)" xlink:href="#DejaVuSans-Oblique-79"/>
      <use transform="translate(80.826606 0.015625)" xlink:href="#DejaVuSans-5b"/>
      <use transform="translate(119.840278 0.015625)" xlink:href="#DejaVuSans-Oblique-6d"/>
      <use transform="translate(217.252388 0.015625)" xlink:href="#DejaVuSans-5d"/>
     </g>
    </g>
   </g>
   <g id="line2d_14">
    <path clip-path="url(#pdb3b40500e)" d="M 56.451909 186.46487 
" style="fill:none;stroke:#000000;stroke-linecap:square;stroke-width:1.5;"/>
   </g>
   <g id="line2d_15">
    <path clip-path="url(#pdb3b40500e)" d="M 55.843182 224.081091 
L 55.843182 41.462909 
L 360.206818 41.462909 
L 360.206818 224.081091 
L 55.843182 224.081091 
" style="fill:none;stroke:#000000;stroke-linecap:square;stroke-width:1.5;"/>
   </g>
   <g id="line2d_16">
    <defs>
     <path d="M -3 3 
L 3 3 
L 3 -3 
L -3 -3 
z
" id="mef88349a3e" style="stroke:#000000;stroke-linejoin:miter;"/>
    </defs>
    <g clip-path="url(#pdb3b40500e)">
     <use style="stroke:#000000;stroke-linejoin:miter;" x="56.451909" xlink:href="#mef88349a3e" y="186.46487"/>
    </g>
   </g>
   <g id="line2d_17">
    <defs>
     <path d="M -3 3 
L 3 -3 
M -3 -3 
L 3 3 
" id="m44f3811436" style="stroke:#000000;"/>
    </defs>
    <g clip-path="url(#pdb3b40500e)">
     <use style="stroke:#000000;" x="360.206818" xlink:href="#m44f3811436" y="113.96389"/>
    </g>
   </g>
   <g id="line2d_18">
    <path clip-path="url(#pdb3b40500e)" d="M 56.451909 186.46487 
L 78.868099 186.60326 
L 89.799187 187.377489 
L 95.87075 187.828174 
L 103.780856 188.069358 
L 121.080516 188.242901 
L 126.558607 188.252379 
L 132.031659 188.512748 
L 138.701069 189.108907 
L 155.033242 190.96761 
L 164.712088 192.056419 
L 173.204891 192.77992 
L 180.499645 193.179408 
L 192.511825 193.291029 
L 200.298584 193.297876 
L 204.724638 193.155975 
L 215.047499 192.424491 
L 215.047499 192.424491 
" style="fill:none;stroke:#000000;stroke-linecap:square;stroke-width:1.5;"/>
   </g>
   <g id="line2d_19">
    <path clip-path="url(#pdb3b40500e)" d="M 56.451909 186.46487 
L 64.254637 186.488098 
L 75.206075 186.836742 
L 81.900242 187.006024 
L 86.158688 186.852832 
L 104.381417 185.624978 
L 108.615594 185.149986 
L 115.266981 184.363989 
L 123.740297 183.45353 
L 127.372298 183.073876 
L 131.002539 182.675609 
L 137.643165 181.822496 
L 143.711618 181.336497 
L 149.183067 181.033384 
L 155.250617 180.535974 
L 178.826442 177.742661 
L 191.52619 176.281311 
L 195.754446 175.748278 
L 200.589746 175.169058 
L 206.625719 174.375729 
L 213.269717 173.531508 
L 230.151154 171.167074 
L 234.379913 170.642988 
L 245.868579 169.330534 
L 260.430614 168.120659 
L 267.112612 167.671195 
L 275.01606 167.283974 
L 281.063998 166.597166 
L 284.048622 166.004651 
L 292.350514 164.076676 
L 292.947079 163.955547 
L 292.947079 163.955547 
" style="fill:none;stroke:#000000;stroke-linecap:square;stroke-width:1.5;"/>
   </g>
   <g id="line2d_20">
    <path clip-path="url(#pdb3b40500e)" d="M 56.451909 186.46487 
L 63.318831 186.454733 
L 90.547887 186.327664 
L 96.017628 186.009835 
L 108.778621 185.266242 
L 115.180418 185.293613 
L 120.04311 185.56385 
L 124.290433 185.901793 
L 134.59452 186.872329 
L 143.669353 187.885847 
L 155.096401 189.684655 
L 171.290338 192.496268 
L 176.695458 193.391921 
L 188.622723 195.836965 
L 192.747803 196.906516 
L 197.410514 198.312319 
L 200.840181 199.569965 
L 209.403944 202.739883 
L 211.11598 203.375864 
L 211.11598 203.375864 
" style="fill:none;stroke:#000000;stroke-linecap:square;stroke-width:1.5;"/>
   </g>
   <g id="line2d_21">
    <path clip-path="url(#pdb3b40500e)" d="M 56.451909 186.46487 
L 58.882578 186.422798 
L 62.52408 186.14459 
L 70.385427 185.225398 
L 78.23592 184.228146 
L 92.775757 182.778254 
L 98.224334 182.205236 
L 118.147898 179.647002 
L 121.724619 178.908839 
L 136.535649 175.406985 
L 156.967796 169.388877 
L 174.228372 163.420989 
L 191.086196 158.184868 
L 197.566364 156.494813 
L 211.739763 152.94988 
L 220.570123 150.621931 
L 244.107447 144.391837 
L 247.069023 143.688802 
L 247.069023 143.688802 
" style="fill:none;stroke:#000000;stroke-linecap:square;stroke-width:1.5;"/>
   </g>
   <g id="line2d_22">
    <path clip-path="url(#pdb3b40500e)" d="M 56.451909 186.46487 
L 62.932103 186.469483 
L 73.291586 186.270841 
L 79.986367 186.084837 
L 88.404772 186.188299 
L 105.420574 187.200647 
L 111.49305 187.62128 
L 116.954516 188.041655 
L 124.196597 188.99684 
L 128.417767 189.579751 
L 134.452272 190.372103 
L 145.242133 192.258776 
L 149.452658 192.911726 
L 159.049567 194.574735 
L 166.204292 196.045171 
L 176.860217 198.598802 
L 182.208573 199.789175 
L 185.173762 200.474104 
L 185.173762 200.474104 
" style="fill:none;stroke:#000000;stroke-linecap:square;stroke-width:1.5;"/>
   </g>
   <g id="line2d_23">
    <path clip-path="url(#pdb3b40500e)" d="M 56.451909 186.46487 
L 61.373344 186.440713 
L 74.147873 185.943887 
L 81.07201 185.97787 
L 86.540721 186.315729 
L 92.602301 186.865832 
L 96.210927 187.427439 
L 104.565326 189.11537 
L 108.15017 189.8133 
L 112.945057 190.663336 
L 124.904592 192.943307 
L 130.868728 194.15825 
L 135.678447 194.925299 
L 145.268406 196.619749 
L 149.998046 197.780218 
L 152.365379 198.350386 
L 152.365379 198.350386 
" style="fill:none;stroke:#000000;stroke-linecap:square;stroke-width:1.5;"/>
   </g>
   <g id="line2d_24">
    <path clip-path="url(#pdb3b40500e)" d="M 56.451909 186.46487 
L 61.182562 186.466589 
L 68.948419 186.50862 
L 79.701357 186.72585 
L 83.353177 186.763902 
L 94.792519 186.956946 
L 115.954402 186.725762 
L 120.805575 186.299219 
L 128.646617 185.22501 
L 135.874566 184.17958 
L 141.936095 183.619084 
L 146.786261 183.178991 
L 157.080827 182.131645 
L 162.557367 181.943235 
L 172.290855 181.563178 
L 177.763671 181.308269 
L 186.891808 181.052218 
L 190.91222 181.015974 
L 207.233325 181.269466 
L 213.307672 181.668278 
L 216.953559 181.881764 
L 221.207763 182.125966 
L 221.207763 182.125966 
" style="fill:none;stroke:#000000;stroke-linecap:square;stroke-width:1.5;"/>
   </g>
   <g id="line2d_25">
    <path clip-path="url(#pdb3b40500e)" d="M 56.451909 186.46487 
L 63.753107 186.695307 
L 67.390629 187.023695 
L 80.742073 188.065955 
L 85.609323 188.234635 
L 98.768958 188.344542 
L 123.680825 188.184204 
L 127.931309 188.481161 
L 137.610077 189.540934 
L 149.575969 191.782991 
L 154.386479 192.540915 
L 160.983885 193.693889 
L 168.770697 195.106638 
L 177.183425 196.461944 
L 194.105133 198.518647 
L 197.143518 198.688143 
L 202.004931 198.979197 
L 213.532065 199.946411 
L 227.467321 201.291741 
L 238.394977 202.099353 
L 246.283997 202.728483 
L 252.36959 202.897124 
L 263.196964 203.03029 
L 268.659375 203.453897 
L 272.91146 203.724417 
L 272.91146 203.724417 
" style="fill:none;stroke:#000000;stroke-linecap:square;stroke-width:1.5;"/>
   </g>
   <g id="line2d_26">
    <path clip-path="url(#pdb3b40500e)" d="M 56.451909 186.46487 
L 62.290691 186.374644 
L 65.975578 186.327515 
L 73.530515 186.481346 
L 85.109114 186.35881 
L 95.447178 185.905175 
L 102.194318 185.911162 
L 133.977852 185.923991 
L 143.705584 185.420919 
L 147.909839 185.278993 
L 154.22492 185.172508 
L 161.521009 184.809785 
L 182.809994 183.919172 
L 192.883492 184.173474 
L 203.198218 185.02813 
L 212.297212 185.793718 
L 217.155769 186.130749 
L 217.155769 186.130749 
" style="fill:none;stroke:#000000;stroke-linecap:square;stroke-width:1.5;"/>
   </g>
   <g id="line2d_27">
    <path clip-path="url(#pdb3b40500e)" d="M 56.451909 186.46487 
L 71.073346 186.563361 
L 88.347295 186.694284 
L 93.20982 186.981636 
L 101.693103 187.793312 
L 108.335191 188.652485 
L 122.767705 190.904917 
L 128.791636 191.77944 
L 136.580037 193.186644 
L 143.819832 194.160849 
L 156.534315 195.481939 
L 164.397597 196.379498 
L 170.467449 196.846361 
L 175.330969 197.092509 
L 181.619577 197.056514 
L 185.652023 197.096235 
L 192.316231 197.206142 
L 199.009835 197.221031 
L 205.692875 197.645973 
L 211.145908 198.170355 
L 217.80342 198.888757 
L 222.056897 199.140952 
L 228.737222 199.600981 
L 235.978262 200.565504 
L 243.18614 201.751414 
L 248.612656 202.510039 
L 252.239445 202.940477 
L 258.279243 203.7024 
L 273.344847 205.847105 
L 273.344847 205.847105 
" style="fill:none;stroke:#000000;stroke-linecap:square;stroke-width:1.5;"/>
   </g>
   <g id="line2d_28">
    <path clip-path="url(#pdb3b40500e)" d="M 56.451909 186.46487 
L 60.575364 186.423027 
L 66.65639 186.364311 
L 90.452475 186.530829 
L 107.418966 187.057407 
L 119.420271 186.846371 
L 128.535006 186.296826 
L 157.697994 184.454351 
L 162.55499 184.112763 
L 190.40027 181.179076 
L 194.658805 181.030148 
L 201.704081 180.722278 
L 207.774773 180.268772 
L 212.012806 179.82832 
L 215.607681 179.185316 
L 222.748244 177.641976 
L 222.748244 177.641976 
" style="fill:none;stroke:#000000;stroke-linecap:square;stroke-width:1.5;"/>
   </g>
   <g id="line2d_29">
    <path clip-path="url(#pdb3b40500e)" d="M 56.451909 186.46487 
L 61.99763 186.42687 
L 70.394116 186.531347 
L 82.565149 186.758163 
L 89.858239 186.347894 
L 109.258578 184.605923 
L 120.105635 183.081555 
L 123.702797 182.451831 
L 133.362417 181.211023 
L 136.372679 180.763817 
L 144.138731 179.23943 
L 150.112686 178.070206 
L 156.734276 177.079285 
L 170.664364 175.661173 
L 180.37052 174.865791 
L 187.037824 174.24478 
L 193.70807 173.653853 
L 210.693616 172.208905 
L 217.979663 171.692236 
L 225.241725 170.895924 
L 228.851981 170.345742 
L 237.224323 168.765825 
L 243.747305 167.251212 
L 253.248453 165.105124 
L 268.057562 161.596429 
L 272.247521 160.820055 
L 276.433249 160.016188 
L 281.794147 158.88435 
L 285.900928 157.748706 
L 287.068337 157.402738 
L 287.068337 157.402738 
" style="fill:none;stroke:#000000;stroke-linecap:square;stroke-width:1.5;"/>
   </g>
   <g id="line2d_30">
    <path clip-path="url(#pdb3b40500e)" d="M 56.451909 186.46487 
L 60.424046 186.475599 
L 66.017339 186.592975 
L 71.488963 186.851834 
L 79.373456 187.539358 
L 90.9191 188.224143 
L 98.812492 188.784157 
L 112.217695 189.197354 
L 126.365272 189.211773 
L 135.579625 189.287544 
L 142.375862 189.451736 
L 150.333205 189.415036 
L 164.438141 188.86822 
L 192.552175 188.785804 
L 201.800277 188.624726 
L 209.855972 188.700635 
L 209.855972 188.700635 
" style="fill:none;stroke:#000000;stroke-linecap:square;stroke-width:1.5;"/>
   </g>
   <g id="line2d_31">
    <path clip-path="url(#pdb3b40500e)" d="M 56.451909 186.46487 
L 60.101996 186.545951 
L 78.892033 187.376313 
L 84.732227 187.394686 
L 88.844022 187.493853 
L 101.142571 187.630048 
L 120.389541 187.531833 
L 126.469925 187.22468 
L 130.108379 186.908575 
L 135.572241 186.499208 
L 144.685474 185.910328 
L 149.518555 185.311081 
L 167.624969 182.922887 
L 173.061502 182.248156 
L 184.492396 180.479761 
L 189.339454 180.004987 
L 202.675222 178.774279 
L 209.350555 178.242547 
L 218.473055 177.84253 
L 222.731866 177.696394 
L 222.731866 177.696394 
" style="fill:none;stroke:#000000;stroke-linecap:square;stroke-width:1.5;"/>
   </g>
   <g id="line2d_32">
    <path clip-path="url(#pdb3b40500e)" d="M 56.451909 186.46487 
L 65.042361 186.353096 
L 71.979512 186.346059 
L 88.400335 187.042183 
L 97.505071 187.748323 
L 103.580376 188.143557 
L 107.227486 188.334097 
L 116.637839 188.44002 
L 131.3415 188.465764 
L 163.365441 188.296584 
L 170.149099 188.385937 
L 196.138213 188.278538 
L 202.269434 188.198259 
L 206.830163 188.121816 
L 212.303427 187.87355 
L 212.303427 187.87355 
" style="fill:none;stroke:#000000;stroke-linecap:square;stroke-width:1.5;"/>
   </g>
   <g id="line2d_33">
    <path clip-path="url(#pdb3b40500e)" d="M 56.451909 186.46487 
L 60.102977 186.577976 
L 64.950527 186.609289 
L 69.501799 186.714501 
L 76.782701 187.310895 
L 81.636372 187.699092 
L 91.584865 188.071487 
L 112.705346 188.208299 
L 120.607893 188.618565 
L 124.859979 188.895091 
L 130.933869 189.30877 
L 135.773433 189.852474 
L 143.01966 190.784961 
L 164.193657 193.157556 
L 169.646499 193.680867 
L 184.123138 195.650183 
L 191.414119 196.117296 
L 195.665439 196.40165 
L 199.308006 196.663584 
L 204.070472 196.701636 
L 223.082076 196.718751 
L 223.082076 196.718751 
" style="fill:none;stroke:#000000;stroke-linecap:square;stroke-width:1.5;"/>
   </g>
   <g id="line2d_34">
    <path clip-path="url(#pdb3b40500e)" d="M 56.451909 186.46487 
L 63.551425 186.351202 
L 70.24629 186.254898 
L 77.14599 186.33078 
L 83.377975 186.335978 
L 88.295537 186.318182 
L 93.157782 186.053867 
L 99.226171 185.567176 
L 111.355979 184.510132 
L 131.407735 183.300372 
L 135.058267 183.407935 
L 138.704676 183.623486 
L 145.370445 184.256062 
L 158.63011 186.142164 
L 173.025193 188.619372 
L 180.884416 189.551796 
L 186.914116 190.387646 
L 198.336461 192.211691 
L 208.554364 193.848706 
L 224.04309 197.104178 
L 224.04309 197.104178 
" style="fill:none;stroke:#000000;stroke-linecap:square;stroke-width:1.5;"/>
   </g>
   <g id="line2d_35">
    <path clip-path="url(#pdb3b40500e)" d="M 56.451909 186.46487 
L 70.523669 186.709092 
L 75.422978 186.706337 
L 80.857603 186.426916 
L 88.145274 185.918285 
L 97.241233 185.112911 
L 110.576123 183.890761 
L 116.015998 183.247319 
L 122.081833 182.734375 
L 131.747815 181.532328 
L 139.599001 180.538938 
L 146.878098 179.919086 
L 155.360096 179.081603 
L 160.808283 178.503876 
L 177.675492 176.050625 
L 185.409548 174.375563 
L 189.511853 173.221512 
L 194.135105 171.690967 
L 197.608268 170.560704 
L 202.886045 169.091815 
L 208.743682 167.431245 
L 215.778459 165.461007 
L 222.230456 163.666704 
L 226.883501 162.228183 
L 231.473346 160.60141 
L 242.796313 156.129247 
L 247.96321 154.306115 
L 250.842756 153.318754 
L 250.842756 153.318754 
" style="fill:none;stroke:#000000;stroke-linecap:square;stroke-width:1.5;"/>
   </g>
   <g id="line2d_36">
    <path clip-path="url(#pdb3b40500e)" d="M 56.451909 186.46487 
L 59.847974 186.468637 
L 66.015832 186.394515 
L 73.624168 186.408594 
L 81.536177 186.610512 
L 93.094091 187.041016 
L 97.113254 187.187081 
L 107.697026 187.503266 
L 113.167598 187.780587 
L 118.093687 187.757043 
L 123.569196 187.587193 
L 164.868251 184.749179 
L 170.049636 184.719912 
L 175.049653 184.839276 
L 181.135526 184.987539 
L 186.585024 184.922768 
L 190.673225 184.887101 
L 202.677332 184.904561 
L 220.113573 184.91281 
L 220.113573 184.91281 
" style="fill:none;stroke:#000000;stroke-linecap:square;stroke-width:1.5;"/>
   </g>
   <g id="line2d_37">
    <path clip-path="url(#pdb3b40500e)" d="M 56.451909 186.46487 
L 80.93348 186.170852 
L 84.570154 185.834472 
L 92.454049 185.149856 
L 106.530216 184.431463 
L 118.250359 184.428907 
L 156.782514 184.453957 
L 166.512069 184.898938 
L 173.801335 185.359573 
L 185.109864 185.449324 
L 188.143605 185.208647 
L 206.91878 183.364465 
L 214.205898 182.854165 
L 220.27964 182.436686 
L 221.495517 182.371993 
L 221.495517 182.371993 
" style="fill:none;stroke:#000000;stroke-linecap:square;stroke-width:1.5;"/>
   </g>
   <g id="patch_20">
    <path d="M 40.625 233.212 
L 40.625 32.332 
" style="fill:none;stroke:#000000;stroke-linecap:square;stroke-linejoin:miter;stroke-width:0.8;"/>
   </g>
   <g id="patch_21">
    <path d="M 375.425 233.212 
L 375.425 32.332 
" style="fill:none;stroke:#000000;stroke-linecap:square;stroke-linejoin:miter;stroke-width:0.8;"/>
   </g>
   <g id="patch_22">
    <path d="M 40.625 233.212 
L 375.425 233.212 
" style="fill:none;stroke:#000000;stroke-linecap:square;stroke-linejoin:miter;stroke-width:0.8;"/>
   </g>
   <g id="patch_23">
    <path d="M 40.625 32.332 
L 375.425 32.332 
" style="fill:none;stroke:#000000;stroke-linecap:square;stroke-linejoin:miter;stroke-width:0.8;"/>
   </g>
   <g id="legend_1">
    <g id="patch_24">
     <path d="M 38.396094 24.878125 
L 377.653906 24.878125 
Q 379.653906 24.878125 379.653906 22.878125 
L 379.653906 9.2 
Q 379.653906 7.2 377.653906 7.2 
L 38.396094 7.2 
Q 36.396094 7.2 36.396094 9.2 
L 36.396094 22.878125 
Q 36.396094 24.878125 38.396094 24.878125 
z
" style="fill:#ffffff;opacity:0.8;stroke:#cccccc;stroke-linejoin:miter;"/>
    </g>
    <g id="line2d_38">
     <path d="M 40.396094 15.298437 
L 60.396094 15.298437 
" style="fill:none;stroke:#000000;stroke-linecap:square;stroke-width:1.5;"/>
    </g>
    <g id="line2d_39"/>
    <g id="text_16">
     <!-- Boundaries -->
     <defs>
      <path d="M 19.671875 34.8125 
L 19.671875 8.109375 
L 35.5 8.109375 
Q 43.453125 8.109375 47.28125 11.40625 
Q 51.125 14.703125 51.125 21.484375 
Q 51.125 28.328125 47.28125 31.5625 
Q 43.453125 34.8125 35.5 34.8125 
z
M 19.671875 64.796875 
L 19.671875 42.828125 
L 34.28125 42.828125 
Q 41.5 42.828125 45.03125 45.53125 
Q 48.578125 48.25 48.578125 53.8125 
Q 48.578125 59.328125 45.03125 62.0625 
Q 41.5 64.796875 34.28125 64.796875 
z
M 9.8125 72.90625 
L 35.015625 72.90625 
Q 46.296875 72.90625 52.390625 68.21875 
Q 58.5 63.53125 58.5 54.890625 
Q 58.5 48.1875 55.375 44.234375 
Q 52.25 40.28125 46.1875 39.3125 
Q 53.46875 37.75 57.5 32.78125 
Q 61.53125 27.828125 61.53125 20.40625 
Q 61.53125 10.640625 54.890625 5.3125 
Q 48.25 0 35.984375 0 
L 9.8125 0 
z
" id="DejaVuSans-42"/>
      <path d="M 30.609375 48.390625 
Q 23.390625 48.390625 19.1875 42.75 
Q 14.984375 37.109375 14.984375 27.296875 
Q 14.984375 17.484375 19.15625 11.84375 
Q 23.34375 6.203125 30.609375 6.203125 
Q 37.796875 6.203125 41.984375 11.859375 
Q 46.1875 17.53125 46.1875 27.296875 
Q 46.1875 37.015625 41.984375 42.703125 
Q 37.796875 48.390625 30.609375 48.390625 
z
M 30.609375 56 
Q 42.328125 56 49.015625 48.375 
Q 55.71875 40.765625 55.71875 27.296875 
Q 55.71875 13.875 49.015625 6.21875 
Q 42.328125 -1.421875 30.609375 -1.421875 
Q 18.84375 -1.421875 12.171875 6.21875 
Q 5.515625 13.875 5.515625 27.296875 
Q 5.515625 40.765625 12.171875 48.375 
Q 18.84375 56 30.609375 56 
z
" id="DejaVuSans-6f"/>
      <path d="M 8.5 21.578125 
L 8.5 54.6875 
L 17.484375 54.6875 
L 17.484375 21.921875 
Q 17.484375 14.15625 20.5 10.265625 
Q 23.53125 6.390625 29.59375 6.390625 
Q 36.859375 6.390625 41.078125 11.03125 
Q 45.3125 15.671875 45.3125 23.6875 
L 45.3125 54.6875 
L 54.296875 54.6875 
L 54.296875 0 
L 45.3125 0 
L 45.3125 8.40625 
Q 42.046875 3.421875 37.71875 1 
Q 33.40625 -1.421875 27.6875 -1.421875 
Q 18.265625 -1.421875 13.375 4.4375 
Q 8.5 10.296875 8.5 21.578125 
z
M 31.109375 56 
z
" id="DejaVuSans-75"/>
      <path d="M 54.890625 33.015625 
L 54.890625 0 
L 45.90625 0 
L 45.90625 32.71875 
Q 45.90625 40.484375 42.875 44.328125 
Q 39.84375 48.1875 33.796875 48.1875 
Q 26.515625 48.1875 22.3125 43.546875 
Q 18.109375 38.921875 18.109375 30.90625 
L 18.109375 0 
L 9.078125 0 
L 9.078125 54.6875 
L 18.109375 54.6875 
L 18.109375 46.1875 
Q 21.34375 51.125 25.703125 53.5625 
Q 30.078125 56 35.796875 56 
Q 45.21875 56 50.046875 50.171875 
Q 54.890625 44.34375 54.890625 33.015625 
z
" id="DejaVuSans-6e"/>
      <path d="M 45.40625 46.390625 
L 45.40625 75.984375 
L 54.390625 75.984375 
L 54.390625 0 
L 45.40625 0 
L 45.40625 8.203125 
Q 42.578125 3.328125 38.25 0.953125 
Q 33.9375 -1.421875 27.875 -1.421875 
Q 17.96875 -1.421875 11.734375 6.484375 
Q 5.515625 14.40625 5.515625 27.296875 
Q 5.515625 40.1875 11.734375 48.09375 
Q 17.96875 56 27.875 56 
Q 33.9375 56 38.25 53.625 
Q 42.578125 51.265625 45.40625 46.390625 
z
M 14.796875 27.296875 
Q 14.796875 17.390625 18.875 11.75 
Q 22.953125 6.109375 30.078125 6.109375 
Q 37.203125 6.109375 41.296875 11.75 
Q 45.40625 17.390625 45.40625 27.296875 
Q 45.40625 37.203125 41.296875 42.84375 
Q 37.203125 48.484375 30.078125 48.484375 
Q 22.953125 48.484375 18.875 42.84375 
Q 14.796875 37.203125 14.796875 27.296875 
z
" id="DejaVuSans-64"/>
      <path d="M 34.28125 27.484375 
Q 23.390625 27.484375 19.1875 25 
Q 14.984375 22.515625 14.984375 16.5 
Q 14.984375 11.71875 18.140625 8.90625 
Q 21.296875 6.109375 26.703125 6.109375 
Q 34.1875 6.109375 38.703125 11.40625 
Q 43.21875 16.703125 43.21875 25.484375 
L 43.21875 27.484375 
z
M 52.203125 31.203125 
L 52.203125 0 
L 43.21875 0 
L 43.21875 8.296875 
Q 40.140625 3.328125 35.546875 0.953125 
Q 30.953125 -1.421875 24.3125 -1.421875 
Q 15.921875 -1.421875 10.953125 3.296875 
Q 6 8.015625 6 15.921875 
Q 6 25.140625 12.171875 29.828125 
Q 18.359375 34.515625 30.609375 34.515625 
L 43.21875 34.515625 
L 43.21875 35.40625 
Q 43.21875 41.609375 39.140625 45 
Q 35.0625 48.390625 27.6875 48.390625 
Q 23 48.390625 18.546875 47.265625 
Q 14.109375 46.140625 10.015625 43.890625 
L 10.015625 52.203125 
Q 14.9375 54.109375 19.578125 55.046875 
Q 24.21875 56 28.609375 56 
Q 40.484375 56 46.34375 49.84375 
Q 52.203125 43.703125 52.203125 31.203125 
z
" id="DejaVuSans-61"/>
      <path d="M 41.109375 46.296875 
Q 39.59375 47.171875 37.8125 47.578125 
Q 36.03125 48 33.890625 48 
Q 26.265625 48 22.1875 43.046875 
Q 18.109375 38.09375 18.109375 28.8125 
L 18.109375 0 
L 9.078125 0 
L 9.078125 54.6875 
L 18.109375 54.6875 
L 18.109375 46.1875 
Q 20.953125 51.171875 25.484375 53.578125 
Q 30.03125 56 36.53125 56 
Q 37.453125 56 38.578125 55.875 
Q 39.703125 55.765625 41.0625 55.515625 
z
" id="DejaVuSans-72"/>
      <path d="M 9.421875 54.6875 
L 18.40625 54.6875 
L 18.40625 0 
L 9.421875 0 
z
M 9.421875 75.984375 
L 18.40625 75.984375 
L 18.40625 64.59375 
L 9.421875 64.59375 
z
" id="DejaVuSans-69"/>
      <path d="M 56.203125 29.59375 
L 56.203125 25.203125 
L 14.890625 25.203125 
Q 15.484375 15.921875 20.484375 11.0625 
Q 25.484375 6.203125 34.421875 6.203125 
Q 39.59375 6.203125 44.453125 7.46875 
Q 49.3125 8.734375 54.109375 11.28125 
L 54.109375 2.78125 
Q 49.265625 0.734375 44.1875 -0.34375 
Q 39.109375 -1.421875 33.890625 -1.421875 
Q 20.796875 -1.421875 13.15625 6.1875 
Q 5.515625 13.8125 5.515625 26.8125 
Q 5.515625 40.234375 12.765625 48.109375 
Q 20.015625 56 32.328125 56 
Q 43.359375 56 49.78125 48.890625 
Q 56.203125 41.796875 56.203125 29.59375 
z
M 47.21875 32.234375 
Q 47.125 39.59375 43.09375 43.984375 
Q 39.0625 48.390625 32.421875 48.390625 
Q 24.90625 48.390625 20.390625 44.140625 
Q 15.875 39.890625 15.1875 32.171875 
z
" id="DejaVuSans-65"/>
      <path d="M 44.28125 53.078125 
L 44.28125 44.578125 
Q 40.484375 46.53125 36.375 47.5 
Q 32.28125 48.484375 27.875 48.484375 
Q 21.1875 48.484375 17.84375 46.4375 
Q 14.5 44.390625 14.5 40.28125 
Q 14.5 37.15625 16.890625 35.375 
Q 19.28125 33.59375 26.515625 31.984375 
L 29.59375 31.296875 
Q 39.15625 29.25 43.1875 25.515625 
Q 47.21875 21.78125 47.21875 15.09375 
Q 47.21875 7.46875 41.1875 3.015625 
Q 35.15625 -1.421875 24.609375 -1.421875 
Q 20.21875 -1.421875 15.453125 -0.5625 
Q 10.6875 0.296875 5.421875 2 
L 5.421875 11.28125 
Q 10.40625 8.6875 15.234375 7.390625 
Q 20.0625 6.109375 24.8125 6.109375 
Q 31.15625 6.109375 34.5625 8.28125 
Q 37.984375 10.453125 37.984375 14.40625 
Q 37.984375 18.0625 35.515625 20.015625 
Q 33.0625 21.96875 24.703125 23.78125 
L 21.578125 24.515625 
Q 13.234375 26.265625 9.515625 29.90625 
Q 5.8125 33.546875 5.8125 39.890625 
Q 5.8125 47.609375 11.28125 51.796875 
Q 16.75 56 26.8125 56 
Q 31.78125 56 36.171875 55.265625 
Q 40.578125 54.546875 44.28125 53.078125 
z
" id="DejaVuSans-73"/>
     </defs>
     <g transform="translate(68.396094 18.798437)scale(0.1 -0.1)">
      <use xlink:href="#DejaVuSans-42"/>
      <use x="68.603516" xlink:href="#DejaVuSans-6f"/>
      <use x="129.785156" xlink:href="#DejaVuSans-75"/>
      <use x="193.164062" xlink:href="#DejaVuSans-6e"/>
      <use x="256.542969" xlink:href="#DejaVuSans-64"/>
      <use x="320.019531" xlink:href="#DejaVuSans-61"/>
      <use x="381.298828" xlink:href="#DejaVuSans-72"/>
      <use x="422.412109" xlink:href="#DejaVuSans-69"/>
      <use x="450.195312" xlink:href="#DejaVuSans-65"/>
      <use x="511.71875" xlink:href="#DejaVuSans-73"/>
     </g>
    </g>
    <g id="line2d_40"/>
    <g id="line2d_41">
     <g>
      <use style="stroke:#000000;stroke-linejoin:miter;" x="154.778906" xlink:href="#mef88349a3e" y="15.298437"/>
     </g>
    </g>
    <g id="text_17">
     <!-- Origin -->
     <defs>
      <path d="M 39.40625 66.21875 
Q 28.65625 66.21875 22.328125 58.203125 
Q 16.015625 50.203125 16.015625 36.375 
Q 16.015625 22.609375 22.328125 14.59375 
Q 28.65625 6.59375 39.40625 6.59375 
Q 50.140625 6.59375 56.421875 14.59375 
Q 62.703125 22.609375 62.703125 36.375 
Q 62.703125 50.203125 56.421875 58.203125 
Q 50.140625 66.21875 39.40625 66.21875 
z
M 39.40625 74.21875 
Q 54.734375 74.21875 63.90625 63.9375 
Q 73.09375 53.65625 73.09375 36.375 
Q 73.09375 19.140625 63.90625 8.859375 
Q 54.734375 -1.421875 39.40625 -1.421875 
Q 24.03125 -1.421875 14.8125 8.828125 
Q 5.609375 19.09375 5.609375 36.375 
Q 5.609375 53.65625 14.8125 63.9375 
Q 24.03125 74.21875 39.40625 74.21875 
z
" id="DejaVuSans-4f"/>
      <path d="M 45.40625 27.984375 
Q 45.40625 37.75 41.375 43.109375 
Q 37.359375 48.484375 30.078125 48.484375 
Q 22.859375 48.484375 18.828125 43.109375 
Q 14.796875 37.75 14.796875 27.984375 
Q 14.796875 18.265625 18.828125 12.890625 
Q 22.859375 7.515625 30.078125 7.515625 
Q 37.359375 7.515625 41.375 12.890625 
Q 45.40625 18.265625 45.40625 27.984375 
z
M 54.390625 6.78125 
Q 54.390625 -7.171875 48.1875 -13.984375 
Q 42 -20.796875 29.203125 -20.796875 
Q 24.46875 -20.796875 20.265625 -20.09375 
Q 16.0625 -19.390625 12.109375 -17.921875 
L 12.109375 -9.1875 
Q 16.0625 -11.328125 19.921875 -12.34375 
Q 23.78125 -13.375 27.78125 -13.375 
Q 36.625 -13.375 41.015625 -8.765625 
Q 45.40625 -4.15625 45.40625 5.171875 
L 45.40625 9.625 
Q 42.625 4.78125 38.28125 2.390625 
Q 33.9375 0 27.875 0 
Q 17.828125 0 11.671875 7.65625 
Q 5.515625 15.328125 5.515625 27.984375 
Q 5.515625 40.671875 11.671875 48.328125 
Q 17.828125 56 27.875 56 
Q 33.9375 56 38.28125 53.609375 
Q 42.625 51.21875 45.40625 46.390625 
L 45.40625 54.6875 
L 54.390625 54.6875 
z
" id="DejaVuSans-67"/>
     </defs>
     <g transform="translate(172.778906 18.798437)scale(0.1 -0.1)">
      <use xlink:href="#DejaVuSans-4f"/>
      <use x="78.710938" xlink:href="#DejaVuSans-72"/>
      <use x="119.824219" xlink:href="#DejaVuSans-69"/>
      <use x="147.607422" xlink:href="#DejaVuSans-67"/>
      <use x="211.083984" xlink:href="#DejaVuSans-69"/>
      <use x="238.867188" xlink:href="#DejaVuSans-6e"/>
     </g>
    </g>
    <g id="line2d_42"/>
    <g id="line2d_43">
     <g>
      <use style="stroke:#000000;" x="233.003906" xlink:href="#m44f3811436" y="15.298437"/>
     </g>
    </g>
    <g id="text_18">
     <!-- Target -->
     <defs>
      <path d="M -0.296875 72.90625 
L 61.375 72.90625 
L 61.375 64.59375 
L 35.5 64.59375 
L 35.5 0 
L 25.59375 0 
L 25.59375 64.59375 
L -0.296875 64.59375 
z
" id="DejaVuSans-54"/>
      <path d="M 18.3125 70.21875 
L 18.3125 54.6875 
L 36.8125 54.6875 
L 36.8125 47.703125 
L 18.3125 47.703125 
L 18.3125 18.015625 
Q 18.3125 11.328125 20.140625 9.421875 
Q 21.96875 7.515625 27.59375 7.515625 
L 36.8125 7.515625 
L 36.8125 0 
L 27.59375 0 
Q 17.1875 0 13.234375 3.875 
Q 9.28125 7.765625 9.28125 18.015625 
L 9.28125 47.703125 
L 2.6875 47.703125 
L 2.6875 54.6875 
L 9.28125 54.6875 
L 9.28125 70.21875 
z
" id="DejaVuSans-74"/>
     </defs>
     <g transform="translate(251.003906 18.798437)scale(0.1 -0.1)">
      <use xlink:href="#DejaVuSans-54"/>
      <use x="60.833984" xlink:href="#DejaVuSans-61"/>
      <use x="122.113281" xlink:href="#DejaVuSans-72"/>
      <use x="163.210938" xlink:href="#DejaVuSans-67"/>
      <use x="226.6875" xlink:href="#DejaVuSans-65"/>
      <use x="288.210938" xlink:href="#DejaVuSans-74"/>
     </g>
    </g>
    <g id="patch_25">
     <path d="M 303.746094 18.798437 
L 323.746094 18.798437 
L 323.746094 11.798437 
L 303.746094 11.798437 
z
" style="fill:#808080;opacity:0.6;stroke:#000000;stroke-linejoin:miter;"/>
    </g>
    <g id="text_19">
     <!-- Obstacle -->
     <defs>
      <path d="M 48.6875 27.296875 
Q 48.6875 37.203125 44.609375 42.84375 
Q 40.53125 48.484375 33.40625 48.484375 
Q 26.265625 48.484375 22.1875 42.84375 
Q 18.109375 37.203125 18.109375 27.296875 
Q 18.109375 17.390625 22.1875 11.75 
Q 26.265625 6.109375 33.40625 6.109375 
Q 40.53125 6.109375 44.609375 11.75 
Q 48.6875 17.390625 48.6875 27.296875 
z
M 18.109375 46.390625 
Q 20.953125 51.265625 25.265625 53.625 
Q 29.59375 56 35.59375 56 
Q 45.5625 56 51.78125 48.09375 
Q 58.015625 40.1875 58.015625 27.296875 
Q 58.015625 14.40625 51.78125 6.484375 
Q 45.5625 -1.421875 35.59375 -1.421875 
Q 29.59375 -1.421875 25.265625 0.953125 
Q 20.953125 3.328125 18.109375 8.203125 
L 18.109375 0 
L 9.078125 0 
L 9.078125 75.984375 
L 18.109375 75.984375 
z
" id="DejaVuSans-62"/>
      <path d="M 48.78125 52.59375 
L 48.78125 44.1875 
Q 44.96875 46.296875 41.140625 47.34375 
Q 37.3125 48.390625 33.40625 48.390625 
Q 24.65625 48.390625 19.8125 42.84375 
Q 14.984375 37.3125 14.984375 27.296875 
Q 14.984375 17.28125 19.8125 11.734375 
Q 24.65625 6.203125 33.40625 6.203125 
Q 37.3125 6.203125 41.140625 7.25 
Q 44.96875 8.296875 48.78125 10.40625 
L 48.78125 2.09375 
Q 45.015625 0.34375 40.984375 -0.53125 
Q 36.96875 -1.421875 32.421875 -1.421875 
Q 20.0625 -1.421875 12.78125 6.34375 
Q 5.515625 14.109375 5.515625 27.296875 
Q 5.515625 40.671875 12.859375 48.328125 
Q 20.21875 56 33.015625 56 
Q 37.15625 56 41.109375 55.140625 
Q 45.0625 54.296875 48.78125 52.59375 
z
" id="DejaVuSans-63"/>
      <path d="M 9.421875 75.984375 
L 18.40625 75.984375 
L 18.40625 0 
L 9.421875 0 
z
" id="DejaVuSans-6c"/>
     </defs>
     <g transform="translate(331.746094 18.798437)scale(0.1 -0.1)">
      <use xlink:href="#DejaVuSans-4f"/>
      <use x="78.710938" xlink:href="#DejaVuSans-62"/>
      <use x="142.1875" xlink:href="#DejaVuSans-73"/>
      <use x="194.287109" xlink:href="#DejaVuSans-74"/>
      <use x="233.496094" xlink:href="#DejaVuSans-61"/>
      <use x="294.775391" xlink:href="#DejaVuSans-63"/>
      <use x="349.755859" xlink:href="#DejaVuSans-6c"/>
      <use x="377.539062" xlink:href="#DejaVuSans-65"/>
     </g>
    </g>
   </g>
  </g>
 </g>
 <defs>
  <clipPath id="pdb3b40500e">
   <rect height="200.88" width="334.8" x="40.625" y="32.332"/>
  </clipPath>
 </defs>
</svg>
